<?xml version="1.0" encoding="UTF-8" standalone="no"?>
<svg
   xmlns:dc="http://purl.org/dc/elements/1.1/"
   xmlns:cc="http://creativecommons.org/ns#"
   xmlns:rdf="http://www.w3.org/1999/02/22-rdf-syntax-ns#"
   xmlns:svg="http://www.w3.org/2000/svg"
   xmlns="http://www.w3.org/2000/svg"
   version="1.1"
   id="svg2"
   viewBox="0 0 744.09448819 1052.3622047"
   height="297mm"
   width="210mm">
  <defs
     id="defs4" />
  <metadata
     id="metadata7">
    <rdf:RDF>
      <cc:Work
         rdf:about="">
        <dc:format>image/svg+xml</dc:format>
        <dc:type
           rdf:resource="http://purl.org/dc/dcmitype/StillImage" />
        <dc:title></dc:title>
      </cc:Work>
    </rdf:RDF>
  </metadata>
  <g
     id="layer1">
    <path
       id="path4201"
       d="m 170.90812,756.95764 c -4.31462,-5.13375 -10.66263,-18.96335 -12.46168,-27.14872 -2.19557,-9.98938 -2.18442,-30.14937 0.0217,-39.25109 2.61781,-10.8002 8.2707,-24.36775 15.31135,-36.74891 8.5371,-15.01268 8.46179,-14.94272 11.05418,-10.2693 l 2.09087,3.7693 -2.85347,10 c -7.22422,25.31724 -8.99354,38.83712 -9.80797,74.94532 l -0.63032,27.94532 -2.72466,-3.24192 z m 94.22466,-19.3676 c 0,-33.29459 -2.65834,-54.76857 -9.93829,-80.28112 l -2.85347,-10 2.09087,-3.7693 c 2.59239,-4.67342 2.51708,-4.74338 11.05418,10.2693 7.04065,12.38116 12.69354,25.94871 15.31135,36.74891 2.19837,9.06976 2.21604,29.24808 0.0344,39.25109 -1.81318,8.31345 -9.45042,24.47839 -13.25257,28.05033 l -2.44647,2.2983 0,-22.56751 z m -122.96423,6.26911 c -3.29855,-4.63238 -6.71841,-12.80375 -9.22841,-22.05023 -2.02647,-7.46524 -2.29918,-10.69126 -2.24017,-26.5 0.0496,-13.28749 0.53763,-20.22535 1.86409,-26.5 5.17308,-24.47063 14.13339,-42.44459 30.40948,-61 l 3.94723,-4.5 1.2527,6.33434 c 1.26839,6.41363 4.02111,10.44517 9.84289,14.41552 l 2.38358,1.62556 -8.53604,13.31229 c -17.38791,27.11714 -25.61423,47.52634 -28.81659,71.49287 -1.19736,8.96107 -0.69687,25.40354 0.99137,32.56942 0.48591,2.0625 0.73651,3.75 0.55688,3.75 -0.17962,0 -1.27178,-1.3274 -2.42701,-2.94977 z m 153.01725,-0.55023 c 1.728,-7.47599 2.24078,-23.77627 1.03245,-32.81942 -3.20235,-23.96653 -11.42868,-44.37573 -28.81659,-71.49287 l -8.53604,-13.31229 2.38358,-1.62556 c 5.81719,-3.96723 8.57465,-8.0022 9.83032,-14.38469 l 1.24015,-6.30353 4.65655,5.36748 c 12.43789,14.33678 19.9671,27.18375 25.0416,42.72804 5.26589,16.13055 6.47454,24.22345 6.54777,43.84284 0.0589,15.78117 -0.21618,19.04778 -2.23164,26.5 -2.53464,9.37196 -6.7779,19.13975 -9.99149,23 l -2.08121,2.5 0.92455,-4 z m -94.04045,-4.10761 c -8.83957,-7.98602 -13.63628,-24.5232 -12.58623,-43.39239 0.71773,-12.89741 2.86684,-26.5322 5.43788,-34.5 l 1.93608,-6 0.12044,10.5 c 0.32121,28.00062 3.04741,50.17426 8.45616,68.77838 1.31464,4.52189 1.99395,8.22162 1.50956,8.22162 -0.48438,0 -2.67764,-1.62343 -4.87389,-3.60761 z m 33.61053,-4.61401 c 5.40875,-18.60412 8.13495,-40.77776 8.45616,-68.77838 l 0.12044,-10.5 1.93608,6 c 2.49657,7.73702 4.65974,21.20577 5.44861,33.92534 1.16189,18.73401 -3.78727,36.00803 -12.59696,43.96705 -2.19625,1.98418 -4.38951,3.60761 -4.87389,3.60761 -0.48439,0 0.19492,-3.69973 1.50956,-8.22162 z M 217.2043,717.30892 c -1.2529,-3.3 -2.86802,-9.375 -3.58915,-13.5 -1.62122,-9.2737 -3.9817,-44.25638 -3.13509,-46.4626 0.51796,-1.34981 2.06288,-1.56815 9.38637,-1.32657 l 8.76635,0.28917 -0.21272,11.5 c -0.45208,24.44078 -2.8312,41.57245 -7.13709,51.39311 l -1.80067,4.10689 -2.278,-6 z m -108.26557,-8.5 C 93.513695,681.6672 87.226755,659.79632 88.386815,637.31335 c 0.91005,-17.6374 6.80899,-31.27989 19.176165,-44.34873 6.62219,-6.99791 36.92069,-33.1557 38.40415,-33.1557 0.72211,0 5.19127,10.92883 5.12779,12.53945 -0.0208,0.5283 -2.07898,2.53555 -4.5737,4.46055 -7.91695,6.10897 -21.57541,21.1882 -27.53966,30.40439 -10.95196,16.92337 -16.15493,34.25588 -15.63835,52.09561 l 0.28956,10 1.32658,-7.5 c 4.23031,-23.9167 13.08802,-44.19204 26.16123,-59.88322 8.33534,-10.00452 22.03797,-22.08818 25.06901,-22.10707 0.94129,-0.006 2.88349,2.73268 4.91234,6.92651 l 3.35553,6.93623 -7.41234,8.60199 c -4.07679,4.73109 -10.01164,11.84729 -13.18857,15.81377 -18.97357,23.68903 -29.44555,54.67591 -30.99385,91.71179 l -0.22993,5.5 -3.69404,-6.5 z m 217.22585,0.21059 c -0.0894,-17.68986 -4.20026,-38.80859 -10.94153,-56.21059 -6.79824,-17.54905 -13.72593,-28.15505 -33.00261,-50.52556 l -7.41234,-8.60199 3.35553,-6.93623 c 2.02885,-4.19383 3.97105,-6.93238 4.91234,-6.92651 3.03104,0.0189 16.73367,12.10255 25.06901,22.10707 13.07321,15.69118 21.93091,35.96652 26.16122,59.88322 l 1.32658,7.5 0.28956,-10 c 0.51658,-17.83973 -4.68639,-35.17224 -15.63834,-52.09561 -5.96425,-9.21619 -19.62271,-24.29542 -27.53966,-30.40439 -2.49472,-1.925 -4.55288,-3.93225 -4.5737,-4.46055 -0.0635,-1.61062 4.40568,-12.53945 5.12779,-12.53945 1.48346,0 31.78195,26.15779 38.40414,33.1557 3.88839,4.109 8.46778,9.91742 10.17643,12.9076 10.31058,18.04377 11.97844,41.23733 4.77749,66.4367 -2.37294,8.30399 -15.31729,36.3721 -18.90824,41 -1.45065,1.86955 -1.55394,1.58979 -1.58367,-4.28941 z M 64.777825,634.14011 c -2.94753,-16.34469 -3.17975,-30.39211 -0.70806,-42.83119 5.63572,-28.36244 19.21102,-42.45778 63.774745,-66.21784 l 13.21173,-7.0441 1.18474,3.63097 c 0.6516,1.99703 2.73002,6.05879 4.61869,9.02611 l 3.43396,5.39515 -1.61969,4.24111 c -2.01138,5.26671 -7.7641,10.84704 -27.04116,26.23083 -15.6961,12.52605 -27.689015,24.30499 -35.830645,35.19135 -6.09616,8.15133 -15.21835,26.59327 -16.78787,33.93933 -0.65889,3.0839 -1.5233,5.98113 -1.92092,6.43828 -0.39762,0.45715 -1.43961,-3.14285 -2.31552,-8 z m 307.093105,7.66881 c -0.30812,-0.825 -1.06936,-3.75 -1.69162,-6.5 -1.5973,-7.05902 -10.95149,-25.83899 -16.69624,-33.52028 -8.16124,-10.91236 -20.14234,-22.68198 -35.85029,-35.21749 -19.27706,-15.38379 -25.02978,-20.96412 -27.04116,-26.23083 l -1.61969,-4.24111 3.43396,-5.39515 c 1.88867,-2.96732 3.96709,-7.02908 4.61869,-9.02611 l 1.18474,-3.63097 13.21173,7.0441 c 26.30305,14.02401 40.65594,24.08154 49.35054,34.58151 7.7374,9.34402 11.80687,18.3588 14.49048,32.09967 2.10568,10.78171 2.1693,12.32773 1.06993,26 -1.18255,14.70664 -3.42767,26.80355 -4.46107,24.03666 z m -181.74282,-7.19728 c -2.64329,-4.28069 -2.35393,-9.43616 0.50467,-8.99189 10.16088,1.57917 12.31064,1.41706 17.31291,-1.30552 2.75482,-1.49936 6.41866,-4.18076 8.14187,-5.95865 3.04983,-3.14663 3.11528,-3.40648 2.46263,-9.77677 l -0.67048,-6.54422 -11.14303,-5.48272 c -11.74199,-5.77742 -12.84655,-6.62076 -14.55424,-11.11234 l -1.06602,-2.80384 3.37621,2.08661 c 2.00781,1.2409 5.06396,2.08662 7.5403,2.08662 2.29025,0 5.83713,0.71644 7.88197,1.59209 2.04483,0.87565 6.41788,1.59209 9.71788,1.59209 3.3,0 7.67305,-0.71644 9.71788,-1.59209 2.04484,-0.87565 5.59172,-1.59209 7.88197,-1.59209 2.47634,0 5.53249,-0.84572 7.5403,-2.08662 l 3.37621,-2.08661 -1.06602,2.80384 c -1.70769,4.49158 -2.81225,5.33492 -14.55424,11.11234 l -11.14303,5.48272 -0.67048,6.54422 c -0.65265,6.37029 -0.5872,6.63014 2.46263,9.77677 1.72321,1.77789 5.38705,4.45929 8.14187,5.95865 5.00227,2.72258 7.15203,2.88469 17.31291,1.30552 2.8586,-0.44427 3.14796,4.7112 0.50467,8.99189 l -2.0394,3.30272 -4.23263,-3.45136 c -8.37796,-6.83154 -12.14614,-8.15408 -23.23264,-8.15408 -11.0865,0 -14.85468,1.32254 -23.23264,8.15408 l -4.23263,3.45136 -2.0394,-3.30272 z m 49.50467,-20.84543 c -2.2,-1.09465 -3.1757,-1.75784 -2.16821,-1.47378 1.00748,0.28407 5.05748,0.53244 9,0.55193 6.7213,0.0332 7.01234,0.12453 4.66821,1.46456 -3.43392,1.96301 -6.78156,1.80502 -11.5,-0.54271 z m -57,-9.11066 c -3.70873,-2.06637 -7.67134,-6.32237 -9.63336,-10.34663 l -1.95019,-4 4.29177,4.72356 c 6.0261,6.63238 9.94547,8.03058 20.18249,7.19995 6.64401,-0.53909 8.85125,-0.34975 11.42235,0.97982 1.75282,0.90642 3.18413,1.74897 3.18069,1.87235 -0.0247,0.88755 -25.85416,0.48447 -27.49375,-0.42905 z m 2,-7.41359 c -3.2028,-1.65974 -9.72806,-7.53832 -9.08328,-8.18309 0.21271,-0.21271 2.47412,1.20657 5.02534,3.15396 2.55123,1.9474 6.53295,4.02742 8.84827,4.62227 6.34219,1.62944 6.55305,1.80968 2.20967,1.88871 -2.2,0.04 -5.35,-0.6268 -7,-1.48185 z M 54.664785,564.55892 c 1.66856,-12.17184 8.24642,-27.65972 16.44349,-38.71695 13.72521,-18.51429 28.54757,-27.75229 63.146165,-39.3557 34.06671,-11.42504 48.7427,-18.76722 60.00835,-30.02129 12.34695,-12.33427 21.48505,-28.73863 24.20421,-43.45044 l 1.23939,-6.70562 1.11481,6.58319 c 2.42743,14.33448 11.77642,31.18046 24.18157,43.57287 11.26565,11.25407 25.94164,18.59625 60.00835,30.02129 27.43081,9.19953 40.85302,16.15559 52.36963,27.14058 11.26413,10.74417 19.24725,23.43903 24.10214,38.32753 2.29793,7.04706 4.34181,17.85454 3.37661,17.85454 -0.25352,0 -1.68878,-1.85538 -3.18947,-4.12308 -3.75632,-5.67618 -17.87343,-20.24343 -24.53725,-25.31965 -11.30933,-8.61498 -29.7844,-18.33955 -50.33841,-26.49623 -4.31112,-1.71083 -9.5807,-3.99945 -11.71016,-5.08582 -4.88374,-2.4915 -4.95143,-2.48432 -4.95143,0.52478 0,2.83805 -1.69884,3.21042 -4.55887,0.99926 -1.75106,-1.35378 -1.78252,-1.59631 -0.32132,-2.47683 0.8909,-0.53685 2.37203,-2.12412 3.29141,-3.52727 l 1.67159,-2.55118 -5.99916,0.23692 c -3.29954,0.13031 -6.30374,-0.0677 -6.67601,-0.43993 -0.37226,-0.37226 -0.1057,-2.0557 0.59236,-3.74097 0.69806,-1.68527 0.99353,-3.33981 0.65659,-3.67674 -0.33694,-0.33694 -2.90642,-0.83302 -5.70995,-1.10241 l -5.09733,-0.48979 0.66918,-4.86553 c 0.74701,-5.43136 0.60005,-5.52428 -5.39276,-3.40989 -3.15945,1.11472 -4.12573,1.16594 -4.12573,0.21871 0,-0.68031 -1.60968,-3.81035 -3.57708,-6.95564 -4.03668,-6.45349 -5.75455,-6.99343 -10.24055,-3.21871 -1.6341,1.375 -3.18821,2.5 -3.45358,2.5 -0.26538,0 -1.45043,-2.25 -2.63344,-5 -1.18302,-2.75 -2.52824,-5 -2.98937,-5 -0.46114,0 -2.3882,1.9892 -4.28236,4.42044 -2.88367,3.70132 -11.26814,11.57956 -12.32362,11.57956 -1.05548,0 -9.43995,-7.87824 -12.32362,-11.57956 -1.89416,-2.43124 -3.82122,-4.42044 -4.28236,-4.42044 -0.46113,0 -1.80635,2.25 -2.98937,5 -1.18301,2.75 -2.36806,5 -2.63344,5 -0.26537,0 -1.81948,-1.125 -3.45358,-2.5 -4.486,-3.77472 -6.20387,-3.23478 -10.24055,3.21871 -1.9674,3.14529 -3.57708,6.27533 -3.57708,6.95564 0,0.94723 -0.96628,0.89601 -4.12573,-0.21871 -5.99281,-2.11439 -6.13977,-2.02147 -5.39276,3.40989 l 0.66918,4.86553 -5.09733,0.48979 c -2.80353,0.26939 -5.37301,0.76547 -5.70995,1.10241 -0.33694,0.33693 -0.0415,1.99147 0.65659,3.67674 0.69806,1.68527 0.96462,3.36871 0.59236,3.74097 -0.37227,0.37227 -3.37647,0.57024 -6.67601,0.43993 l -5.99916,-0.23692 1.67159,2.55118 c 0.91938,1.40315 2.40051,2.99042 3.29141,3.52727 1.4612,0.88052 1.42974,1.12305 -0.32132,2.47683 -2.86003,2.21116 -4.55887,1.83879 -4.55887,-0.99926 0,-3.0091 -0.0677,-3.01628 -4.95143,-0.52478 -2.12946,1.08637 -7.39904,3.37499 -11.71016,5.08582 -20.55402,8.15668 -39.029085,17.88125 -50.338415,26.49623 -6.66382,5.07622 -20.78093,19.64347 -24.53725,25.31965 -1.50069,2.2677 -2.93595,4.12308 -3.18947,4.12308 -0.25353,0 -0.1371,-2.3625 0.25873,-5.25 z m 133.475635,2.16667 c 0.004,-0.22917 0.90868,-3.34167 2.00996,-6.91667 1.10127,-3.575 2.29451,-9.82927 2.65164,-13.89838 l 0.64932,-7.39839 -2.59696,0.6518 c -2.47794,0.62192 -2.57199,0.49785 -2.05192,-2.70691 0.47153,-2.90575 0.22712,-3.44381 -1.81232,-3.98976 -1.29655,-0.34708 -3.48236,-0.64708 -4.85736,-0.66667 -3.50717,-0.05 -11,-3.62118 -11,-5.2428 0,-2.48331 -2.08567,-3.66682 -4.70618,-2.6705 -1.34873,0.51279 -3.11651,0.56059 -3.9284,0.10623 -1.0999,-0.61553 0.48636,-2.03723 6.22324,-5.57762 5.98663,-3.69452 8.27364,-4.60739 10.28082,-4.10362 l 2.58143,0.6479 -2.35749,1.77825 c -1.29662,0.97804 -2.17481,2.3263 -1.95154,2.99612 0.27858,0.83572 1.27103,0.53739 3.16289,-0.95074 1.92396,-1.51339 3.12527,-1.86674 3.97608,-1.16953 0.67053,0.54949 3.16569,1.51958 5.54479,2.15576 3.58733,0.95926 4.58948,1.78669 5.87142,4.84777 2.53994,6.06497 1.31096,18.55254 -3.06106,31.10329 -3.12487,8.97054 -4.6579,12.6155 -4.62836,11.00447 z m 59.07793,-9.49382 c -5.61651,-15.52198 -6.38634,-30.96654 -1.75534,-35.21594 1.19337,-1.09504 3.74477,-2.3211 5.66977,-2.72458 1.925,-0.40348 3.79325,-1.19452 4.15167,-1.75788 0.40265,-0.63288 1.6895,-0.20794 3.36754,1.112 3.40979,2.68214 5.34994,1.71762 2.54685,-1.26613 -2.14355,-2.28171 -1.86684,-3.57032 0.76667,-3.57032 0.82467,0 4.85263,2.08997 8.95102,4.64439 5.75258,3.58542 7.10083,4.8407 5.91314,5.50536 -0.88792,0.49691 -2.64091,0.44183 -4.14557,-0.13024 -2.29116,-0.8711 -2.74877,-0.68026 -3.77627,1.57485 -1.28793,2.82671 -7.39925,6.39791 -10.98521,6.41929 -5.27877,0.0315 -6.78984,1.06011 -6.78984,4.62203 0,3.1699 -0.17873,3.35757 -2.61528,2.74603 l -2.61529,-0.6564 0.72165,7.18587 c 0.39691,3.95222 1.55955,9.95326 2.58365,13.33564 2.77483,9.16464 1.59579,8.08351 -1.98916,-1.82397 z M 73.673565,496.09324 c 0.80618,-2.63138 1.90378,-6.36831 2.4391,-8.3043 2.41244,-8.72449 11.8701,-20.98625 19.80591,-25.67814 9.973325,-5.89652 14.088715,-6.49301 46.214205,-6.69828 27.37818,-0.17494 29.96752,-0.34538 36,-2.36968 3.575,-1.19965 8.3,-3.40067 10.5,-4.89117 l 4,-2.70999 -3.60142,4.43362 c -10.31591,12.69967 -25.37071,19.85259 -55.39858,26.32127 -21.0407,4.53264 -42.022255,12.62392 -57.212505,22.06329 l -4.21249,2.61769 1.46578,-4.78431 z m 287.959215,1.52684 c -14.33054,-9.03065 -34.77038,-16.85017 -56,-21.42351 -30.02787,-6.46868 -45.08267,-13.6216 -55.39858,-26.32127 l -3.60142,-4.43362 4,2.70999 c 2.2,1.4905 6.925,3.69152 10.5,4.89117 6.03248,2.0243 8.62182,2.19474 36,2.36968 32.12549,0.20527 36.24087,0.80176 46.2142,6.69829 7.93581,4.69188 17.39347,16.95364 19.80591,25.67813 0.53532,1.93599 1.62827,5.65748 2.42877,8.26998 0.8005,2.6125 1.36448,4.74145 1.25329,4.731 -0.11119,-0.0104 -2.45217,-1.43688 -5.20217,-3.16984 z M 110.56577,443.87623 c 10.84921,-10.89969 18.59894,-15.28353 28.08609,-15.88763 5.67902,-0.36161 7.17555,0.004 15.63062,3.81564 14.79009,6.66804 18.88288,8.12614 26.3503,9.38754 l 7,1.18245 -8.21509,2.71734 c -9.71103,3.21217 -19.50165,3.57702 -29.97286,1.11695 -11.08764,-2.60488 -24.44965,-1.52175 -36.68135,2.97342 -5.42811,1.99484 -10.14373,3.62698 -10.47915,3.62698 -0.33542,0 3.39123,-4.01971 8.28144,-8.93269 z m 215.56701,5.24149 c -11.81543,-4.42689 -25.2654,-5.50445 -36.31205,-2.9092 -10.47121,2.46007 -20.26183,2.09522 -29.97286,-1.11695 l -8.21509,-2.71734 7,-1.18245 c 7.46742,-1.2614 11.56021,-2.7195 26.3503,-9.38754 8.45507,-3.81193 9.9516,-4.17725 15.63062,-3.81564 9.48716,0.6041 17.23689,4.98794 28.08608,15.88763 4.89021,4.91298 8.45068,8.90303 7.91215,8.86678 -0.53853,-0.0363 -5.25415,-1.66763 -10.47915,-3.62529 z M 194.8163,432.9789 c -2.48081,-9.63025 -8.99318,-20.12686 -19.23099,-30.99642 l -8.78437,-9.32644 3.91592,0.70291 c 11.91671,2.13906 24.08739,12.07218 26.979,22.01895 1.7359,5.97131 1.60372,17.26573 -0.25971,22.19128 -0.72271,1.91032 -1.12833,1.19962 -2.61985,-4.59028 z m 46.44236,1.98137 c -1.55733,-7.26155 -1.408,-13.83835 0.45677,-20.11772 2.803,-9.43872 15.25031,-19.40445 26.83327,-21.4836 l 3.91592,-0.70291 -8.75313,9.29841 c -10.34308,10.9874 -16.14365,20.28483 -19.14276,30.68291 l -2.18419,7.5727 -1.12588,-5.24979 z m -66.62588,-2.2445 C 160.55347,424.9776 147.50579,421.25222 137.1154,422.0038 l -6.28038,0.45428 2.89888,-2.34509 c 8.66704,-7.01132 19.76764,-9.13593 28.06035,-5.37063 5.02363,2.28096 14.96181,12.05881 18.15251,17.85964 1.2727,2.31381 2.1727,4.1516 2,4.08399 -0.17269,-0.0676 -3.46398,-1.85421 -7.31398,-3.97022 z m 84.77244,-0.26754 c 3.11383,-5.66576 13.09661,-15.44949 18.06609,-17.70587 8.29271,-3.7653 19.39331,-1.64069 28.06035,5.37063 l 2.89888,2.34509 -6.28038,-0.45428 c -10.32896,-0.74713 -21.68158,2.4131 -36.74494,10.22871 l -8.22756,4.26886 2.22756,-4.05314 z"
       style="fill:#000000" />
  </g>
</svg>
