<?xml version="1.0" standalone="no"?>
<!DOCTYPE svg PUBLIC "-//W3C//DTD SVG 20010904//EN"
 "http://www.w3.org/TR/2001/REC-SVG-20010904/DTD/svg10.dtd">
<svg version="1.0" xmlns="http://www.w3.org/2000/svg"
 width="16.000000pt" height="16.000000pt" viewBox="0 0 16.000000 16.000000"
 preserveAspectRatio="xMidYMid meet">
<metadata>
Created by potrace 1.11, written by Peter Selinger 2001-2013
</metadata>
<g transform="translate(0.000000,16.000000) scale(0.004000,-0.004000)"
fill="#000000" stroke="none">
<path d="M3142 3808 c-36 -35 -82 -78 -102 -97 -175 -167 -319 -260 -680 -443
-157 -79 -330 -173 -385 -209 -107 -70 -257 -209 -323 -299 -194 -265 -237
-567 -117 -815 28 -59 149 -223 165 -225 3 0 20 29 39 65 61 118 162 237 311
364 41 35 77 67 80 70 3 3 41 37 85 76 285 249 461 442 611 670 69 106 125
206 152 269 l12 31 -6 -30 c-11 -55 -105 -279 -166 -395 -139 -263 -246 -405
-493 -656 -239 -242 -314 -323 -408 -444 -36 -45 -89 -134 -112 -186 -29 -66
-90 -259 -99 -315 -3 -20 -8 -42 -10 -50 -3 -8 -8 -25 -10 -39 -3 -14 -7 -36
-11 -50 -3 -14 -14 -79 -26 -145 -11 -66 -22 -131 -24 -145 -19 -107 -26 -183
-19 -190 5 -4 32 -10 59 -13 56 -7 75 -10 131 -26 67 -19 70 -17 73 44 1 30 4
62 5 72 2 10 7 52 10 93 6 68 10 101 21 180 2 14 7 50 10 80 3 30 8 69 11 85
3 17 7 44 10 60 31 199 77 380 102 408 32 36 56 40 212 42 136 2 218 10 298
30 12 3 32 7 44 10 57 12 161 52 238 90 369 185 636 573 687 997 10 84 10 316
0 403 -17 144 -77 388 -117 480 -87 199 -99 215 -160 215 -25 0 -46 -13 -98
-62z"/>
<path d="M955 793 c-130 -26 -227 -66 -295 -121 -130 -106 -183 -222 -184
-402 0 -58 2 -113 6 -123 7 -16 75 -17 1274 -15 1258 3 1267 3 1271 23 6 32 6
188 0 215 -43 206 -177 344 -392 405 -46 14 -116 19 -302 22 l-241 5 0 -100
c0 -80 -4 -107 -20 -139 -37 -72 -139 -147 -237 -176 -140 -41 -320 28 -392
150 -24 42 -27 56 -28 152 l-1 106 -219 1 c-121 0 -229 -1 -240 -3z"/>
</g>
</svg>
