<svg id="Layer_1" data-name="Layer 1" xmlns="http://www.w3.org/2000/svg" viewBox="0 0 1242 2208"><defs><style>.cls-1{fill:#1db954;}.cls-2{font-size:61.49px;}.cls-2,.cls-8{font-family:Calibri, Calibri;}.cls-3{letter-spacing:-0.01em;}.cls-4{letter-spacing:-0.01em;}.cls-5{letter-spacing:-0.01em;}.cls-6{letter-spacing:-0.01em;}.cls-7{letter-spacing:0em;}.cls-8{font-size:74.7px;}.cls-9{letter-spacing:0em;}.cls-10{letter-spacing:-0.01em;}.cls-11{font-size:40.82px;fill:#262d32;font-family:ArialMT, Arial;}.cls-12{letter-spacing:-0.09em;}.cls-13{letter-spacing:-0.02em;}.cls-14{letter-spacing:-0.01em;}.cls-15{letter-spacing:0em;}.cls-16{fill:none;stroke:#1db954;stroke-miterlimit:10;stroke-width:8px;}</style></defs><title>How it works</title><path class="cls-1" d="M855.87,682.06H787.39a6.32,6.32,0,0,1-4.49-1.9L756.51,653a6.27,6.27,0,0,1-1.76-4.36V540.67a6.25,6.25,0,0,1,6.25-6.25h69.31a2.24,2.24,0,0,1,0,4.47H761a1.78,1.78,0,0,0-1.78,1.78V648.61a1.77,1.77,0,0,0,.5,1.24L786.11,677a1.82,1.82,0,0,0,1.28.54h68.48a1.78,1.78,0,0,0,1.78-1.78V571.7a2.24,2.24,0,1,1,4.47,0V675.8A6.27,6.27,0,0,1,855.87,682.06Z"/><path class="cls-1" d="M846.94,577.91a24.86,24.86,0,1,1,25.34-24.85C872.28,566.76,860.91,577.91,846.94,577.91Zm0-44.24a19.4,19.4,0,1,0,19.87,19.39A19.65,19.65,0,0,0,846.94,533.67Z"/><path class="cls-1" d="M847.77,561.14a2.75,2.75,0,0,1-2-.84L835.86,550a2.73,2.73,0,1,1,3.93-3.79l8,8.25,22-23.39a2.73,2.73,0,1,1,4,3.75l-23.92,25.47a2.74,2.74,0,0,1-2,.87Z"/><path class="cls-1" d="M779.84,670.4a2,2,0,0,1-2-2V645.1H755.44a2,2,0,1,1,0-4.05h24.4a2,2,0,0,1,2,2v25.3A2,2,0,0,1,779.84,670.4Z"/><path class="cls-1" d="M808.52,578.82H777.7a2.24,2.24,0,1,1,0-4.47h30.82a2.24,2.24,0,0,1,0,4.47Z"/><path class="cls-1" d="M838.84,598.71H777.7a2.24,2.24,0,0,1,0-4.48h61.14a2.24,2.24,0,0,1,0,4.48Z"/><path class="cls-1" d="M828.34,614.92H772.93a2,2,0,0,1,0-4h55.41a2,2,0,1,1,0,4Z"/><path class="cls-1" d="M412.31,964.21a2.17,2.17,0,0,1-2.17-2.17v-24.1a2.17,2.17,0,0,1,2.17-2.17H492a2.17,2.17,0,0,1,0,4.34H414.48V962A2.17,2.17,0,0,1,412.31,964.21Z"/><path class="cls-1" d="M491.39,1095.46H412.51a2.17,2.17,0,0,1-2.17-2.17v-23.77a2.17,2.17,0,0,1,4.34,0v21.6h76.71a2.17,2.17,0,0,1,0,4.34Z"/><path class="cls-1" d="M412.19,1018.19a11.89,11.89,0,1,1,11.89-11.89A11.91,11.91,0,0,1,412.19,1018.19Zm0-19.44a7.55,7.55,0,1,0,7.55,7.55A7.56,7.56,0,0,0,412.19,998.75Z"/><path class="cls-1" d="M426.49,1037H398a2.16,2.16,0,0,1-1.94-1.21c-.07-.13-6.12-13,11.24-21.92a2.17,2.17,0,1,1,2,3.86c-10.8,5.54-10.44,12.23-9.74,14.94H425c.66-2.73,1-9.46-9.73-14.94a2.17,2.17,0,1,1,2-3.86c17.36,8.9,11.3,21.79,11.24,21.92A2.17,2.17,0,0,1,426.49,1037Z"/><path class="cls-1" d="M412.92,1059.31c-24.39,0-44.22-19.56-44.22-43.61s19.83-43.62,44.22-43.62,44.22,19.57,44.22,43.62S437.3,1059.31,412.92,1059.31Zm0-82.89c-22,0-39.89,17.62-39.89,39.28S390.92,1055,412.92,1055s39.88-17.62,39.88-39.28S434.91,976.42,412.92,976.42Z"/><path class="cls-1" d="M493.08,992.4h-30.2a2.17,2.17,0,0,1,0-4.34h30.2a2.17,2.17,0,0,1,0,4.34Z"/><path class="cls-1" d="M493.08,1043h-30.2a2.17,2.17,0,1,1,0-4.34h30.2a2.17,2.17,0,1,1,0,4.34Z"/><path class="cls-1" d="M519.07,956.32a16.45,16.45,0,1,1,16.44-16.45A16.47,16.47,0,0,1,519.07,956.32Zm0-29.52a13.07,13.07,0,1,0,13.07,13.07A13.09,13.09,0,0,0,519.07,926.8Z"/><path class="cls-1" d="M518.73,947a4.23,4.23,0,0,1-3.05-1.29,4.12,4.12,0,0,1-1.15-2.94c0-.07,0-.16,0-.29h1.88c.1,1.71.87,2.67,2.31,2.86v-4.72q-3.91-.78-3.92-4a3.85,3.85,0,0,1,1.05-2.79,4.27,4.27,0,0,1,2.87-1.25v-.65h1.56v.65a4.3,4.3,0,0,1,2.42,1,4.1,4.1,0,0,1,1.06,3.23v.25H522a3.87,3.87,0,0,0-.39-2,1.93,1.93,0,0,0-1.28-.85v4.46a6.21,6.21,0,0,1,3.3,1.52,3.61,3.61,0,0,1,.83,2.44,4,4,0,0,1-1.08,3,4.8,4.8,0,0,1-3.05,1.3v1.6h-1.56Zm0-8.57v-4.2a2,2,0,0,0-1.86,2.1A2,2,0,0,0,518.73,938.43Zm1.56,2.51v4.38c1.44-.27,2.16-1,2.16-2.3a2,2,0,0,0-.43-1.29A2.93,2.93,0,0,0,520.29,940.94Z"/><path class="cls-1" d="M519.07,1005.48A16.45,16.45,0,1,1,535.51,989,16.47,16.47,0,0,1,519.07,1005.48Zm0-29.52A13.07,13.07,0,1,0,532.14,989,13.09,13.09,0,0,0,519.07,976Z"/><path class="cls-1" d="M518.73,996.16a4.23,4.23,0,0,1-3.05-1.29,4.13,4.13,0,0,1-1.15-2.94c0-.07,0-.16,0-.29h1.88c.1,1.71.87,2.67,2.31,2.86v-4.72q-3.91-.78-3.92-4a3.85,3.85,0,0,1,1.05-2.79,4.27,4.27,0,0,1,2.87-1.25v-.65h1.56v.65a4.3,4.3,0,0,1,2.42,1,4.1,4.1,0,0,1,1.06,3.23v.25H522a3.87,3.87,0,0,0-.39-2,1.93,1.93,0,0,0-1.28-.85v4.46a6.21,6.21,0,0,1,3.3,1.52,3.61,3.61,0,0,1,.83,2.44,4,4,0,0,1-1.08,3,4.8,4.8,0,0,1-3.05,1.3v1.6h-1.56Zm0-8.57v-4.2a2,2,0,0,0-1.86,2.1A2,2,0,0,0,518.73,987.59Zm1.56,2.51v4.38c1.44-.27,2.16-1,2.16-2.3a2,2,0,0,0-.43-1.29A2.93,2.93,0,0,0,520.29,990.1Z"/><path class="cls-1" d="M519.07,1057.05a16.45,16.45,0,1,1,16.44-16.45A16.47,16.47,0,0,1,519.07,1057.05Zm0-29.52a13.07,13.07,0,1,0,13.07,13.07A13.09,13.09,0,0,0,519.07,1027.53Z"/><path class="cls-1" d="M518.73,1047.73a4.23,4.23,0,0,1-3.05-1.29,4.13,4.13,0,0,1-1.15-2.94c0-.07,0-.16,0-.29h1.88c.1,1.71.87,2.67,2.31,2.86v-4.72q-3.91-.78-3.92-4a3.87,3.87,0,0,1,1.05-2.8,4.31,4.31,0,0,1,2.87-1.24v-.65h1.56v.65a4.3,4.3,0,0,1,2.42,1,4.1,4.1,0,0,1,1.06,3.23v.25H522a3.87,3.87,0,0,0-.39-2,1.9,1.9,0,0,0-1.28-.85v4.46a6.21,6.21,0,0,1,3.3,1.52,3.61,3.61,0,0,1,.83,2.44,4,4,0,0,1-1.08,3,4.8,4.8,0,0,1-3.05,1.3v1.6h-1.56Zm0-8.57V1035a2,2,0,0,0-1.86,2.1A2,2,0,0,0,518.73,1039.16Zm1.56,2.51v4.38c1.44-.27,2.16-1,2.16-2.3a2,2,0,0,0-.43-1.29A2.93,2.93,0,0,0,520.29,1041.67Z"/><path class="cls-1" d="M519.07,1106.69a16.45,16.45,0,1,1,16.44-16.45A16.47,16.47,0,0,1,519.07,1106.69Zm0-29.52a13.07,13.07,0,1,0,13.07,13.07A13.09,13.09,0,0,0,519.07,1077.17Z"/><path class="cls-1" d="M518.73,1097.38a4.28,4.28,0,0,1-3.05-1.3,4.12,4.12,0,0,1-1.15-2.94c0-.06,0-.16,0-.29h1.88c.1,1.71.87,2.67,2.31,2.86V1091q-3.91-.78-3.92-4a3.85,3.85,0,0,1,1.05-2.79,4.27,4.27,0,0,1,2.87-1.25v-.65h1.56v.65a4.3,4.3,0,0,1,2.42,1,4.1,4.1,0,0,1,1.06,3.23v.25H522a3.87,3.87,0,0,0-.39-2,1.93,1.93,0,0,0-1.28-.85v4.47a6.14,6.14,0,0,1,3.3,1.51,3.63,3.63,0,0,1,.83,2.44,4,4,0,0,1-1.08,3,4.86,4.86,0,0,1-3.05,1.31V1099h-1.56Zm0-8.58v-4.2a2,2,0,0,0-1.86,2.1A2,2,0,0,0,518.73,1088.8Zm1.56,2.51v4.38c1.44-.27,2.16-1,2.16-2.3a2,2,0,0,0-.43-1.29A2.93,2.93,0,0,0,520.29,1091.31Z"/><path class="cls-1" d="M774.39,1419.4a2.15,2.15,0,0,1-2.15-2.15V1397.5H756.55a2.81,2.81,0,0,1-2.81-2.81v-70.36a2.81,2.81,0,0,1,2.81-2.81h121a2.81,2.81,0,0,1,2.81,2.81v70.38a2.81,2.81,0,0,1-2.81,2.81H798.76l-22.9,21.3A2.17,2.17,0,0,1,774.39,1419.4Zm-16.34-26.21h15.68a2.81,2.81,0,0,1,2.81,2.81v16.3L796.25,1394a2.86,2.86,0,0,1,1.92-.75H876v-67.39h-118Z"/><path class="cls-1" d="M924.51,1467.24a2.13,2.13,0,0,1-1.46-.58l-22.9-21.31H826.63a2.81,2.81,0,0,1-2.81-2.81v-47.16a2.16,2.16,0,0,1,4.31,0v45.67h72.61a2.77,2.77,0,0,1,1.91.75l19.71,18.34v-16.3a2.81,2.81,0,0,1,2.81-2.81h15.69v-67.37H878.27a2.16,2.16,0,0,1,0-4.31h64.08a2.81,2.81,0,0,1,2.81,2.81v70.36a2.81,2.81,0,0,1-2.81,2.81H926.67v19.75a2.17,2.17,0,0,1-1.3,2A2.14,2.14,0,0,1,924.51,1467.24Zm17.84-93.58h0Z"/><path class="cls-1" d="M777.31,1371.63a2.13,2.13,0,0,1-1.24-.4,2.16,2.16,0,0,1-.82-2.39l2.42-7.85-6.71-4.72a2.16,2.16,0,0,1-.82-2.4,2.13,2.13,0,0,1,2-1.51l8.21-.13,2.42-7.85a2.15,2.15,0,0,1,2-1.51h0a2.15,2.15,0,0,1,2,1.45l2.65,7.77,8.21-.12a2.15,2.15,0,0,1,1.33,3.87l-6.57,4.93,2.65,7.77a2.14,2.14,0,0,1-3.27,2.45l-6.72-4.72-6.57,4.93A2.17,2.17,0,0,1,777.31,1371.63Zm1.54-15.07,2.58,1.81a2.17,2.17,0,0,1,.82,2.4l-.93,3,2.52-1.89a2.15,2.15,0,0,1,2.53,0l2.58,1.81-1-3a2.17,2.17,0,0,1,.74-2.42l2.52-1.89-3.15.05A2.14,2.14,0,0,1,786,1355l-1-3-.93,3a2.16,2.16,0,0,1-2,1.52Z"/><path class="cls-1" d="M811.75,1371.63a2.16,2.16,0,0,1-2-2.79l2.41-7.85-6.71-4.72a2.17,2.17,0,0,1-.82-2.4,2.15,2.15,0,0,1,2-1.51l8.2-.13,2.42-7.85a2.16,2.16,0,0,1,2-1.51,2.1,2.1,0,0,1,2.07,1.45l2.65,7.77,8.21-.12a2.19,2.19,0,0,1,2.07,1.45,2.16,2.16,0,0,1-.74,2.42l-6.57,4.93,2.65,7.77a2.14,2.14,0,0,1-3.27,2.45l-6.72-4.72L813,1371.2A2.17,2.17,0,0,1,811.75,1371.63Zm1.54-15.07,2.58,1.81a2.17,2.17,0,0,1,.82,2.4l-.93,3,2.52-1.89a2.15,2.15,0,0,1,2.53,0l2.58,1.81-1-3a2.17,2.17,0,0,1,.74-2.42l2.52-1.89-3.15.05h0a2.13,2.13,0,0,1-2-1.46l-1-3-.93,3a2.16,2.16,0,0,1-2,1.52Z"/><path class="cls-1" d="M845.72,1371.63a2.08,2.08,0,0,1-1.24-.4,2.13,2.13,0,0,1-.82-2.39l2.42-7.85-6.72-4.72a2.15,2.15,0,0,1,1.21-3.91l8.21-.13,2.42-7.85a2.13,2.13,0,0,1,2-1.51h0a2.15,2.15,0,0,1,2,1.45l2.66,7.77,8.21-.12a2.2,2.2,0,0,1,2.07,1.45,2.15,2.15,0,0,1-.75,2.42l-6.57,4.93,2.66,7.77a2.15,2.15,0,0,1-3.28,2.45l-6.71-4.72L847,1371.2A2.2,2.2,0,0,1,845.72,1371.63Zm1.54-15.07,2.57,1.81a2.14,2.14,0,0,1,.82,2.4l-.93,3,2.52-1.89a2.15,2.15,0,0,1,2.53,0l2.58,1.81-1-3a2.16,2.16,0,0,1,.75-2.42l2.52-1.89-3.15.05a2.1,2.1,0,0,1-2.07-1.46l-1-3-.93,3a2.14,2.14,0,0,1-2,1.52Z"/><path class="cls-1" d="M917.34,1388.73H880a2.16,2.16,0,1,1,0-4.31h37.39a2.16,2.16,0,0,1,0,4.31Z"/><path class="cls-1" d="M917.42,1407.06H847a2.15,2.15,0,0,1,0-4.3h70.4a2.15,2.15,0,0,1,0,4.3Z"/><path class="cls-1" d="M917.42,1425.24H847a2.15,2.15,0,0,1,0-4.3h70.4a2.15,2.15,0,1,1,0,4.3Z"/><path class="cls-1" d="M481.16,1973.13H450.33a2.7,2.7,0,0,1-2.7-2.7v-8.25c-6.64,1.48-21.59,4-33.83.39v7.37a2.7,2.7,0,0,1-2.7,2.7H377.8a2.69,2.69,0,0,1-2.69-2.7v-31.17c-2.08-3.18-10.4-16.24-12.56-25H339.4a2.7,2.7,0,0,1-2.7-2.71l.16-35.28a2.7,2.7,0,0,1,2.7-2.68h23c.65-4.09,2.61-12.18,8.26-17.34V1826a2.69,2.69,0,0,1,1.36-2.34,2.66,2.66,0,0,1,2.7,0l15.13,8.83a70.55,70.55,0,0,1,21.18-9.56c12.81-3.45,32.81-5,55.44,7.45,19.26,10.56,31.79,30,34.37,53.36,2.44,22.07-4.27,43.82-17.14,55.86v30.78A2.7,2.7,0,0,1,481.16,1973.13Zm-28.13-5.4h25.43v-29.28a2.67,2.67,0,0,1,.92-2c12-10.56,18.53-31.48,16.26-52-1.4-12.69-7.37-35.94-31.6-49.23-40.13-22-70.91,1.7-72.2,2.72a2.71,2.71,0,0,1-3,.21l-12.59-7.35V1857a2.69,2.69,0,0,1-1,2.12c-6.73,5.3-7.54,16.74-7.55,16.85a2.69,2.69,0,0,1-2.69,2.52h-22.7l-.14,29.88h22.67a2.7,2.7,0,0,1,2.68,2.4c.76,6.77,9.34,20.82,12.59,25.67a2.75,2.75,0,0,1,.45,1.5v29.28h27.9v-8.51a2.69,2.69,0,0,1,3.78-2.47c14.44,6.3,37.19-.06,37.41-.13a2.71,2.71,0,0,1,3.44,2.6Z"/><path class="cls-1" d="M453.42,1851.42H414.36a2.7,2.7,0,1,1,0-5.4h39.06a2.7,2.7,0,0,1,0,5.4Z"/><ellipse class="cls-1" cx="391.32" cy="1871.37" rx="4.41" ry="4.24"/><path class="cls-1" d="M511.71,1874.52c-1.94,0-4.31-1.23-6.51-5.66-3.15-6.34-3.33-12.77-.54-17.77a13.82,13.82,0,0,0-2.1.25c-5.62,1.16-8.42,7.56-8.44,7.63a2.7,2.7,0,0,1-5-2.07c.16-.37,3.86-9.09,12.33-10.84a17.1,17.1,0,0,1,7.74.17,13.48,13.48,0,0,1,7.29-2.12h.13c9.83.09,15.7,6.65,15.7,17.53a2.7,2.7,0,0,1-5.4,0c0-8-3.48-12.07-10.35-12.14a8.88,8.88,0,0,0-1.15.07,13.2,13.2,0,0,1,4.16,7.47c.91,5-1.07,15.48-6.3,17.21A5,5,0,0,1,511.71,1874.52Zm-1.46-22.08a7.49,7.49,0,0,0-.64.89c-2.16,3.45-2,8.23.42,13.13a7.81,7.81,0,0,0,1.73,2.54c1.38-1.19,3.19-7.26,2.51-11a8,8,0,0,0-3.48-5.22A6.1,6.1,0,0,0,510.25,1852.44Z"/><path class="cls-1" d="M419.92,1756.29a2.7,2.7,0,0,1-2.7-2.7v-18.92a2.7,2.7,0,0,1,5.4,0v18.92A2.7,2.7,0,0,1,419.92,1756.29Z"/><path class="cls-1" d="M447.12,1755.05a2.7,2.7,0,0,1-2.7-2.7v-18.91a2.7,2.7,0,0,1,5.4,0v18.91A2.7,2.7,0,0,1,447.12,1755.05Z"/><path class="cls-1" d="M434.38,1739.35a2.69,2.69,0,0,1-2.69-2.7v-12.11a2.7,2.7,0,1,1,5.39,0v12.11A2.7,2.7,0,0,1,434.38,1739.35Z"/><path class="cls-1" d="M434.76,1808.83A23.84,23.84,0,1,1,458.59,1785,23.86,23.86,0,0,1,434.76,1808.83Zm0-42.28A18.44,18.44,0,1,0,453.2,1785,18.47,18.47,0,0,0,434.76,1766.55Z"/><path class="cls-1" d="M621,1981.83a4,4,0,0,1-4-4V540.19a4,4,0,1,1,8,0V1977.84A4,4,0,0,1,621,1981.83Z"/><text class="cls-2" transform="translate(267.75 591.08)">G<tspan class="cls-3" x="38.79" y="0">e</tspan><tspan x="69.06" y="0">t </tspan><tspan class="cls-4" x="103.56" y="0">s</tspan><tspan class="cls-5" x="126.92" y="0">t</tspan><tspan x="146.76" y="0">ar</tspan><tspan class="cls-6" x="197.65" y="0">t</tspan><tspan class="cls-7" x="217.59" y="0">ed</tspan></text><text class="cls-8" transform="translate(418.91 290.7)">H<tspan class="cls-9" x="46.54" y="0">o</tspan><tspan x="85.64" y="0">w it </tspan><tspan class="cls-10" x="214.99" y="0">w</tspan><tspan x="267.69" y="0">or</tspan><tspan class="cls-10" x="333.13" y="0">k</tspan><tspan x="366.4" y="0">s</tspan></text><text class="cls-11" transform="translate(332.41 678.28)"><tspan class="cls-12">Y</tspan><tspan x="23.48" y="0">ou fill out 1</tspan><tspan x="0" y="48.98">application.</tspan></text><text class="cls-11" transform="translate(689.34 1079.17)"><tspan class="cls-13">W</tspan><tspan x="37.79" y="0">e match you to</tspan><tspan x="0" y="48.98">the best loan</tspan><tspan x="0" y="97.96">options</tspan></text><text class="cls-11" transform="translate(296.9 1481.7)"><tspan class="cls-13">W</tspan><tspan x="37.79" y="0">e’ll help you</tspan><tspan x="-34.84" y="48.98">choose the best</tspan><tspan x="173.91" y="97.96">one.</tspan></text><text class="cls-11" transform="translate(693.34 1875.61)">Access the capital<tspan x="0" y="48.98">you need in as little</tspan><tspan x="0" y="97.96">as 24 hours.</tspan></text><text class="cls-2" transform="translate(693.34 985.49)">G<tspan class="cls-3" x="38.79" y="0">e</tspan><tspan x="69.06" y="0">t m</tspan><tspan class="cls-14" x="152.68" y="0">a</tspan><tspan class="cls-5" x="181.56" y="0">t</tspan><tspan class="cls-7" x="201.41" y="0">ched</tspan></text><text class="cls-2" transform="translate(248.1 1384.42)">G<tspan class="cls-3" x="38.79" y="0">e</tspan><tspan x="69.06" y="0">t o</tspan><tspan class="cls-15" x="135.98" y="0">p</tspan><tspan class="cls-7" x="168.02" y="0">tions</tspan></text><text class="cls-2" transform="translate(693.34 1778.48)">G<tspan class="cls-3" x="38.79" y="0">e</tspan><tspan x="69.06" y="0">t funded</tspan></text><line class="cls-16" x1="550.25" y1="345.03" x2="693.34" y2="345.03"/></svg>