<?xml version="1.0" encoding="utf-8"?>
<!-- Generator: Adobe Illustrator 22.1.0, SVG Export Plug-In . SVG Version: 6.00 Build 0)  -->
<svg version="1.1" id="Layer_1" xmlns="http://www.w3.org/2000/svg" xmlns:xlink="http://www.w3.org/1999/xlink" x="0px" y="0px"
	 viewBox="0 0 1242 2208" style="enable-background:new 0 0 1242 2208;" xml:space="preserve">
<style type="text/css">
	.st0{fill:#1DB954;}
	.st1{font-family:'Calibri';}
	.st2{font-size:61.49px;}
	.st3{font-size:74.7px;}
	.st4{fill:#262D32;}
	.st5{font-family:'ArialMT';}
	.st6{font-size:40.82px;}
	.st7{letter-spacing:-3;}
	.st8{fill:none;stroke:#1DB954;stroke-width:8;stroke-miterlimit:10;}
</style>
<title>How it works</title>
<path class="st0" d="M855.9,682.1h-68.5c-1.7,0-3.3-0.7-4.5-1.9L756.5,653c-1.1-1.2-1.8-2.7-1.8-4.4v-108c0-3.5,2.8-6.3,6.3-6.3
	h69.3c1.2,0.1,2.2,1.2,2.1,2.4c-0.1,1.1-1,2-2.1,2.1H761c-1,0-1.8,0.8-1.8,1.8v0v107.9c0,0.5,0.2,0.9,0.5,1.2l26.4,27.2
	c0.3,0.3,0.8,0.5,1.3,0.5h68.5c1,0,1.8-0.8,1.8-1.8v0V571.7c-0.1-1.2,0.9-2.3,2.1-2.4c1.2-0.1,2.3,0.9,2.4,2.1c0,0.1,0,0.2,0,0.3
	v104.1C862.1,679.3,859.3,682,855.9,682.1z"/>
<path class="st0" d="M846.9,577.9c-13.7-0.3-24.6-11.6-24.4-25.3c0.3-13.7,11.6-24.6,25.3-24.4c13.5,0.3,24.4,11.3,24.4,24.9
	C872.3,566.8,860.9,577.9,846.9,577.9z M846.9,533.7c-10.7,0.3-19.2,9.2-18.9,19.9s9.2,19.2,19.9,18.9c10.5-0.3,18.9-8.9,18.9-19.4
	C866.7,542.2,857.8,533.5,846.9,533.7z"/>
<path class="st0" d="M847.8,561.1c-0.8,0-1.5-0.3-2-0.8l-9.9-10.3c-1.1-1.1-1-2.8,0-3.9c1.1-1.1,2.8-1,3.9,0c0,0,0,0,0,0l8,8.3
	l22-23.4c1-1.1,2.8-1.2,3.9-0.1s1.2,2.8,0.1,3.9l-23.9,25.5C849.4,560.8,848.6,561.2,847.8,561.1L847.8,561.1z"/>
<path class="st0" d="M779.8,670.4c-1.1,0-2-0.9-2-2v-23.3h-22.4c-1.1,0-2-0.9-2-2c0-1.1,0.9-2,2-2h24.4c1.1,0,2,0.9,2,2v25.3
	C781.9,669.5,781,670.4,779.8,670.4C779.9,670.4,779.9,670.4,779.8,670.4z"/>
<path class="st0" d="M808.5,578.8h-30.8c-1.2,0.1-2.3-0.9-2.4-2.1c-0.1-1.2,0.9-2.3,2.1-2.4c0.1,0,0.2,0,0.3,0h30.8
	c1.2,0.1,2.2,1.2,2.1,2.4C810.5,577.9,809.6,578.7,808.5,578.8z"/>
<path class="st0" d="M838.8,598.7h-61.1c-1.2,0-2.2-1-2.2-2.2c0-1.2,1-2.2,2.2-2.2h61.1c1.2,0,2.2,1,2.2,2.2
	C841.1,597.7,840.1,598.7,838.8,598.7z"/>
<path class="st0" d="M828.3,614.9h-55.4c-1.1,0-2-0.9-2-2s0.9-2,2-2h55.4c1.1,0,2,0.9,2,2S829.4,614.9,828.3,614.9L828.3,614.9z"/>
<path class="st0" d="M412.3,845.2c-1.2,0-2.2-1-2.2-2.2v-24.1c0-1.2,1-2.2,2.2-2.2H492c1.2,0,2.2,1,2.2,2.2c0,1.2-1,2.2-2.2,2.2
	h-77.5V843C414.5,844.2,413.5,845.2,412.3,845.2C412.3,845.2,412.3,845.2,412.3,845.2z"/>
<path class="st0" d="M491.4,976.5h-78.9c-1.2,0-2.2-1-2.2-2.2l0,0v-23.8c0-1.2,1-2.2,2.2-2.2c1.2,0,2.2,1,2.2,2.2v21.6h76.7
	c1.2,0,2.2,1,2.2,2.2C493.5,975.5,492.6,976.5,491.4,976.5L491.4,976.5z"/>
<path class="st0" d="M412.2,899.2c-6.6,0-11.9-5.3-11.9-11.9s5.3-11.9,11.9-11.9c6.6,0,11.9,5.3,11.9,11.9
	C424.1,893.9,418.8,899.2,412.2,899.2z M412.2,879.8c-4.2,0-7.6,3.4-7.6,7.5s3.4,7.5,7.5,7.5c4.2,0,7.6-3.4,7.6-7.5l0,0
	C419.7,883.1,416.4,879.8,412.2,879.8z"/>
<path class="st0" d="M426.5,918H398c-0.8,0-1.6-0.5-1.9-1.2c-0.1-0.1-6.1-13,11.2-21.9c1.1-0.6,2.4-0.1,2.9,0.9s0.1,2.4-0.9,2.9l0,0
	c-10.8,5.5-10.4,12.2-9.7,14.9H425c0.7-2.7,1-9.5-9.7-14.9c-1.1-0.6-1.5-1.9-0.9-2.9s1.9-1.5,2.9-0.9l0,0
	c17.4,8.9,11.3,21.8,11.2,21.9C428.1,917.6,427.3,918,426.5,918z"/>
<path class="st0" d="M412.9,940.3c-24.4,0-44.2-19.6-44.2-43.6s19.8-43.6,44.2-43.6s44.2,19.6,44.2,43.6
	C457.1,920.8,437.3,940.3,412.9,940.3z M412.9,857.4c-22,0-39.9,17.6-39.9,39.3s17.9,39.3,39.9,39.3s39.9-17.6,39.9-39.3
	S434.9,857.4,412.9,857.4L412.9,857.4z"/>
<path class="st0" d="M493.1,873.4h-30.2c-1.2,0-2.2-1-2.2-2.2c0-1.2,1-2.2,2.2-2.2h30.2c1.2,0,2.2,1,2.2,2.2
	C495.3,872.4,494.3,873.4,493.1,873.4z"/>
<path class="st0" d="M493.1,924h-30.2c-1.2,0-2.2-1-2.2-2.2c0-1.2,1-2.2,2.2-2.2c0,0,0,0,0,0h30.2c1.2,0,2.2,1,2.2,2.2
	C495.3,923,494.3,924,493.1,924C493.1,924,493.1,924,493.1,924z"/>
<path class="st0" d="M519.1,837.3c-9.1,0-16.5-7.4-16.5-16.4s7.4-16.5,16.4-16.5c9.1,0,16.5,7.4,16.5,16.4c0,0,0,0,0,0
	C535.5,829.9,528.1,837.3,519.1,837.3z M519.1,807.8c-7.2,0-13.1,5.9-13.1,13.1c0,7.2,5.9,13.1,13.1,13.1c7.2,0,13.1-5.9,13.1-13.1
	C532.1,813.7,526.3,807.8,519.1,807.8z"/>
<path class="st0" d="M518.7,828c-1.1,0-2.3-0.5-3-1.3c-0.8-0.8-1.2-1.8-1.2-2.9c0-0.1,0-0.2,0-0.3h1.9c0.1,1.7,0.9,2.7,2.3,2.9v-4.7
	c-2.6-0.5-3.9-1.9-3.9-4c0-1,0.3-2,1-2.8c0.8-0.8,1.8-1.2,2.9-1.3v-0.7h1.6v0.7c0.9,0.1,1.7,0.4,2.4,1c0.8,0.9,1.2,2.1,1.1,3.2v0.3
	H522c0.1-0.7-0.1-1.4-0.4-2c-0.3-0.4-0.8-0.8-1.3-0.8v4.5c1.2,0.2,2.4,0.7,3.3,1.5c0.6,0.7,0.9,1.6,0.8,2.4c0.1,1.1-0.3,2.2-1.1,3
	c-0.8,0.8-1.9,1.2-3,1.3v1.6h-1.6L518.7,828z M518.7,819.4v-4.2c-1.1,0.1-1.9,1-1.9,2.1C516.8,818.4,517.6,819.4,518.7,819.4z
	 M520.3,821.9v4.4c1.4-0.3,2.2-1,2.2-2.3c0-0.5-0.1-0.9-0.4-1.3C521.5,822.3,520.9,822,520.3,821.9z"/>
<path class="st0" d="M519.1,886.5c-9.1,0-16.5-7.4-16.5-16.4c0-9.1,7.4-16.5,16.4-16.5c9.1,0,16.4,7.3,16.5,16.4
	C535.5,879.1,528.2,886.5,519.1,886.5z M519.1,857c-7.2,0-13.1,5.9-13.1,13.1c0,7.2,5.9,13.1,13.1,13.1c7.2,0,13.1-5.9,13.1-13.1
	c0,0,0,0,0,0C532.1,862.8,526.3,857,519.1,857L519.1,857z"/>
<path class="st0" d="M518.7,877.2c-1.1,0-2.3-0.5-3-1.3c-0.8-0.8-1.2-1.8-1.2-2.9c0-0.1,0-0.2,0-0.3h1.9c0.1,1.7,0.9,2.7,2.3,2.9
	v-4.7c-2.6-0.5-3.9-1.9-3.9-4c0-1,0.3-2,1-2.8c0.8-0.8,1.8-1.2,2.9-1.3v-0.7h1.6v0.7c0.9,0.1,1.7,0.4,2.4,1c0.8,0.9,1.2,2.1,1.1,3.2
	v0.3H522c0.1-0.7-0.1-1.4-0.4-2c-0.3-0.4-0.8-0.8-1.3-0.8v4.5c1.2,0.2,2.4,0.7,3.3,1.5c0.6,0.7,0.9,1.6,0.8,2.4
	c0.1,1.1-0.3,2.2-1.1,3c-0.8,0.8-1.9,1.2-3,1.3v1.6h-1.6L518.7,877.2z M518.7,868.6v-4.2c-1.1,0.1-1.9,1-1.9,2.1
	C516.8,867.6,517.6,868.5,518.7,868.6L518.7,868.6z M520.3,871.1v4.4c1.4-0.3,2.2-1,2.2-2.3c0-0.5-0.1-0.9-0.4-1.3
	C521.5,871.4,520.9,871.2,520.3,871.1z"/>
<path class="st0" d="M519.1,938.1c-9.1,0-16.5-7.4-16.5-16.4s7.4-16.5,16.4-16.5c9.1,0,16.5,7.4,16.5,16.4c0,0,0,0,0,0
	C535.5,930.7,528.1,938,519.1,938.1z M519.1,908.5c-7.2,0-13.1,5.9-13.1,13.1c0,7.2,5.9,13.1,13.1,13.1c7.2,0,13.1-5.9,13.1-13.1
	l0,0C532.1,914.4,526.3,908.5,519.1,908.5z"/>
<path class="st0" d="M518.7,928.7c-1.1,0-2.3-0.5-3-1.3c-0.8-0.8-1.2-1.8-1.2-2.9c0-0.1,0-0.2,0-0.3h1.9c0.1,1.7,0.9,2.7,2.3,2.9
	v-4.7c-2.6-0.5-3.9-1.9-3.9-4c0-1,0.3-2,1-2.8c0.8-0.8,1.8-1.2,2.9-1.2v-0.7h1.6v0.7c0.9,0.1,1.7,0.4,2.4,1c0.8,0.9,1.2,2.1,1.1,3.2
	v0.3H522c0.1-0.7-0.1-1.4-0.4-2c-0.3-0.5-0.8-0.8-1.3-0.8v4.5c1.2,0.2,2.4,0.7,3.3,1.5c0.6,0.7,0.9,1.6,0.8,2.4
	c0.1,1.1-0.3,2.2-1.1,3c-0.8,0.8-1.9,1.2-3,1.3v1.6h-1.6L518.7,928.7z M518.7,920.2V916c-1.1,0.1-1.9,1-1.9,2.1
	C516.8,919.2,517.7,920.1,518.7,920.2z M520.3,922.7v4.4c1.4-0.3,2.2-1,2.2-2.3c0-0.5-0.1-0.9-0.4-1.3
	C521.5,923,520.9,922.7,520.3,922.7z"/>
<path class="st0" d="M519.1,987.7c-9.1,0-16.5-7.4-16.5-16.4s7.4-16.5,16.4-16.5c9.1,0,16.5,7.4,16.5,16.4c0,0,0,0,0,0
	C535.5,980.3,528.1,987.7,519.1,987.7z M519.1,958.2c-7.2,0-13.1,5.9-13.1,13.1c0,7.2,5.9,13.1,13.1,13.1c7.2,0,13.1-5.9,13.1-13.1
	l0,0C532.1,964,526.3,958.2,519.1,958.2L519.1,958.2z"/>
<path class="st0" d="M518.7,978.4c-1.2,0-2.2-0.5-3-1.3c-0.8-0.8-1.2-1.8-1.2-2.9c0-0.1,0-0.2,0-0.3h1.9c0.1,1.7,0.9,2.7,2.3,2.9
	V972c-2.6-0.5-3.9-1.9-3.9-4c0-1,0.3-2,1-2.8c0.8-0.8,1.8-1.2,2.9-1.3v-0.7h1.6v0.7c0.9,0.1,1.7,0.4,2.4,1c0.8,0.9,1.2,2.1,1.1,3.2
	v0.3H522c0.1-0.7-0.1-1.4-0.4-2c-0.3-0.4-0.8-0.8-1.3-0.8v4.5c1.2,0.2,2.4,0.7,3.3,1.5c0.6,0.7,0.9,1.6,0.8,2.4
	c0.1,1.1-0.3,2.2-1.1,3c-0.8,0.8-1.9,1.2-3,1.3v1.7h-1.6L518.7,978.4z M518.7,969.8v-4.2c-1.1,0.1-1.9,1-1.9,2.1
	C516.8,968.8,517.6,969.7,518.7,969.8z M520.3,972.3v4.4c1.4-0.3,2.2-1,2.2-2.3c0-0.5-0.1-0.9-0.4-1.3
	C521.5,972.7,520.9,972.4,520.3,972.3z"/>
<path class="st0" d="M774.4,1269.4c-1.2,0-2.2-1-2.2-2.2l0,0v-19.8h-15.7c-1.6,0-2.8-1.3-2.8-2.8l0,0v-70.4c0-1.6,1.3-2.8,2.8-2.8h0
	h121c1.6,0,2.8,1.3,2.8,2.8l0,0v70.4c0,1.6-1.3,2.8-2.8,2.8h0h-78.8l-22.9,21.3C775.5,1269.2,774.9,1269.4,774.4,1269.4z
	 M758,1243.2h15.7c1.6,0,2.8,1.3,2.8,2.8l0,0v16.3l19.7-18.3c0.5-0.5,1.2-0.7,1.9-0.8H876v-67.4H758L758,1243.2z"/>
<path class="st0" d="M924.5,1317.2c-0.5,0-1.1-0.2-1.5-0.6l-22.9-21.3h-73.5c-1.6,0-2.8-1.3-2.8-2.8l0,0v-47.2
	c0.1-1.2,1.1-2.1,2.3-2c1.1,0.1,1.9,0.9,2,2v45.7h72.6c0.7,0,1.4,0.3,1.9,0.8l19.7,18.3v-16.3c0-1.6,1.3-2.8,2.8-2.8h0h15.7v-67.4
	h-62.6c-1.2-0.1-2.1-1.1-2-2.3c0.1-1.1,0.9-1.9,2-2h64.1c1.6,0,2.8,1.3,2.8,2.8l0,0v70.4c0,1.6-1.3,2.8-2.8,2.8h0h-15.7v19.8
	c0,0.9-0.5,1.7-1.3,2C925.1,1317.2,924.8,1317.2,924.5,1317.2z M942.4,1223.7L942.4,1223.7z"/>
<path class="st0" d="M777.3,1221.6c-0.4,0-0.9-0.1-1.2-0.4c-0.8-0.5-1.1-1.5-0.8-2.4l2.4-7.8l-6.7-4.7c-0.8-0.5-1.1-1.5-0.8-2.4
	c0.3-0.9,1.1-1.5,2-1.5l8.2-0.1l2.4-7.8c0.3-0.9,1.1-1.5,2-1.5l0,0c0.9,0,1.7,0.6,2,1.4l2.7,7.8l8.2-0.1c1.2,0,2.2,0.9,2.2,2.1
	c0,0.7-0.3,1.3-0.9,1.8l-6.6,4.9l2.7,7.8c0.4,1.1-0.2,2.3-1.3,2.7c-0.7,0.2-1.4,0.1-2-0.3l-6.7-4.7l-6.6,4.9
	C778.1,1221.5,777.7,1221.6,777.3,1221.6z M778.8,1206.6l2.6,1.8c0.8,0.5,1.1,1.5,0.8,2.4l-0.9,3l2.5-1.9c0.8-0.5,1.8-0.5,2.5,0
	l2.6,1.8l-1-3c-0.3-0.9,0-1.9,0.7-2.4l2.5-1.9l-3.2,0.1c-0.9,0-1.8-0.6-2.1-1.4l-1-3l-0.9,3c-0.3,0.9-1.1,1.5-2,1.5L778.8,1206.6z"
	/>
<path class="st0" d="M811.8,1221.6c-1.2,0-2.1-1-2.1-2.2c0-0.2,0-0.4,0.1-0.6l2.4-7.8l-6.7-4.7c-0.8-0.5-1.1-1.5-0.8-2.4
	c0.3-0.9,1.1-1.5,2-1.5l8.2-0.1l2.4-7.8c0.3-0.9,1.1-1.5,2-1.5c0.9,0,1.8,0.6,2.1,1.4l2.7,7.8l8.2-0.1c0.9,0,1.8,0.6,2.1,1.4
	c0.3,0.9,0,1.9-0.7,2.4l-6.6,4.9l2.7,7.8c0.4,1.1-0.2,2.3-1.3,2.7c-0.7,0.2-1.4,0.1-2-0.3l-6.7-4.7l-6.6,4.9
	C812.6,1221.5,812.2,1221.6,811.8,1221.6z M813.3,1206.6l2.6,1.8c0.8,0.5,1.1,1.5,0.8,2.4l-0.9,3l2.5-1.9c0.8-0.5,1.8-0.5,2.5,0
	l2.6,1.8l-1-3c-0.3-0.9,0-1.9,0.7-2.4l2.5-1.9l-3.2,0.1l0,0c-0.9,0-1.7-0.6-2-1.5l-1-3l-0.9,3c-0.3,0.9-1.1,1.5-2,1.5L813.3,1206.6z
	"/>
<path class="st0" d="M845.7,1221.6c-0.4,0-0.9-0.1-1.2-0.4c-0.8-0.5-1.1-1.5-0.8-2.4l2.4-7.8l-6.7-4.7c-1-0.7-1.2-2-0.5-3
	c0.4-0.6,1-0.9,1.7-0.9l8.2-0.1l2.4-7.8c0.3-0.9,1.1-1.5,2-1.5l0,0c0.9,0,1.7,0.6,2,1.4l2.7,7.8l8.2-0.1c0.9,0,1.8,0.6,2.1,1.4
	c0.3,0.9,0,1.9-0.8,2.4l-6.6,4.9l2.7,7.8c0.4,1.1-0.2,2.3-1.3,2.7c-0.7,0.2-1.4,0.1-1.9-0.3l-6.7-4.7l-6.5,4.9
	C846.6,1221.5,846.2,1221.6,845.7,1221.6z M847.3,1206.6l2.6,1.8c0.8,0.5,1.1,1.5,0.8,2.4l-0.9,3l2.5-1.9c0.8-0.5,1.8-0.5,2.5,0
	l2.6,1.8l-1-3c-0.3-0.9,0-1.9,0.8-2.4l2.5-1.9l-3.2,0.1c-0.9,0-1.8-0.6-2.1-1.5l-1-3l-0.9,3c-0.3,0.9-1.1,1.5-2,1.5L847.3,1206.6z"
	/>
<path class="st0" d="M917.3,1238.7H880c-1.2,0.1-2.2-0.8-2.3-2c-0.1-1.2,0.8-2.2,2-2.3c0.1,0,0.2,0,0.3,0h37.4
	c1.2,0.1,2.1,1.1,2,2.3C919.3,1237.8,918.5,1238.7,917.3,1238.7L917.3,1238.7z"/>
<path class="st0" d="M917.4,1257.1H847c-1.2,0-2.2-1-2.2-2.2s1-2.2,2.2-2.2h70.4c1.2,0,2.2,1,2.2,2.2S918.6,1257.1,917.4,1257.1
	L917.4,1257.1L917.4,1257.1z"/>
<path class="st0" d="M917.4,1275.2H847c-1.2,0-2.2-1-2.2-2.2s1-2.2,2.2-2.2h70.4c1.2,0,2.2,1,2.2,2.2S918.6,1275.2,917.4,1275.2
	L917.4,1275.2L917.4,1275.2z"/>
<path class="st0" d="M481.2,1773.1h-30.8c-1.5,0-2.7-1.2-2.7-2.7v-8.3c-6.6,1.5-21.6,4-33.8,0.4v7.4c0,1.5-1.2,2.7-2.7,2.7h-33.3
	c-1.5,0-2.7-1.2-2.7-2.7c0,0,0,0,0,0v-31.2c-2.1-3.2-10.4-16.2-12.6-25h-23.1c-1.5,0-2.7-1.2-2.7-2.7c0,0,0,0,0,0l0.2-35.3
	c0-1.5,1.2-2.7,2.7-2.7h23c0.6-4.1,2.6-12.2,8.3-17.3V1626c0-1,0.5-1.9,1.4-2.3c0.8-0.5,1.9-0.5,2.7,0l15.1,8.8
	c6.5-4.3,13.6-7.6,21.2-9.6c12.8-3.4,32.8-5,55.4,7.4c19.3,10.6,31.8,30,34.4,53.4c2.4,22.1-4.3,43.8-17.1,55.9v30.8
	C483.9,1771.9,482.7,1773.1,481.2,1773.1C481.2,1773.1,481.2,1773.1,481.2,1773.1z M453,1767.7h25.4v-29.3c0-0.8,0.3-1.5,0.9-2
	c12-10.6,18.5-31.5,16.3-52c-1.4-12.7-7.4-35.9-31.6-49.2c-40.1-22-70.9,1.7-72.2,2.7c-0.9,0.7-2,0.8-3,0.2l-12.6-7.3v26.2
	c0,0.8-0.4,1.6-1,2.1c-6.7,5.3-7.5,16.7-7.5,16.8c-0.1,1.4-1.3,2.5-2.7,2.5h-22.7l-0.1,29.9h22.7c1.4,0,2.5,1,2.7,2.4
	c0.8,6.8,9.3,20.8,12.6,25.7c0.3,0.4,0.4,1,0.5,1.5v29.3h27.9v-8.5c0-1.5,1.2-2.7,2.7-2.7c0.4,0,0.8,0.1,1.1,0.2
	c14.4,6.3,37.2-0.1,37.4-0.1c1.4-0.4,2.9,0.4,3.3,1.9c0.1,0.2,0.1,0.5,0.1,0.7L453,1767.7z"/>
<path class="st0" d="M453.4,1651.4h-39.1c-1.5,0-2.7-1.2-2.7-2.7c0-1.5,1.2-2.7,2.7-2.7h39.1c1.5,0,2.7,1.2,2.7,2.7
	C456.1,1650.2,454.9,1651.4,453.4,1651.4L453.4,1651.4z"/>
<ellipse class="st0" cx="391.3" cy="1671.4" rx="4.4" ry="4.2"/>
<path class="st0" d="M511.7,1674.5c-1.9,0-4.3-1.2-6.5-5.7c-3.1-6.3-3.3-12.8-0.5-17.8c-0.7,0-1.4,0.1-2.1,0.3
	c-5.6,1.2-8.4,7.6-8.4,7.6c-0.6,1.4-2.2,2-3.5,1.5c-1.4-0.6-2-2.2-1.5-3.5l0,0c0.2-0.4,3.9-9.1,12.3-10.8c2.6-0.5,5.2-0.5,7.7,0.2
	c2.2-1.4,4.7-2.1,7.3-2.1h0.1c9.8,0.1,15.7,6.7,15.7,17.5c0,1.5-1.2,2.7-2.7,2.7s-2.7-1.2-2.7-2.7c0-8-3.5-12.1-10.3-12.1
	c-0.4,0-0.8,0-1.2,0.1c2.2,2,3.6,4.6,4.2,7.5c0.9,5-1.1,15.5-6.3,17.2C512.8,1674.4,512.2,1674.5,511.7,1674.5z M510.3,1652.4
	c-0.2,0.3-0.4,0.6-0.6,0.9c-2.2,3.4-2,8.2,0.4,13.1c0.4,1,1,1.8,1.7,2.5c1.4-1.2,3.2-7.3,2.5-11c-0.4-2.1-1.7-4-3.5-5.2
	C510.6,1652.7,510.4,1652.5,510.3,1652.4L510.3,1652.4z"/>
<path class="st0" d="M419.9,1556.3c-1.5,0-2.7-1.2-2.7-2.7v-18.9c0-1.5,1.2-2.7,2.7-2.7c1.5,0,2.7,1.2,2.7,2.7v18.9
	C422.6,1555.1,421.4,1556.3,419.9,1556.3z"/>
<path class="st0" d="M447.1,1555.1c-1.5,0-2.7-1.2-2.7-2.7v-18.9c0-1.5,1.2-2.7,2.7-2.7c1.5,0,2.7,1.2,2.7,2.7v18.9
	C449.8,1553.8,448.6,1555.1,447.1,1555.1z"/>
<path class="st0" d="M434.4,1539.3c-1.5,0-2.7-1.2-2.7-2.7c0,0,0,0,0,0v-12.1c-0.1-1.5,1-2.8,2.5-2.9s2.8,1,2.9,2.5
	c0,0.1,0,0.2,0,0.3v12.1C437.1,1538.1,435.9,1539.3,434.4,1539.3z"/>
<path class="st0" d="M434.8,1608.8c-13.2,0-23.8-10.7-23.9-23.8c0-13.2,10.7-23.8,23.8-23.9c13.2,0,23.8,10.7,23.9,23.8c0,0,0,0,0,0
	C458.6,1598.2,447.9,1608.8,434.8,1608.8z M434.8,1566.5c-10.2,0-18.4,8.3-18.4,18.4c0,10.2,8.3,18.4,18.4,18.4
	c10.2,0,18.4-8.2,18.4-18.4C453.2,1574.8,444.9,1566.6,434.8,1566.5L434.8,1566.5z"/>
<path class="st0" d="M621,1799c-1.9,0-3.5-1.6-3.5-3.5V539.7c0-1.9,1.6-3.5,3.5-3.5s3.5,1.6,3.5,3.5v1255.8
	C624.5,1797.4,622.9,1799,621,1799z"/>
<text transform="matrix(1 0 0 1 267.75 591.0801)" class="st1 st2">G</text>
<text transform="matrix(1 0 0 1 306.54 591.0801)" class="st1 st2">e</text>
<text transform="matrix(1 0 0 1 336.81 591.0801)" class="st1 st2">t </text>
<text transform="matrix(1 0 0 1 371.31 591.0801)" class="st1 st2">s</text>
<text transform="matrix(1 0 0 1 394.67 591.0801)" class="st1 st2">t</text>
<text transform="matrix(1 0 0 1 414.51 591.0801)" class="st1 st2">ar</text>
<text transform="matrix(1 0 0 1 465.4 591.0801)" class="st1 st2">t</text>
<text transform="matrix(1 0 0 1 485.34 591.0801)" class="st1 st2">ed</text>
<text transform="matrix(1 0 0 1 418.91 460.7)" class="st1 st3">H</text>
<text transform="matrix(1 0 0 1 465.45 460.7)" class="st1 st3">o</text>
<text transform="matrix(1 0 0 1 504.55 460.7)" class="st1 st3">w it </text>
<text transform="matrix(1 0 0 1 633.9 460.7)" class="st1 st3">w</text>
<text transform="matrix(1 0 0 1 686.6 460.7)" class="st1 st3">or</text>
<text transform="matrix(1 0 0 1 752.04 460.7)" class="st1 st3">k</text>
<text transform="matrix(1 0 0 1 785.3101 460.7)" class="st1 st3">s</text>
<text transform="matrix(1 0 0 1 332.41 678.28)" class="st4 st5 st6 st7">Y</text>
<text transform="matrix(1 0 0 1 355.89 678.28)" class="st4 st5 st6">ou fill out 1</text>
<text transform="matrix(1 0 0 1 332.41 727.26)" class="st4 st5 st6">application.</text>
<text transform="matrix(1 0 0 1 689.3401 960.17)" class="st4 st5 st6">W</text>
<text transform="matrix(1 0 0 1 727.13 960.17)" class="st4 st5 st6">e match you to</text>
<text transform="matrix(1 0 0 1 689.3401 1009.15)" class="st4 st5 st6">the best loan</text>
<text transform="matrix(1 0 0 1 689.3401 1058.13)" class="st4 st5 st6">options</text>
<text transform="matrix(1 0 0 1 296.9 1331.7)" class="st4 st5 st6">W</text>
<text transform="matrix(1 0 0 1 334.69 1331.7)" class="st4 st5 st6">e’ll help you</text>
<text transform="matrix(1 0 0 1 262.06 1380.6799)" class="st4 st5 st6">choose the best</text>
<text transform="matrix(1 0 0 1 470.81 1429.6599)" class="st4 st5 st6">one.</text>
<text transform="matrix(1 0 0 1 693.3401 1675.61)" class="st4 st5 st6">Access the capital</text>
<text transform="matrix(1 0 0 1 693.3401 1724.59)" class="st4 st5 st6">you need in as little</text>
<text transform="matrix(1 0 0 1 693.3401 1773.5701)" class="st4 st5 st6">as 24 hours.</text>
<text transform="matrix(1 0 0 1 693.3401 866.49)" class="st1 st2">G</text>
<text transform="matrix(1 0 0 1 732.13 866.49)" class="st1 st2">e</text>
<text transform="matrix(1 0 0 1 762.4 866.49)" class="st1 st2">t m</text>
<text transform="matrix(1 0 0 1 846.02 866.49)" class="st1 st2">a</text>
<text transform="matrix(1 0 0 1 874.9 866.49)" class="st1 st2">t</text>
<text transform="matrix(1 0 0 1 894.75 866.49)" class="st1 st2">ched</text>
<text transform="matrix(1 0 0 1 248.1 1234.42)" class="st1 st2">G</text>
<text transform="matrix(1 0 0 1 286.89 1234.42)" class="st1 st2">e</text>
<text transform="matrix(1 0 0 1 317.16 1234.42)" class="st1 st2">t o</text>
<text transform="matrix(1 0 0 1 384.08 1234.42)" class="st1 st2">p</text>
<text transform="matrix(1 0 0 1 416.12 1234.42)" class="st1 st2">tions</text>
<text transform="matrix(1 0 0 1 693.3401 1578.48)" class="st1 st2">G</text>
<text transform="matrix(1 0 0 1 732.13 1578.48)" class="st1 st2">e</text>
<text transform="matrix(1 0 0 1 762.4 1578.48)" class="st1 st2">t funded</text>
<line class="st8" x1="550.3" y1="515" x2="693.3" y2="515"/>
</svg>
