<svg id="Layer_1" data-name="Layer 1" xmlns="http://www.w3.org/2000/svg" viewBox="0 0 423.43 402.92"><defs><style>.cls-1{fill:#f8a756;}.cls-2{fill:#6d6d6d;}.cls-3{fill:#1db954;}</style></defs><title>icons_swaped</title><path class="cls-1" d="M162.77,312.75l2.1.53a7.1,7.1,0,0,1-2.37,3.94,6.56,6.56,0,0,1-4.19,1.35,7.49,7.49,0,0,1-4.17-1,6.53,6.53,0,0,1-2.44-3,10.78,10.78,0,0,1-.84-4.25,9.36,9.36,0,0,1,.95-4.32,6.56,6.56,0,0,1,2.69-2.8,8,8,0,0,1,3.84-.95,6.47,6.47,0,0,1,4,1.21,6.27,6.27,0,0,1,2.26,3.4l-2.06.49a4.94,4.94,0,0,0-1.6-2.52,4.31,4.31,0,0,0-2.64-.79,5,5,0,0,0-3.05.88,4.61,4.61,0,0,0-1.73,2.35,9.49,9.49,0,0,0-.49,3,9.75,9.75,0,0,0,.58,3.53,4.41,4.41,0,0,0,1.84,2.25,5.08,5.08,0,0,0,2.69.75,4.49,4.49,0,0,0,3-1A5.15,5.15,0,0,0,162.77,312.75Z"/><path class="cls-1" d="M167.18,318.3V306.82h1.75v1.75a4.77,4.77,0,0,1,1.24-1.62,2.24,2.24,0,0,1,1.25-.38,3.76,3.76,0,0,1,2,.62l-.67,1.81a2.8,2.8,0,0,0-1.43-.42,1.82,1.82,0,0,0-1.14.38,2.09,2.09,0,0,0-.73,1.06,7.83,7.83,0,0,0-.32,2.27v6Z"/><path class="cls-1" d="M182.43,314.61l2,.25a4.86,4.86,0,0,1-1.76,2.73,6,6,0,0,1-7.28-.58,6.06,6.06,0,0,1-1.47-4.35,6.33,6.33,0,0,1,1.49-4.5,5.05,5.05,0,0,1,3.87-1.59,4.92,4.92,0,0,1,3.76,1.56,6.26,6.26,0,0,1,1.46,4.41c0,.12,0,.29,0,.52h-8.56A4.42,4.42,0,0,0,177,316a3.18,3.18,0,0,0,2.4,1,2.92,2.92,0,0,0,1.82-.56A3.63,3.63,0,0,0,182.43,314.61Zm-6.38-3.15h6.4a3.87,3.87,0,0,0-.73-2.17,3,3,0,0,0-2.41-1.13,3.08,3.08,0,0,0-2.25.9A3.53,3.53,0,0,0,176.05,311.46Z"/><path class="cls-1" d="M194.33,318.3v-1.45a3.57,3.57,0,0,1-3.21,1.71,4.54,4.54,0,0,1-2.52-.75,5,5,0,0,1-1.78-2.12,7.16,7.16,0,0,1-.64-3.12,8,8,0,0,1,.58-3.11,4.51,4.51,0,0,1,1.71-2.15,4.6,4.6,0,0,1,2.57-.74,3.8,3.8,0,0,1,3.16,1.57v-5.68h1.94V318.3Zm-6.15-5.73a5,5,0,0,0,.93,3.3,2.8,2.8,0,0,0,2.2,1.09,2.71,2.71,0,0,0,2.16-1,4.79,4.79,0,0,0,.89-3.18,5.43,5.43,0,0,0-.9-3.46,2.78,2.78,0,0,0-2.24-1.1,2.68,2.68,0,0,0-2.17,1.06A5.19,5.19,0,0,0,188.18,312.57Z"/><path class="cls-1" d="M199.21,304.7v-2.24h1.94v2.24Zm0,13.6V306.82h1.94V318.3Z"/><path class="cls-1" d="M208.36,316.56l.28,1.72a6.91,6.91,0,0,1-1.47.17,3.38,3.38,0,0,1-1.64-.33,1.88,1.88,0,0,1-.82-.88,6.94,6.94,0,0,1-.24-2.3v-6.6H203v-1.52h1.43V304l1.93-1.16v4h2v1.52h-2v6.71a3.3,3.3,0,0,0,.11,1.07.87.87,0,0,0,.33.38,1.36,1.36,0,0,0,.67.14A6.53,6.53,0,0,0,208.36,316.56Z"/><path class="cls-1" d="M216,313.21l2-.17a4.37,4.37,0,0,0,.65,1.95,3.51,3.51,0,0,0,1.59,1.23,5.92,5.92,0,0,0,2.43.47,6,6,0,0,0,2.12-.35,3,3,0,0,0,1.37-1,2.29,2.29,0,0,0,.45-1.36,2.09,2.09,0,0,0-.43-1.3,3.32,3.32,0,0,0-1.43-.94c-.42-.16-1.37-.42-2.82-.77a14.27,14.27,0,0,1-3.06-1,4.25,4.25,0,0,1-1.69-1.47,3.65,3.65,0,0,1-.56-2,4.06,4.06,0,0,1,.68-2.24,4.28,4.28,0,0,1,2-1.58,7.54,7.54,0,0,1,2.91-.54,8,8,0,0,1,3.11.57,4.47,4.47,0,0,1,2.07,1.67,4.72,4.72,0,0,1,.77,2.49l-2,.15A3.24,3.24,0,0,0,225,304.8a4.3,4.3,0,0,0-2.76-.76,4.49,4.49,0,0,0-2.78.69,2.1,2.1,0,0,0-.87,1.68,1.82,1.82,0,0,0,.62,1.41,8.38,8.38,0,0,0,3.16,1.13,20.57,20.57,0,0,1,3.51,1,4.78,4.78,0,0,1,2,1.61,4,4,0,0,1,.66,2.26,4.31,4.31,0,0,1-.72,2.38,4.77,4.77,0,0,1-2.08,1.74,7.21,7.21,0,0,1-3.06.62,9.26,9.26,0,0,1-3.6-.62,5.05,5.05,0,0,1-2.28-1.89A5.37,5.37,0,0,1,216,313.21Z"/><path class="cls-1" d="M238.67,314.1l1.91.25a4.94,4.94,0,0,1-1.61,3.09,4.66,4.66,0,0,1-3.17,1.12A4.93,4.93,0,0,1,232,317a6.27,6.27,0,0,1-1.43-4.41,8,8,0,0,1,.62-3.26,4.3,4.3,0,0,1,1.87-2.09,5.6,5.6,0,0,1,2.74-.69,4.76,4.76,0,0,1,3.06.94,4.34,4.34,0,0,1,1.52,2.69l-1.89.29a3.19,3.19,0,0,0-.95-1.74,2.48,2.48,0,0,0-1.66-.59,3,3,0,0,0-2.39,1.06,5,5,0,0,0-.92,3.33,5.16,5.16,0,0,0,.89,3.36,2.88,2.88,0,0,0,2.31,1,2.71,2.71,0,0,0,1.91-.7A3.52,3.52,0,0,0,238.67,314.1Z"/><path class="cls-1" d="M241.52,312.56a5.92,5.92,0,0,1,1.77-4.72,5.34,5.34,0,0,1,3.61-1.27,5.12,5.12,0,0,1,3.87,1.55,5.89,5.89,0,0,1,1.5,4.28,7.66,7.66,0,0,1-.66,3.49,4.78,4.78,0,0,1-1.94,2,5.59,5.59,0,0,1-2.77.7A5.16,5.16,0,0,1,243,317,6.19,6.19,0,0,1,241.52,312.56Zm2,0a4.93,4.93,0,0,0,1,3.31,3.21,3.21,0,0,0,4.83,0,5,5,0,0,0,1-3.36,4.72,4.72,0,0,0-1-3.23,3.21,3.21,0,0,0-4.82,0A4.84,4.84,0,0,0,243.52,312.56Z"/><path class="cls-1" d="M254.53,318.3V306.82h1.75v1.75a4.77,4.77,0,0,1,1.24-1.62,2.22,2.22,0,0,1,1.25-.38,3.79,3.79,0,0,1,2,.62L260.1,309a2.8,2.8,0,0,0-1.43-.42,1.83,1.83,0,0,0-1.15.38,2.08,2.08,0,0,0-.72,1.06,7.5,7.5,0,0,0-.32,2.27v6Z"/><path class="cls-1" d="M269.78,314.61l2,.25a4.91,4.91,0,0,1-1.76,2.73,6,6,0,0,1-7.28-.58,6.06,6.06,0,0,1-1.48-4.35,6.34,6.34,0,0,1,1.5-4.5,5,5,0,0,1,3.86-1.59,4.94,4.94,0,0,1,3.77,1.56,6.25,6.25,0,0,1,1.45,4.41c0,.12,0,.29,0,.52h-8.56a4.47,4.47,0,0,0,1.07,2.9,3.21,3.21,0,0,0,2.4,1,2.93,2.93,0,0,0,1.83-.56A3.76,3.76,0,0,0,269.78,314.61Zm-6.39-3.15h6.41a3.87,3.87,0,0,0-.73-2.17,3,3,0,0,0-2.41-1.13,3.09,3.09,0,0,0-2.26.9A3.58,3.58,0,0,0,263.39,311.46Z"/><path class="cls-2" d="M186.6,348.88l2.2-.19a3.92,3.92,0,0,0,1.14,2.42,3.08,3.08,0,0,0,2.15.81,3.34,3.34,0,0,0,2.56-1.14,4.33,4.33,0,0,0,1-3,3.93,3.93,0,0,0-1-2.84,3.51,3.51,0,0,0-2.64-1,3.66,3.66,0,0,0-1.83.46,3.58,3.58,0,0,0-1.28,1.19l-2-.25,1.66-8.78h8.49v2H190.3l-.92,4.59a5.55,5.55,0,0,1,3.23-1.07,5.14,5.14,0,0,1,3.78,1.54,5.47,5.47,0,0,1,1.54,4,6.24,6.24,0,0,1-1.36,4,5.41,5.41,0,0,1-4.48,2.07,5.52,5.52,0,0,1-3.81-1.3A5.11,5.11,0,0,1,186.6,348.88Z"/><path class="cls-2" d="M199.87,348.88l2.2-.19a4,4,0,0,0,1.14,2.42,3.08,3.08,0,0,0,2.15.81,3.34,3.34,0,0,0,2.56-1.14,4.33,4.33,0,0,0,1.05-3,3.93,3.93,0,0,0-1-2.84,3.51,3.51,0,0,0-2.64-1,3.66,3.66,0,0,0-1.83.46,3.58,3.58,0,0,0-1.28,1.19l-2-.25,1.66-8.78h8.49v2h-6.81l-.93,4.59a5.55,5.55,0,0,1,3.23-1.07,5.14,5.14,0,0,1,3.78,1.54,5.47,5.47,0,0,1,1.54,4,6.18,6.18,0,0,1-1.36,4,5.41,5.41,0,0,1-4.48,2.07,5.54,5.54,0,0,1-3.81-1.3A5.11,5.11,0,0,1,199.87,348.88Z"/><path class="cls-2" d="M213.14,344.93a15.83,15.83,0,0,1,.62-4.88,6.13,6.13,0,0,1,1.86-2.85,4.72,4.72,0,0,1,3.09-1,5,5,0,0,1,2.41.55,4.69,4.69,0,0,1,1.72,1.6,8.59,8.59,0,0,1,1.06,2.54,17.24,17.24,0,0,1,.38,4,15.71,15.71,0,0,1-.62,4.85,6.1,6.1,0,0,1-1.84,2.85,5.2,5.2,0,0,1-7-.76C213.7,350.45,213.14,348.13,213.14,344.93Zm2.16,0c0,2.8.32,4.67,1,5.6a2.81,2.81,0,0,0,4.86,0c.66-.93,1-2.8,1-5.59s-.32-4.68-1-5.61a2.92,2.92,0,0,0-2.45-1.38,2.67,2.67,0,0,0-2.31,1.22Q215.3,340.72,215.3,344.93Z"/><path class="cls-3" d="M283.32,267H143.41a3.7,3.7,0,0,1-3.7-3.69V133.07a3.72,3.72,0,0,1,1.15-2.67l56.63-54a3.68,3.68,0,0,1,2.55-1h83.28a3.7,3.7,0,0,1,3.7,3.69v184.2A3.7,3.7,0,0,1,283.32,267ZM200,78.64a.45.45,0,0,0-.31.12l-56.63,54a.43.43,0,0,0-.14.32V263.28a.45.45,0,0,0,.45.44H283.32a.45.45,0,0,0,.45-.44V79.08a.45.45,0,0,0-.45-.44Z"/><path class="cls-3" d="M197.4,134.15H142.1V130.9h55.3a.7.7,0,0,0,.7-.7V77.52h3.24V130.2A4,4,0,0,1,197.4,134.15Z"/><path class="cls-1" d="M213.17,221.48a13,13,0,0,1-8.24-3.12c-6.11-5-5.77-10.82-4.4-14.85a18.15,18.15,0,0,1,5.45-7.88c19.26-16.59,40.23-34.72,41.64-36.16a1.52,1.52,0,0,1,2.57,1.57c-5.49,12-19.94,44-20.87,47.57-1,3.77-5.71,10.1-12.09,12.2A12.89,12.89,0,0,1,213.17,221.48Zm31.27-55.12c-5.38,4.72-15.88,13.82-36.49,31.56a15.21,15.21,0,0,0-4.55,6.56c-1.54,4.54-.38,8.42,3.44,11.53a9.5,9.5,0,0,0,9.44,1.92c5.08-1.67,9.31-7,10.11-10.08C227.3,204.32,238.83,178.72,244.44,166.36Z"/><path class="cls-1" d="M201.23,212.62H159.92a1.52,1.52,0,0,1-1.12-.5,1.57,1.57,0,0,1-.39-1.16,73.18,73.18,0,0,1,8.94-26.86c7.08-12.31,21.16-27,48.05-27h0c11,0,20.56,2.2,28.27,6.53a1.52,1.52,0,0,1-1.49,2.64c-7.25-4.07-16.26-6.14-26.79-6.14h0c-20.43,0-35.71,8.56-45.42,25.46a72,72,0,0,0-8.33,24h39.58a1.52,1.52,0,0,1,0,3Z"/><path class="cls-1" d="M265.88,212.62H227.69a1.52,1.52,0,1,1,0-3h36.65c-.22-9.69-2.72-30-18.91-41.29a1.51,1.51,0,1,1,1.73-2.48c18.26,12.7,20.23,35.9,20.23,45.28A1.52,1.52,0,0,1,265.88,212.62Z"/><rect class="cls-3" x="231.91" y="103.4" width="37.26" height="3.25"/><rect class="cls-3" x="217.72" y="121.65" width="51.46" height="3.25"/><path class="cls-1" d="M215,178.48A1.52,1.52,0,0,1,213.5,177V165.31a1.52,1.52,0,1,1,3,0V177A1.52,1.52,0,0,1,215,178.48Z"/><path class="cls-1" d="M185.61,199.6H172.77a1.52,1.52,0,1,1,0-3h12.84a1.52,1.52,0,0,1,0,3Z"/><path class="cls-1" d="M256.58,199.6H243.74a1.52,1.52,0,1,1,0-3h12.84a1.52,1.52,0,1,1,0,3Z"/><path class="cls-1" d="M197.19,183.3a1.49,1.49,0,0,1-1.13-.51l-7.44-8.28a1.5,1.5,0,0,1,.12-2.13,1.52,1.52,0,0,1,2.14.11l7.43,8.28a1.51,1.51,0,0,1-1.12,2.53Z"/></svg>