<svg id="Layer_1" data-name="Layer 1" xmlns="http://www.w3.org/2000/svg" viewBox="0 0 423.43 402.92"><defs><style>.cls-1{fill:#3a3a3a;}.cls-2{fill:#6d6d6d;}.cls-3{fill:#1db954;}.cls-4{fill:#f8a756;}</style></defs><title>icons_swaped</title><path class="cls-1" d="M168.52,326V310.16h10.69V312h-8.6v4.91h7.44v1.87h-7.44V326Z"/><path class="cls-1" d="M189.17,324.59a7.16,7.16,0,0,1-2.08,1.29,5.84,5.84,0,0,1-2.14.38,4.2,4.2,0,0,1-2.91-.92,3,3,0,0,1-1-2.36,3.24,3.24,0,0,1,1.39-2.66,5,5,0,0,1,1.4-.64,13.44,13.44,0,0,1,1.73-.29,17.93,17.93,0,0,0,3.47-.67c0-.27,0-.44,0-.51a2.12,2.12,0,0,0-.55-1.67,3.27,3.27,0,0,0-2.22-.66,3.42,3.42,0,0,0-2,.48,2.93,2.93,0,0,0-1,1.7l-1.9-.26a4.64,4.64,0,0,1,.85-2,3.77,3.77,0,0,1,1.72-1.16,7.68,7.68,0,0,1,2.6-.4,6.92,6.92,0,0,1,2.39.34,3,3,0,0,1,1.35.87,3.09,3.09,0,0,1,.61,1.33,11.41,11.41,0,0,1,.1,1.79v2.59a28.68,28.68,0,0,0,.12,3.44,4.42,4.42,0,0,0,.49,1.37h-2A4.16,4.16,0,0,1,189.17,324.59Zm-.16-4.35a14.14,14.14,0,0,1-3.18.74,6.92,6.92,0,0,0-1.7.39,1.63,1.63,0,0,0-.76.63,1.72,1.72,0,0,0,.32,2.22,2.49,2.49,0,0,0,1.72.52,4,4,0,0,0,2-.49,3.11,3.11,0,0,0,1.29-1.35A4.86,4.86,0,0,0,189,321Z"/><path class="cls-1" d="M201.48,321.8l1.91.25a4.88,4.88,0,0,1-1.6,3.09,4.66,4.66,0,0,1-3.17,1.12,4.91,4.91,0,0,1-3.79-1.54,6.21,6.21,0,0,1-1.43-4.41,8,8,0,0,1,.61-3.26,4.36,4.36,0,0,1,1.88-2.09,5.6,5.6,0,0,1,2.74-.69,4.79,4.79,0,0,1,3.06.94,4.34,4.34,0,0,1,1.52,2.69l-1.89.29a3.13,3.13,0,0,0-1-1.74,2.45,2.45,0,0,0-1.66-.58,3,3,0,0,0-2.38,1.05,4.94,4.94,0,0,0-.92,3.33,5.14,5.14,0,0,0,.88,3.36,2.88,2.88,0,0,0,2.32,1.05,2.71,2.71,0,0,0,1.91-.7A3.52,3.52,0,0,0,201.48,321.8Z"/><path class="cls-1" d="M209.31,324.26l.28,1.72a6.91,6.91,0,0,1-1.47.17,3.39,3.39,0,0,1-1.65-.33,1.93,1.93,0,0,1-.82-.88,7,7,0,0,1-.23-2.3V316H204v-1.51h1.43v-2.85l1.93-1.16v4h2V316h-2v6.71a3.4,3.4,0,0,0,.1,1.07.83.83,0,0,0,.34.38,1.3,1.3,0,0,0,.66.14A6.66,6.66,0,0,0,209.31,324.26Z"/><path class="cls-1" d="M210.48,320.26a5.89,5.89,0,0,1,1.78-4.72,5.32,5.32,0,0,1,3.61-1.27,5.15,5.15,0,0,1,3.87,1.55,5.89,5.89,0,0,1,1.5,4.28,7.52,7.52,0,0,1-.67,3.49,4.76,4.76,0,0,1-1.93,2,5.62,5.62,0,0,1-2.77.7,5.16,5.16,0,0,1-3.9-1.54A6.19,6.19,0,0,1,210.48,320.26Zm2,0a4.88,4.88,0,0,0,1,3.31,3.21,3.21,0,0,0,4.83,0,5,5,0,0,0,1-3.36,4.74,4.74,0,0,0-1-3.23,3.21,3.21,0,0,0-4.82,0A4.81,4.81,0,0,0,212.48,320.26Z"/><path class="cls-1" d="M223.5,326V314.53h1.75v1.74a4.61,4.61,0,0,1,1.23-1.61,2.17,2.17,0,0,1,1.25-.39,3.76,3.76,0,0,1,2,.62l-.67,1.81a2.77,2.77,0,0,0-1.42-.42,1.83,1.83,0,0,0-1.15.38,2.06,2.06,0,0,0-.72,1.06,7.5,7.5,0,0,0-.33,2.27v6Z"/><path class="cls-1" d="M237.39,326V310.16h10.69V312h-8.59v4.91h7.44v1.87h-7.44V326Z"/><path class="cls-1" d="M258.42,322.31l2,.25a4.93,4.93,0,0,1-1.77,2.73,6,6,0,0,1-7.28-.58,6.06,6.06,0,0,1-1.47-4.35,6.34,6.34,0,0,1,1.49-4.49,5.05,5.05,0,0,1,3.87-1.6,4.9,4.9,0,0,1,3.76,1.56,6.26,6.26,0,0,1,1.46,4.41c0,.12,0,.29,0,.52h-8.56a4.42,4.42,0,0,0,1.07,2.9,3.18,3.18,0,0,0,2.4,1,3,3,0,0,0,1.83-.56A3.76,3.76,0,0,0,258.42,322.31ZM252,319.16h6.41a3.86,3.86,0,0,0-.74-2.17,3,3,0,0,0-2.41-1.12,3.12,3.12,0,0,0-2.25.89A3.53,3.53,0,0,0,252,319.16Z"/><path class="cls-1" d="M270.73,322.31l2,.25a4.93,4.93,0,0,1-1.77,2.73,6,6,0,0,1-7.27-.58,6,6,0,0,1-1.48-4.35,6.34,6.34,0,0,1,1.49-4.49,5.05,5.05,0,0,1,3.87-1.6,4.9,4.9,0,0,1,3.76,1.56,6.26,6.26,0,0,1,1.46,4.41c0,.12,0,.29,0,.52h-8.56a4.42,4.42,0,0,0,1.07,2.9,3.18,3.18,0,0,0,2.4,1,3,3,0,0,0,1.83-.56A3.76,3.76,0,0,0,270.73,322.31Zm-6.39-3.15h6.41A3.86,3.86,0,0,0,270,317a3,3,0,0,0-2.41-1.12,3.12,3.12,0,0,0-2.25.89A3.53,3.53,0,0,0,264.34,319.16Z"/><path class="cls-2" d="M174.6,362.17h-1.87V350.3a9.23,9.23,0,0,1-1.76,1.29,12.89,12.89,0,0,1-2,1v-1.8a11.19,11.19,0,0,0,2.73-1.78,7.1,7.1,0,0,0,1.66-2h1.2Z"/><path class="cls-2" d="M180.41,362.17v-2.12h2.12v2.12Z"/><path class="cls-2" d="M192.27,362.17h-1.86V350.3a9.67,9.67,0,0,1-1.77,1.29,12.45,12.45,0,0,1-2,1v-1.8a11.19,11.19,0,0,0,2.73-1.78,6.93,6.93,0,0,0,1.66-2h1.2Z"/><path class="cls-2" d="M203,362.17v-3.63h-6.58v-1.71l6.92-9.83h1.52v9.83h2v1.71h-2v3.63Zm0-5.34V350l-4.75,6.84Z"/><path class="cls-2" d="M214.51,357.62v-1.87h5.72v1.87Z"/><path class="cls-2" d="M234.67,362.17h-1.86V350.3a9.92,9.92,0,0,1-1.76,1.29,13.37,13.37,0,0,1-2,1v-1.8a11.19,11.19,0,0,0,2.73-1.78,6.88,6.88,0,0,0,1.65-2h1.2Z"/><path class="cls-2" d="M240.49,362.17v-2.12h2.12v2.12Z"/><path class="cls-2" d="M252.34,362.17h-1.86V350.3a9.56,9.56,0,0,1-1.76,1.29,12.89,12.89,0,0,1-2,1v-1.8a11.19,11.19,0,0,0,2.73-1.78,6.88,6.88,0,0,0,1.65-2h1.2Z"/><path class="cls-2" d="M260,354a3.64,3.64,0,0,1-1.72-1.21,3.21,3.21,0,0,1-.55-1.89,3.68,3.68,0,0,1,1.18-2.78,5,5,0,0,1,6.37,0,3.73,3.73,0,0,1,1.21,2.8,3.15,3.15,0,0,1-.55,1.84,3.54,3.54,0,0,1-1.69,1.21,3.87,3.87,0,0,1,2.86,3.89,4.37,4.37,0,0,1-1.38,3.27,5.61,5.61,0,0,1-7.24,0,4.41,4.41,0,0,1-1.38-3.31,4,4,0,0,1,.75-2.48A3.75,3.75,0,0,1,260,354Zm-1,3.84a3.29,3.29,0,0,0,.38,1.55,2.64,2.64,0,0,0,1.12,1.15,3.31,3.31,0,0,0,1.6.41,3,3,0,0,0,2.21-.86,2.93,2.93,0,0,0,.87-2.18,3,3,0,0,0-.9-2.23,3.09,3.09,0,0,0-2.24-.88,3,3,0,0,0-2.18.87A3,3,0,0,0,259,357.79Zm.6-7a2.37,2.37,0,0,0,.69,1.76,2.47,2.47,0,0,0,1.8.68,2.39,2.39,0,0,0,1.77-.68,2.22,2.22,0,0,0,.68-1.66,2.33,2.33,0,0,0-.7-1.72,2.6,2.6,0,0,0-3.54,0A2.18,2.18,0,0,0,259.61,350.79Z"/><path class="cls-3" d="M222.45,269.15H134.59a8,8,0,0,1-8-8V60.38a8,8,0,0,1,8-8H284.41a8,8,0,0,1,8,8V199.19a8,8,0,0,1-2.34,5.66l-62,62A7.93,7.93,0,0,1,222.45,269.15ZM134.59,55.86a4.53,4.53,0,0,0-4.53,4.52V261.15a4.53,4.53,0,0,0,4.53,4.53h87.86a4.5,4.5,0,0,0,3.2-1.32l62-62a4.51,4.51,0,0,0,1.33-3.21V60.38a4.53,4.53,0,0,0-4.53-4.52Z"/><path class="cls-3" d="M226.2,267.07h-3.46V204.74a4.25,4.25,0,0,1,4.25-4.26h62.9V204H227a.79.79,0,0,0-.79.79Z"/><path class="cls-4" d="M187.48,187.43h-25a1.61,1.61,0,0,1-1.62-1.62V118.46a1.61,1.61,0,0,1,1.62-1.62h25a1.62,1.62,0,0,1,1.62,1.62v67.35A1.62,1.62,0,0,1,187.48,187.43Zm-23.43-3.24h21.81V120.07H164.05Z"/><path class="cls-4" d="M187.48,146H163.3a1.62,1.62,0,0,1,0-3.24h24.18a1.62,1.62,0,1,1,0,3.24Z"/><path class="cls-4" d="M222,187.43H197a1.61,1.61,0,0,1-1.62-1.62V77A1.61,1.61,0,0,1,197,75.39h25A1.62,1.62,0,0,1,223.64,77v108.8A1.62,1.62,0,0,1,222,187.43Zm-23.42-3.24h21.8V78.63H198.6Z"/><path class="cls-4" d="M222,104.53H197.84a1.62,1.62,0,1,1,0-3.24H222a1.62,1.62,0,0,1,0,3.24Z"/><path class="cls-4" d="M256.56,187.43h-25a1.62,1.62,0,0,1-1.62-1.62V104.64a1.63,1.63,0,0,1,1.62-1.62h25a1.63,1.63,0,0,1,1.62,1.62v81.17A1.62,1.62,0,0,1,256.56,187.43Zm-23.42-3.24h21.8V106.26h-21.8Z"/><path class="cls-4" d="M256.56,130.44H232.38a1.62,1.62,0,1,1,0-3.24h24.18a1.62,1.62,0,1,1,0,3.24Z"/><path class="cls-3" d="M301.47,287.71H152.94a10.38,10.38,0,0,1-10.37-10.36v-9.94H146v9.94a6.91,6.91,0,0,0,6.9,6.9H301.47a6.91,6.91,0,0,0,6.9-6.9V77a6.92,6.92,0,0,0-6.9-6.91H291.1V66.64h10.37A10.38,10.38,0,0,1,311.83,77V277.35A10.37,10.37,0,0,1,301.47,287.71Z"/><path class="cls-4" d="M195.19,213.19h-44.9a1.62,1.62,0,1,1,0-3.23h44.9a1.62,1.62,0,1,1,0,3.23Z"/><path class="cls-4" d="M210.46,251.37h-71a1.62,1.62,0,0,1,0-3.24h71a1.62,1.62,0,1,1,0,3.24Z"/><path class="cls-4" d="M210.46,231.37h-71a1.62,1.62,0,0,1,0-3.24h71a1.62,1.62,0,1,1,0,3.24Z"/></svg>