<svg id="Layer_1" data-name="Layer 1" xmlns="http://www.w3.org/2000/svg" viewBox="0 0 423.43 402.92"><defs><style>.cls-1{fill:#f8a756;}.cls-2{fill:#6d6d6d;}.cls-3{fill:#1db954;}</style></defs><title>icons_swaped</title><path class="cls-1" d="M138.31,318.3l6.08-15.84h2.26l6.49,15.84h-2.39l-1.85-4.8h-6.62l-1.74,4.8Zm4.57-6.5h5.37l-1.65-4.39c-.51-1.33-.88-2.43-1.13-3.29a19.55,19.55,0,0,1-.85,3Z"/><path class="cls-1" d="M154.56,318.3V306.82h1.75v1.64a4.15,4.15,0,0,1,3.66-1.89,4.78,4.78,0,0,1,1.91.37,3,3,0,0,1,1.3,1,3.62,3.62,0,0,1,.6,1.43,11.29,11.29,0,0,1,.11,1.89v7.06H162v-7a5.31,5.31,0,0,0-.23-1.78,1.89,1.89,0,0,0-.81-.94,2.56,2.56,0,0,0-1.35-.35,3.14,3.14,0,0,0-2.15.79,3.89,3.89,0,0,0-.9,3v6.27Z"/><path class="cls-1" d="M166.87,318.3V306.82h1.76v1.64a4.12,4.12,0,0,1,3.65-1.89,4.78,4.78,0,0,1,1.91.37,3,3,0,0,1,1.3,1,3.62,3.62,0,0,1,.6,1.43,10.28,10.28,0,0,1,.11,1.89v7.06h-1.94v-7a5.31,5.31,0,0,0-.23-1.78,1.89,1.89,0,0,0-.81-.94,2.56,2.56,0,0,0-1.35-.35,3.14,3.14,0,0,0-2.15.79,3.89,3.89,0,0,0-.9,3v6.27Z"/><path class="cls-1" d="M186.71,318.3v-1.68a4.23,4.23,0,0,1-3.65,1.94,4.6,4.6,0,0,1-1.89-.39,3.1,3.1,0,0,1-1.31-1,3.73,3.73,0,0,1-.6-1.45,9.77,9.77,0,0,1-.12-1.81v-7.12h2v6.37a11.14,11.14,0,0,0,.12,2.05,2,2,0,0,0,.77,1.21,2.44,2.44,0,0,0,1.47.44,3.22,3.22,0,0,0,1.65-.45,2.5,2.5,0,0,0,1.08-1.22,6.24,6.24,0,0,0,.32-2.25v-6.15h1.95V318.3Z"/><path class="cls-1" d="M199,316.89a7.16,7.16,0,0,1-2.08,1.29,5.81,5.81,0,0,1-2.14.38,4.21,4.21,0,0,1-2.91-.92,3.28,3.28,0,0,1-.63-3.9,3.1,3.1,0,0,1,1-1.12,4.71,4.71,0,0,1,1.4-.64,13.77,13.77,0,0,1,1.73-.29,17.93,17.93,0,0,0,3.47-.67c0-.27,0-.44,0-.51a2.16,2.16,0,0,0-.55-1.68,3.29,3.29,0,0,0-2.21-.65,3.43,3.43,0,0,0-2,.48,2.9,2.9,0,0,0-1,1.7l-1.9-.26a4.71,4.71,0,0,1,.85-2,3.77,3.77,0,0,1,1.72-1.16,7.7,7.7,0,0,1,2.61-.4,7,7,0,0,1,2.39.34,3.16,3.16,0,0,1,1.35.87,3.08,3.08,0,0,1,.6,1.33,10.2,10.2,0,0,1,.1,1.79v2.59a28.35,28.35,0,0,0,.12,3.43,4.65,4.65,0,0,0,.49,1.38h-2A4.16,4.16,0,0,1,199,316.89Zm-.16-4.35a14.42,14.42,0,0,1-3.18.74,6.82,6.82,0,0,0-1.69.39,1.65,1.65,0,0,0-1,1.55,1.68,1.68,0,0,0,.59,1.3,2.51,2.51,0,0,0,1.72.52,4.09,4.09,0,0,0,2-.49,3.05,3.05,0,0,0,1.29-1.35,4.69,4.69,0,0,0,.31-1.94Z"/><path class="cls-1" d="M203.76,318.3V302.46h2V318.3Z"/><path class="cls-1" d="M215.15,318.3V302.46h7a9.23,9.23,0,0,1,3.22.43,3.51,3.51,0,0,1,1.76,1.5,4.5,4.5,0,0,1,.66,2.39,4,4,0,0,1-1.09,2.84,5.48,5.48,0,0,1-3.38,1.47,5.51,5.51,0,0,1,1.27.79,11.45,11.45,0,0,1,1.74,2.11l2.76,4.31h-2.64l-2.1-3.29c-.61-.95-1.12-1.68-1.51-2.19a5,5,0,0,0-1.07-1.06,3.18,3.18,0,0,0-1-.42,6.52,6.52,0,0,0-1.17-.07h-2.43v7Zm2.1-8.85h4.51a6.68,6.68,0,0,0,2.24-.3,2.39,2.39,0,0,0,1.24-.95,2.56,2.56,0,0,0,.42-1.42,2.36,2.36,0,0,0-.82-1.85,3.82,3.82,0,0,0-2.58-.72h-5Z"/><path class="cls-1" d="M238.71,314.61l2,.25a4.86,4.86,0,0,1-1.76,2.73,6,6,0,0,1-7.28-.58,6.06,6.06,0,0,1-1.47-4.35,6.33,6.33,0,0,1,1.49-4.5,5.05,5.05,0,0,1,3.87-1.59,4.92,4.92,0,0,1,3.76,1.56,6.26,6.26,0,0,1,1.46,4.41c0,.12,0,.29,0,.52h-8.56a4.42,4.42,0,0,0,1.07,2.9,3.18,3.18,0,0,0,2.4,1,2.92,2.92,0,0,0,1.82-.56A3.63,3.63,0,0,0,238.71,314.61Zm-6.38-3.15h6.4a3.87,3.87,0,0,0-.73-2.17,3,3,0,0,0-2.41-1.13,3.07,3.07,0,0,0-2.25.9A3.53,3.53,0,0,0,232.33,311.46Z"/><path class="cls-1" d="M246.35,318.3,242,306.82h2l2.47,6.88c.26.74.51,1.51.73,2.31.17-.6.41-1.33.72-2.18l2.55-7h2l-4.34,11.48Z"/><path class="cls-1" d="M262.09,314.61l2,.25a4.91,4.91,0,0,1-1.76,2.73,6,6,0,0,1-7.28-.58,6.06,6.06,0,0,1-1.48-4.35,6.34,6.34,0,0,1,1.5-4.5,5,5,0,0,1,3.86-1.59,4.94,4.94,0,0,1,3.77,1.56,6.25,6.25,0,0,1,1.45,4.41c0,.12,0,.29,0,.52h-8.56a4.47,4.47,0,0,0,1.07,2.9,3.18,3.18,0,0,0,2.4,1,2.93,2.93,0,0,0,1.83-.56A3.76,3.76,0,0,0,262.09,314.61Zm-6.39-3.15h6.41a3.94,3.94,0,0,0-.73-2.17,3,3,0,0,0-2.41-1.13,3.09,3.09,0,0,0-2.26.9A3.58,3.58,0,0,0,255.7,311.46Z"/><path class="cls-1" d="M266.54,318.3V306.82h1.75v1.64a4.14,4.14,0,0,1,3.66-1.89,4.74,4.74,0,0,1,1.9.37,3,3,0,0,1,1.31,1,3.77,3.77,0,0,1,.6,1.43,11.29,11.29,0,0,1,.11,1.89v7.06h-1.95v-7a5.36,5.36,0,0,0-.22-1.78,1.89,1.89,0,0,0-.81-.94,2.58,2.58,0,0,0-1.35-.35,3.14,3.14,0,0,0-2.15.79,3.89,3.89,0,0,0-.9,3v6.27Z"/><path class="cls-1" d="M286.37,318.3v-1.68a4.2,4.2,0,0,1-3.64,1.94,4.57,4.57,0,0,1-1.89-.39,3.1,3.1,0,0,1-1.31-1,3.59,3.59,0,0,1-.6-1.45,9.77,9.77,0,0,1-.12-1.81v-7.12h1.95v6.37a11.44,11.44,0,0,0,.11,2.05,2.08,2.08,0,0,0,.78,1.21,2.44,2.44,0,0,0,1.47.44,3.16,3.16,0,0,0,1.64-.45,2.47,2.47,0,0,0,1.09-1.22,6.24,6.24,0,0,0,.32-2.25v-6.15h1.94V318.3Z"/><path class="cls-1" d="M299,314.61l2,.25a4.91,4.91,0,0,1-1.76,2.73A6,6,0,0,1,292,317a6.06,6.06,0,0,1-1.48-4.35,6.34,6.34,0,0,1,1.5-4.5,5.05,5.05,0,0,1,3.87-1.59,4.93,4.93,0,0,1,3.76,1.56,6.26,6.26,0,0,1,1.46,4.41c0,.12,0,.29,0,.52h-8.56a4.47,4.47,0,0,0,1.07,2.9,3.21,3.21,0,0,0,2.4,1,2.93,2.93,0,0,0,1.83-.56A3.76,3.76,0,0,0,299,314.61Zm-6.39-3.15H299a3.87,3.87,0,0,0-.73-2.17,3,3,0,0,0-2.41-1.13,3.09,3.09,0,0,0-2.26.9A3.58,3.58,0,0,0,292.63,311.46Z"/><path class="cls-2" d="M139.5,345a9.31,9.31,0,0,1,2.28-6.66,7.78,7.78,0,0,1,5.9-2.4,8.13,8.13,0,0,1,4.26,1.13,7.28,7.28,0,0,1,2.89,3.15,10.14,10.14,0,0,1,1,4.58,10,10,0,0,1-1.05,4.65,7.21,7.21,0,0,1-3,3.11,8.5,8.5,0,0,1-4.15,1.05,8.13,8.13,0,0,1-4.31-1.16,7.63,7.63,0,0,1-2.88-3.18A9.71,9.71,0,0,1,139.5,345Zm2.33,0a6.82,6.82,0,0,0,1.66,4.86,5.78,5.78,0,0,0,8.36,0,7.23,7.23,0,0,0,1.65-5.09,8.76,8.76,0,0,0-.7-3.64,5.38,5.38,0,0,0-2.07-2.41,5.58,5.58,0,0,0-3-.86,5.77,5.77,0,0,0-4.13,1.65C142.4,340.66,141.83,342.49,141.83,345.07Z"/><path class="cls-2" d="M161.91,353.35,157.21,341h2.21l2.66,7.41c.28.8.55,1.63.79,2.49.18-.65.44-1.44.78-2.35L166.4,341h2.15l-4.68,12.37Z"/><path class="cls-2" d="M178.88,349.37l2.17.26a5.35,5.35,0,0,1-1.9,2.95,5.73,5.73,0,0,1-3.55,1.05,5.66,5.66,0,0,1-4.3-1.67,6.55,6.55,0,0,1-1.59-4.69,6.81,6.81,0,0,1,1.61-4.85,5.43,5.43,0,0,1,4.17-1.72,5.28,5.28,0,0,1,4,1.69,6.69,6.69,0,0,1,1.57,4.75c0,.12,0,.31,0,.56h-9.22a4.71,4.71,0,0,0,1.15,3.12,3.44,3.44,0,0,0,2.59,1.09,3.22,3.22,0,0,0,2-.61A4,4,0,0,0,178.88,349.37ZM172,346h6.91a4.21,4.21,0,0,0-.79-2.35,3.22,3.22,0,0,0-2.6-1.21,3.33,3.33,0,0,0-2.43,1A3.81,3.81,0,0,0,172,346Z"/><path class="cls-2" d="M183.65,353.35V341h1.89v1.87a5,5,0,0,1,1.34-1.73,2.29,2.29,0,0,1,1.34-.42,4.09,4.09,0,0,1,2.16.67l-.72,1.95a3.07,3.07,0,0,0-1.54-.46,2,2,0,0,0-1.24.42,2.28,2.28,0,0,0-.78,1.15,8.22,8.22,0,0,0-.35,2.44v6.48Z"/><path class="cls-2" d="M202.62,355.81v-2.1a7.79,7.79,0,0,1-2.55-.7,4.52,4.52,0,0,1-1.71-1.64,5.94,5.94,0,0,1-.83-2.76l2.11-.4a5.25,5.25,0,0,0,.86,2.48,3,3,0,0,0,2.12,1.25v-6.68a8.53,8.53,0,0,1-2.64-1,3.92,3.92,0,0,1-1.55-1.55,4.62,4.62,0,0,1-.54-2.25,4.57,4.57,0,0,1,1.59-3.62,5.48,5.48,0,0,1,3.14-1.14v-1h1.24v1a5.1,5.1,0,0,1,2.9,1.07,4.72,4.72,0,0,1,1.65,3.13l-2.16.33a3.66,3.66,0,0,0-.78-1.89,2.85,2.85,0,0,0-1.61-.87v6a18.11,18.11,0,0,1,2.1.61,5.24,5.24,0,0,1,1.59,1.05,4.19,4.19,0,0,1,.95,1.47,5.11,5.11,0,0,1-4.64,7v2.12Zm0-18.36a3.11,3.11,0,0,0-1.92,1,2.9,2.9,0,0,0-.11,3.67,4.11,4.11,0,0,0,2,1.16Zm1.24,14.49a3.09,3.09,0,0,0,2-1.06,3.3,3.3,0,0,0,.8-2.25,2.78,2.78,0,0,0-.57-1.83,4.74,4.74,0,0,0-2.25-1.24Z"/><path class="cls-2" d="M218.84,353.35h-2.09V340a11,11,0,0,1-2,1.44,14.24,14.24,0,0,1-2.21,1.08v-2a12.6,12.6,0,0,0,3.08-2,7.81,7.81,0,0,0,1.86-2.28h1.35Z"/><path class="cls-2" d="M227.44,344.09a4,4,0,0,1-1.93-1.37,3.55,3.55,0,0,1-.63-2.12,4.12,4.12,0,0,1,1.34-3.13,5.63,5.63,0,0,1,7.16,0,4.21,4.21,0,0,1,1.37,3.16,3.48,3.48,0,0,1-.63,2.07,3.87,3.87,0,0,1-1.89,1.36,4.37,4.37,0,0,1,3.22,4.38,4.91,4.91,0,0,1-1.55,3.68,5.68,5.68,0,0,1-4.08,1.49,5.61,5.61,0,0,1-4.08-1.5,5,5,0,0,1-1.55-3.73,4.47,4.47,0,0,1,.85-2.79A4.19,4.19,0,0,1,227.44,344.09Zm-1.09,4.33a3.85,3.85,0,0,0,.42,1.74,3,3,0,0,0,1.27,1.3,3.76,3.76,0,0,0,1.8.46,3.4,3.4,0,0,0,2.48-1,3.27,3.27,0,0,0,1-2.46,3.32,3.32,0,0,0-1-2.5,3.45,3.45,0,0,0-2.52-1,3.33,3.33,0,0,0-3.42,3.42Zm.67-7.89a2.65,2.65,0,0,0,.78,2,2.74,2.74,0,0,0,2,.77,2.71,2.71,0,0,0,2-.76,2.54,2.54,0,0,0,.77-1.87,2.62,2.62,0,0,0-.8-1.94,2.72,2.72,0,0,0-2-.79,2.78,2.78,0,0,0-2,.77A2.51,2.51,0,0,0,227,340.53Z"/><path class="cls-2" d="M237.48,344.93a15.5,15.5,0,0,1,.63-4.88A6,6,0,0,1,240,337.2a4.72,4.72,0,0,1,3.09-1,5.08,5.08,0,0,1,2.42.55,4.59,4.59,0,0,1,1.71,1.6,8.59,8.59,0,0,1,1.06,2.54,16.72,16.72,0,0,1,.38,4,15.75,15.75,0,0,1-.61,4.85,6.11,6.11,0,0,1-1.85,2.85,5.2,5.2,0,0,1-7-.76C238.05,350.45,237.48,348.13,237.48,344.93Zm2.16,0q0,4.2,1,5.6a2.93,2.93,0,0,0,2.43,1.39,2.89,2.89,0,0,0,2.43-1.4c.66-.93,1-2.8,1-5.59s-.33-4.68-1-5.61a2.91,2.91,0,0,0-2.45-1.38,2.69,2.69,0,0,0-2.31,1.22Q239.64,340.72,239.64,344.93Z"/><path class="cls-2" d="M251.89,353.35V351h2.38v2.39a4.26,4.26,0,0,1-.46,2.13,3.08,3.08,0,0,1-1.48,1.25l-.58-.9a2,2,0,0,0,1-.85,3.62,3.62,0,0,0,.35-1.63Z"/><path class="cls-2" d="M257.39,344.93a15.53,15.53,0,0,1,.62-4.88,6,6,0,0,1,1.85-2.85,4.73,4.73,0,0,1,3.1-1,5,5,0,0,1,2.41.55,4.59,4.59,0,0,1,1.71,1.6,8.59,8.59,0,0,1,1.06,2.54,16.72,16.72,0,0,1,.38,4,15.75,15.75,0,0,1-.61,4.85,6,6,0,0,1-1.85,2.85,5.2,5.2,0,0,1-7-.76C258,350.45,257.39,348.13,257.39,344.93Zm2.15,0q0,4.2,1,5.6a2.81,2.81,0,0,0,4.85,0c.66-.93,1-2.8,1-5.59s-.33-4.68-1-5.61a2.91,2.91,0,0,0-2.45-1.38,2.69,2.69,0,0,0-2.31,1.22Q259.54,340.72,259.54,344.93Z"/><path class="cls-2" d="M270.66,344.93a15.53,15.53,0,0,1,.62-4.88,6.11,6.11,0,0,1,1.85-2.85,4.73,4.73,0,0,1,3.1-1,5,5,0,0,1,2.41.55,4.59,4.59,0,0,1,1.71,1.6,8.59,8.59,0,0,1,1.06,2.54,16.64,16.64,0,0,1,.39,4,15.71,15.71,0,0,1-.62,4.85,6,6,0,0,1-1.85,2.85,5.19,5.19,0,0,1-7-.76C271.22,350.45,270.66,348.13,270.66,344.93Zm2.15,0q0,4.2,1,5.6a2.81,2.81,0,0,0,4.86,0c.65-.93,1-2.8,1-5.59s-.33-4.68-1-5.61a2.94,2.94,0,0,0-2.46-1.38,2.66,2.66,0,0,0-2.3,1.22Q272.81,340.72,272.81,344.93Z"/><path class="cls-2" d="M283.93,344.93a15.83,15.83,0,0,1,.62-4.88,6.11,6.11,0,0,1,1.85-2.85,4.73,4.73,0,0,1,3.1-1,5,5,0,0,1,2.41.55,4.59,4.59,0,0,1,1.71,1.6,8.34,8.34,0,0,1,1.06,2.54,16.64,16.64,0,0,1,.39,4,15.71,15.71,0,0,1-.62,4.85,6,6,0,0,1-1.85,2.85,5.19,5.19,0,0,1-7-.76C284.49,350.45,283.93,348.13,283.93,344.93Zm2.15,0q0,4.2,1,5.6a2.81,2.81,0,0,0,4.86,0c.65-.93,1-2.8,1-5.59s-.33-4.68-1-5.61a2.94,2.94,0,0,0-2.46-1.38,2.66,2.66,0,0,0-2.3,1.22Q286.08,340.72,286.08,344.93Z"/><path class="cls-3" d="M138.16,259.42H79.94a4.13,4.13,0,0,1-4.13-4.13V178a4.13,4.13,0,0,1,4.13-4.13h58.4a1.46,1.46,0,0,1,0,2.92H79.94A1.21,1.21,0,0,0,78.73,178v77.29a1.21,1.21,0,0,0,1.21,1.2h58.22a1.47,1.47,0,0,1,0,2.93Z"/><path class="cls-3" d="M197,271.54H138.34a1.46,1.46,0,0,1-1.46-1.46V175.33a1.46,1.46,0,0,1,2.92,0v93.29h55.75V258a1.47,1.47,0,0,1,1.47-1.47h59.82a1,1,0,0,0,1-1V177.78a1,1,0,0,0-1-1H197a1.46,1.46,0,1,1,0-2.92h59.82a3.92,3.92,0,0,1,3.91,3.91v77.73a3.92,3.92,0,0,1-3.91,3.91H198.48v10.66A1.46,1.46,0,0,1,197,271.54Z"/><path class="cls-3" d="M197,259a1.47,1.47,0,0,1-1.47-1.46V175.93a1.47,1.47,0,0,1,2.93,0v81.63A1.47,1.47,0,0,1,197,259Z"/><path class="cls-3" d="M137.14,196.75H78.46a1.46,1.46,0,1,1,0-2.92h58.68a1.46,1.46,0,1,1,0,2.92Z"/><path class="cls-3" d="M136.56,217.51H77.87a1.47,1.47,0,0,1,0-2.93h58.69a1.47,1.47,0,0,1,0,2.93Z"/><path class="cls-3" d="M136.56,237.86H77.87a1.46,1.46,0,1,1,0-2.92h58.69a1.46,1.46,0,1,1,0,2.92Z"/><path class="cls-3" d="M258.09,196.75H198.21a1.46,1.46,0,0,1,0-2.92h59.88a1.46,1.46,0,0,1,0,2.92Z"/><path class="cls-3" d="M257.49,217.51H197.62a1.47,1.47,0,1,1,0-2.93h59.87a1.47,1.47,0,0,1,0,2.93Z"/><path class="cls-3" d="M257.49,237.86H197.62a1.46,1.46,0,1,1,0-2.92h59.87a1.46,1.46,0,0,1,0,2.92Z"/><path class="cls-1" d="M176,205.86c-.89-1.87-4-3.69-7.6-3.69-3.31,0-6.53,1.26-6.58,4s3.45,3.41,6.91,3.69c6.94.74,14.45,2.7,14.45,11,0,6.06-3.92,9.75-11.24,10.49v4.43H165.5v-4.38C160,230.85,155,227.73,153,223l6.06-2.94c1.35,2.94,5.45,5.09,9.28,5.09,4.24,0,7.46-.61,7.46-4.25,0-2.94-3.64-4.15-7.69-4.48-6.86-.65-13.57-2-13.53-10.21,0-6.15,5.37-9.14,11.1-9.6v-3.87h6.16v3.87c4.05.46,7.74,2.19,9.83,6.62Z"/><path class="cls-1" d="M260.05,181a9.28,9.28,0,0,0,3.91-8c0-8.3-7.51-10.25-14.46-11-3.45-.28-6.9-.89-6.9-3.68s3.26-4,6.57-4c3.64,0,6.72,1.82,7.61,3.69l5.73-2.66c-2.1-4.43-5.78-6.15-9.84-6.62v-3.87h-6.15v3.87c-5.74.47-11.05,3.45-11.1,9.61,0,5.12,2.57,7.57,6.2,8.85.6.32,15,2.9,15,5.83a4.35,4.35,0,0,1-.13,1.07"/><path class="cls-3" d="M197,176.79a1.46,1.46,0,0,1-1.47-1.46V162.52H139.8v12.06a1.46,1.46,0,1,1-2.92,0V161.06a1.46,1.46,0,0,1,1.46-1.46H197a1.46,1.46,0,0,1,1.46,1.46v14.27A1.46,1.46,0,0,1,197,176.79Z"/><path class="cls-3" d="M220.37,176.23a1.46,1.46,0,0,1-1.46-1.46V116.58a1.46,1.46,0,0,1,2.92,0v58.19A1.46,1.46,0,0,1,220.37,176.23Z"/><path class="cls-3" d="M279,243.93H259.77a1.47,1.47,0,0,1,0-2.93h17.81V103.78H221.83v12a1.46,1.46,0,1,1-2.92,0V102.32a1.46,1.46,0,0,1,1.46-1.47H279a1.46,1.46,0,0,1,1.46,1.47V242.47A1.46,1.46,0,0,1,279,243.93Z"/><path class="cls-3" d="M156.2,161.83a1.47,1.47,0,0,1-1.47-1.47v-46.1a6.41,6.41,0,0,1,6.41-6.4h59.23a1.46,1.46,0,1,1,0,2.92H161.14a3.48,3.48,0,0,0-3.48,3.48v46.1A1.47,1.47,0,0,1,156.2,161.83Z"/><path class="cls-3" d="M220.37,132.49H157.54a1.47,1.47,0,0,1,0-2.93h62.83a1.47,1.47,0,0,1,0,2.93Z"/><path class="cls-3" d="M220.37,154H157.54a1.46,1.46,0,0,1,0-2.92h62.83a1.46,1.46,0,1,1,0,2.92Z"/><path class="cls-3" d="M340.1,237.86H279.88a1.46,1.46,0,1,1,0-2.92H340.1a1.79,1.79,0,0,0,1.79-1.78V112.57a1.79,1.79,0,0,0-1.79-1.79H279a1.46,1.46,0,0,1,0-2.92H340.1a4.71,4.71,0,0,1,4.71,4.71V233.16A4.71,4.71,0,0,1,340.1,237.86Z"/><path class="cls-3" d="M343.35,174.32H279a1.46,1.46,0,1,1,0-2.92h64.31a1.46,1.46,0,0,1,0,2.92Z"/><path class="cls-3" d="M343.35,156.14H279a1.47,1.47,0,0,1,0-2.93h64.31a1.47,1.47,0,0,1,0,2.93Z"/><path class="cls-3" d="M343.35,132.89H279a1.47,1.47,0,0,1,0-2.93h64.31a1.47,1.47,0,0,1,0,2.93Z"/><path class="cls-3" d="M343.35,195.65H279a1.46,1.46,0,0,1,0-2.92h64.31a1.46,1.46,0,0,1,0,2.92Z"/><path class="cls-3" d="M343.35,216.41H279a1.46,1.46,0,0,1,0-2.92h64.31a1.46,1.46,0,0,1,0,2.92Z"/></svg>