<svg id="Layer_1" data-name="Layer 1" xmlns="http://www.w3.org/2000/svg" viewBox="0 0 423.43 402.92"><defs><style>.cls-1{fill:#f8a756;}.cls-2{fill:#6d6d6d;}.cls-3{fill:#1db954;}</style></defs><title>icons_swaped</title><path class="cls-1" d="M138.35,318.3v-14h-5.22v-1.87h12.56v1.87h-5.24v14Z"/><path class="cls-1" d="M146.78,304.7v-2.24h1.95v2.24Zm0,13.6V306.83h1.95V318.3Z"/><path class="cls-1" d="M151.69,318.3V306.83h1.74v1.61a4,4,0,0,1,1.44-1.36,4.06,4.06,0,0,1,2-.51,3.71,3.71,0,0,1,2.09.53,2.75,2.75,0,0,1,1.15,1.48,4.13,4.13,0,0,1,3.55-2,3.47,3.47,0,0,1,2.62.94,4,4,0,0,1,.92,2.91v7.88h-1.93v-7.23a5.53,5.53,0,0,0-.19-1.68,1.66,1.66,0,0,0-.69-.82,2.12,2.12,0,0,0-1.16-.32,2.7,2.7,0,0,0-2,.81,3.5,3.5,0,0,0-.81,2.58v6.66h-1.94v-7.45a3.26,3.26,0,0,0-.48-2,1.79,1.79,0,0,0-1.55-.65,2.88,2.88,0,0,0-1.52.43,2.43,2.43,0,0,0-1,1.27,7.07,7.07,0,0,0-.31,2.4v5.95Z"/><path class="cls-1" d="M178,314.61l2,.25a4.93,4.93,0,0,1-1.77,2.73A6,6,0,0,1,171,317a6.06,6.06,0,0,1-1.47-4.35,6.34,6.34,0,0,1,1.49-4.49,5.05,5.05,0,0,1,3.87-1.6,4.92,4.92,0,0,1,3.76,1.56,6.26,6.26,0,0,1,1.46,4.41c0,.12,0,.29,0,.52h-8.56a4.42,4.42,0,0,0,1.07,2.9,3.18,3.18,0,0,0,2.4,1,3,3,0,0,0,1.83-.56A3.76,3.76,0,0,0,178,314.61Zm-6.39-3.15H178a3.86,3.86,0,0,0-.74-2.17,3,3,0,0,0-2.41-1.12,3.08,3.08,0,0,0-2.25.89A3.53,3.53,0,0,0,171.6,311.46Z"/><path class="cls-1" d="M188.6,304.7v-2.24h1.94v2.24Zm0,13.6V306.83h1.94V318.3Z"/><path class="cls-1" d="M193.51,318.3V306.83h1.75v1.63a4.12,4.12,0,0,1,3.65-1.89,4.78,4.78,0,0,1,1.91.37,3,3,0,0,1,1.3,1,3.62,3.62,0,0,1,.6,1.43,10.41,10.41,0,0,1,.11,1.9v7.05h-1.94v-7a5.31,5.31,0,0,0-.23-1.78,1.89,1.89,0,0,0-.81-.94,2.56,2.56,0,0,0-1.35-.35,3.19,3.19,0,0,0-2.15.79,3.91,3.91,0,0,0-.9,3v6.27Z"/><path class="cls-1" d="M212.13,318.3V302.46h5.94a7.35,7.35,0,0,1,2.91.48,3.71,3.71,0,0,1,1.72,1.48,3.85,3.85,0,0,1,.62,2.09,3.59,3.59,0,0,1-.55,1.92,3.94,3.94,0,0,1-1.66,1.44,4.13,4.13,0,0,1,2.21,1.44,3.89,3.89,0,0,1,.77,2.4,4.69,4.69,0,0,1-.47,2.07,3.89,3.89,0,0,1-1.16,1.47,4.82,4.82,0,0,1-1.74.79,10.31,10.31,0,0,1-2.55.26Zm2.09-9.18h3.43a7.25,7.25,0,0,0,2-.19,2.16,2.16,0,0,0,1.2-.79,2.24,2.24,0,0,0,.41-1.38,2.59,2.59,0,0,0-.38-1.39,1.91,1.91,0,0,0-1.08-.82,9,9,0,0,0-2.41-.22h-3.17Zm0,7.31h3.95a9.42,9.42,0,0,0,1.43-.07,3.59,3.59,0,0,0,1.21-.43,2.29,2.29,0,0,0,.79-.89,2.73,2.73,0,0,0,.32-1.33,2.59,2.59,0,0,0-.46-1.54,2.37,2.37,0,0,0-1.26-.92,7.62,7.62,0,0,0-2.31-.26h-3.67Z"/><path class="cls-1" d="M234.25,318.3v-1.68a4.21,4.21,0,0,1-3.64,1.94,4.65,4.65,0,0,1-1.9-.39,3.17,3.17,0,0,1-1.31-1,3.89,3.89,0,0,1-.6-1.45,9.69,9.69,0,0,1-.12-1.81v-7.11h1.95v6.36a11.14,11.14,0,0,0,.12,2.05,2,2,0,0,0,.78,1.21,2.4,2.4,0,0,0,1.47.44,3.19,3.19,0,0,0,1.64-.45,2.57,2.57,0,0,0,1.09-1.22A6.25,6.25,0,0,0,234,313v-6.15h2V318.3Z"/><path class="cls-1" d="M238.26,314.88l1.92-.31a2.67,2.67,0,0,0,.91,1.78,3.14,3.14,0,0,0,2.07.61,3,3,0,0,0,2-.54,1.62,1.62,0,0,0,.65-1.28,1.18,1.18,0,0,0-.57-1,8.82,8.82,0,0,0-2-.66,18.81,18.81,0,0,1-3-.93,2.87,2.87,0,0,1-1.68-2.64,3,3,0,0,1,.35-1.42,3.22,3.22,0,0,1,1-1.08,3.77,3.77,0,0,1,1.24-.57,5.69,5.69,0,0,1,1.68-.23,6.62,6.62,0,0,1,2.37.39,3.22,3.22,0,0,1,1.51,1.05,4.09,4.09,0,0,1,.67,1.78l-1.9.26a2.13,2.13,0,0,0-.75-1.39,2.77,2.77,0,0,0-1.76-.49,3.14,3.14,0,0,0-1.91.44,1.3,1.3,0,0,0-.58,1,1.07,1.07,0,0,0,.24.68,1.75,1.75,0,0,0,.75.52c.19.07.77.23,1.72.49a23.7,23.7,0,0,1,2.88.91,2.89,2.89,0,0,1,1.28,1,2.83,2.83,0,0,1,.46,1.66,3.24,3.24,0,0,1-.57,1.83,3.55,3.55,0,0,1-1.63,1.33,5.87,5.87,0,0,1-2.42.47,5.39,5.39,0,0,1-3.41-.93A4.29,4.29,0,0,1,238.26,314.88Z"/><path class="cls-1" d="M250.11,304.7v-2.24h1.95v2.24Zm0,13.6V306.83h1.95V318.3Z"/><path class="cls-1" d="M255,318.3V306.83h1.75v1.63a4.14,4.14,0,0,1,3.66-1.89,4.74,4.74,0,0,1,1.9.37,3,3,0,0,1,1.31,1,3.77,3.77,0,0,1,.6,1.43,11.43,11.43,0,0,1,.11,1.9v7.05h-2v-7a5.36,5.36,0,0,0-.22-1.78,1.94,1.94,0,0,0-.81-.94,2.58,2.58,0,0,0-1.35-.35,3.19,3.19,0,0,0-2.15.79,3.91,3.91,0,0,0-.9,3v6.27Z"/><path class="cls-1" d="M275.19,314.61l2,.25a4.91,4.91,0,0,1-1.76,2.73,5.29,5.29,0,0,1-3.29,1,5.21,5.21,0,0,1-4-1.55,6.06,6.06,0,0,1-1.48-4.35,6.3,6.3,0,0,1,1.5-4.49,5,5,0,0,1,3.86-1.6,4.94,4.94,0,0,1,3.77,1.56,6.25,6.25,0,0,1,1.45,4.41c0,.12,0,.29,0,.52h-8.56a4.47,4.47,0,0,0,1.07,2.9,3.18,3.18,0,0,0,2.4,1,2.93,2.93,0,0,0,1.83-.56A3.76,3.76,0,0,0,275.19,314.61Zm-6.39-3.15h6.41a3.94,3.94,0,0,0-.73-2.17,3,3,0,0,0-2.41-1.12,3.08,3.08,0,0,0-2.26.89A3.58,3.58,0,0,0,268.8,311.46Z"/><path class="cls-1" d="M278.86,314.88l1.93-.31a2.71,2.71,0,0,0,.9,1.78,3.14,3.14,0,0,0,2.07.61,3.07,3.07,0,0,0,2-.54,1.65,1.65,0,0,0,.65-1.28,1.17,1.17,0,0,0-.58-1,8.67,8.67,0,0,0-2-.66,18.46,18.46,0,0,1-3-.93,3,3,0,0,1-1.26-1.1,2.9,2.9,0,0,1-.42-1.54,3,3,0,0,1,1.31-2.5,3.71,3.71,0,0,1,1.23-.57,5.78,5.78,0,0,1,1.68-.23,6.71,6.71,0,0,1,2.38.39,3.14,3.14,0,0,1,1.5,1.05,4,4,0,0,1,.67,1.78l-1.9.26a2.08,2.08,0,0,0-.75-1.39,2.75,2.75,0,0,0-1.76-.49,3.14,3.14,0,0,0-1.91.44,1.28,1.28,0,0,0-.57,1,1.07,1.07,0,0,0,.24.68,1.65,1.65,0,0,0,.74.52c.2.07.77.23,1.72.49a22.55,22.55,0,0,1,2.88.91,2.89,2.89,0,0,1,1.28,1,2.83,2.83,0,0,1,.47,1.66,3.24,3.24,0,0,1-.57,1.83,3.63,3.63,0,0,1-1.64,1.33,5.84,5.84,0,0,1-2.42.47,5.39,5.39,0,0,1-3.41-.93A4.33,4.33,0,0,1,278.86,314.88Z"/><path class="cls-1" d="M289.93,314.88l1.92-.31a2.67,2.67,0,0,0,.91,1.78,3.14,3.14,0,0,0,2.07.61,3.09,3.09,0,0,0,2-.54,1.64,1.64,0,0,0,.64-1.28,1.18,1.18,0,0,0-.57-1,8.82,8.82,0,0,0-2-.66,19.18,19.18,0,0,1-3-.93,2.93,2.93,0,0,1-1.25-1.1,3,3,0,0,1-.07-3,3.08,3.08,0,0,1,.95-1.08,3.77,3.77,0,0,1,1.24-.57,5.69,5.69,0,0,1,1.68-.23,6.62,6.62,0,0,1,2.37.39,3.17,3.17,0,0,1,1.51,1.05,4.09,4.09,0,0,1,.67,1.78l-1.9.26a2.13,2.13,0,0,0-.75-1.39,2.77,2.77,0,0,0-1.76-.49,3.14,3.14,0,0,0-1.91.44,1.28,1.28,0,0,0-.57,1,1.06,1.06,0,0,0,.23.68,1.75,1.75,0,0,0,.75.52c.19.07.77.23,1.72.49a23.7,23.7,0,0,1,2.88.91,2.89,2.89,0,0,1,1.28,1,2.83,2.83,0,0,1,.46,1.66,3.31,3.31,0,0,1-.56,1.83,3.63,3.63,0,0,1-1.64,1.33,5.84,5.84,0,0,1-2.42.47,5.39,5.39,0,0,1-3.41-.93A4.33,4.33,0,0,1,289.93,314.88Z"/><path class="cls-2" d="M148.69,341.07a9.28,9.28,0,0,1,2.28-6.66,7.76,7.76,0,0,1,5.9-2.41,8.17,8.17,0,0,1,4.26,1.13,7.48,7.48,0,0,1,2.9,3.15,10.32,10.32,0,0,1,1,4.59,10.07,10.07,0,0,1-1.05,4.65,7.13,7.13,0,0,1-3,3.1,8.46,8.46,0,0,1-4.15,1.06,8,8,0,0,1-4.31-1.17,7.39,7.39,0,0,1-2.88-3.18A9.64,9.64,0,0,1,148.69,341.07Zm2.33,0a6.85,6.85,0,0,0,1.66,4.87,5.81,5.81,0,0,0,8.37,0,7.29,7.29,0,0,0,1.64-5.09,8.72,8.72,0,0,0-.7-3.64,5.5,5.5,0,0,0-2.06-2.42,5.61,5.61,0,0,0-3.05-.85,5.77,5.77,0,0,0-4.13,1.65Q151,337.25,151,341.1Z"/><path class="cls-2" d="M171.11,349.39,166.4,337h2.21l2.66,7.41c.29.8.55,1.63.79,2.5.19-.66.45-1.44.78-2.36l2.75-7.55h2.16l-4.69,12.38Z"/><path class="cls-2" d="M188.07,345.4l2.17.27a5.3,5.3,0,0,1-1.9,2.95,6.42,6.42,0,0,1-7.85-.63,6.51,6.51,0,0,1-1.59-4.69,6.83,6.83,0,0,1,1.61-4.84,5.44,5.44,0,0,1,4.17-1.73,5.32,5.32,0,0,1,4.06,1.69,6.76,6.76,0,0,1,1.57,4.76c0,.12,0,.31,0,.56h-9.23a4.78,4.78,0,0,0,1.15,3.12,3.45,3.45,0,0,0,2.59,1.08,3.24,3.24,0,0,0,2-.6A4.08,4.08,0,0,0,188.07,345.4ZM181.19,342h6.91a4.2,4.2,0,0,0-.8-2.34,3.19,3.19,0,0,0-2.6-1.21,3.32,3.32,0,0,0-2.42,1A3.83,3.83,0,0,0,181.19,342Z"/><path class="cls-2" d="M192.85,349.39V337h1.89v1.88a5.08,5.08,0,0,1,1.33-1.74,2.34,2.34,0,0,1,1.35-.42,4.1,4.1,0,0,1,2.15.68l-.72,1.94a3,3,0,0,0-1.54-.45,2,2,0,0,0-1.23.41,2.2,2.2,0,0,0-.78,1.15,8,8,0,0,0-.35,2.45v6.48Z"/><path class="cls-2" d="M217.89,347.37v2H206.6a3.62,3.62,0,0,1,.24-1.46,7.73,7.73,0,0,1,1.38-2.27,21.74,21.74,0,0,1,2.75-2.59,23.23,23.23,0,0,0,3.76-3.62,4.35,4.35,0,0,0,1-2.52,2.81,2.81,0,0,0-.89-2.1,3.63,3.63,0,0,0-4.75.05,3.43,3.43,0,0,0-.92,2.52l-2.16-.22a5.33,5.33,0,0,1,1.67-3.68,5.7,5.7,0,0,1,3.88-1.26,5.39,5.39,0,0,1,3.89,1.36,4.45,4.45,0,0,1,1.43,3.38,5.27,5.27,0,0,1-.41,2,7.86,7.86,0,0,1-1.4,2.09,33.22,33.22,0,0,1-3.23,3c-1.26,1.06-2.07,1.78-2.42,2.16a6.38,6.38,0,0,0-.89,1.13Z"/><path class="cls-2" d="M227.26,354.15l-.24-2a4.48,4.48,0,0,0,1.2.19,2.36,2.36,0,0,0,1.12-.23,2,2,0,0,0,.69-.66,11.18,11.18,0,0,0,.64-1.56c0-.11.1-.29.19-.51l-4.7-12.4h2.26l2.58,7.17c.33.91.63,1.86.89,2.86a27.06,27.06,0,0,1,.87-2.82L235.4,337h2.1l-4.71,12.59a23.08,23.08,0,0,1-1.18,2.8,4,4,0,0,1-1.28,1.52,3,3,0,0,1-1.72.49A4.16,4.16,0,0,1,227.26,354.15Z"/><path class="cls-2" d="M247.75,345.4l2.17.27a5.3,5.3,0,0,1-1.9,2.95,6.42,6.42,0,0,1-7.85-.63,6.51,6.51,0,0,1-1.59-4.69,6.83,6.83,0,0,1,1.61-4.84,5.44,5.44,0,0,1,4.17-1.73,5.32,5.32,0,0,1,4.06,1.69,6.76,6.76,0,0,1,1.57,4.76c0,.12,0,.31,0,.56h-9.23a4.78,4.78,0,0,0,1.15,3.12,3.45,3.45,0,0,0,2.59,1.08,3.24,3.24,0,0,0,2-.6A4.08,4.08,0,0,0,247.75,345.4ZM240.87,342h6.9a4.12,4.12,0,0,0-.79-2.34,3.2,3.2,0,0,0-2.6-1.21,3.36,3.36,0,0,0-2.43,1A3.82,3.82,0,0,0,240.87,342Z"/><path class="cls-2" d="M260.63,347.86a7.83,7.83,0,0,1-2.25,1.4,6.53,6.53,0,0,1-2.31.41,4.51,4.51,0,0,1-3.13-1,3.29,3.29,0,0,1-1.1-2.55,3.46,3.46,0,0,1,.41-1.66,3.41,3.41,0,0,1,1.09-1.2,5,5,0,0,1,1.51-.69,14.63,14.63,0,0,1,1.86-.31,19.7,19.7,0,0,0,3.74-.73c0-.28,0-.47,0-.54a2.3,2.3,0,0,0-.59-1.81,3.53,3.53,0,0,0-2.39-.71,3.65,3.65,0,0,0-2.18.52,3.19,3.19,0,0,0-1.05,1.83l-2.05-.28a5.18,5.18,0,0,1,.92-2.12,4.08,4.08,0,0,1,1.85-1.25,8.33,8.33,0,0,1,2.81-.44,7.4,7.4,0,0,1,2.58.38,2.94,2.94,0,0,1,2.11,2.36,12,12,0,0,1,.1,1.94v2.79a29.12,29.12,0,0,0,.14,3.7,4.59,4.59,0,0,0,.53,1.49h-2.19A4.41,4.41,0,0,1,260.63,347.86Zm-.18-4.68A15.55,15.55,0,0,1,257,344a7.3,7.3,0,0,0-1.83.42,1.76,1.76,0,0,0-.83.68,1.83,1.83,0,0,0-.29,1,1.78,1.78,0,0,0,.63,1.39,2.72,2.72,0,0,0,1.86.56,4.27,4.27,0,0,0,2.16-.53,3.17,3.17,0,0,0,1.38-1.45,5,5,0,0,0,.34-2.09Z"/><path class="cls-2" d="M265.8,349.39V337h1.89v1.88a5.08,5.08,0,0,1,1.33-1.74,2.34,2.34,0,0,1,1.35-.42,4.1,4.1,0,0,1,2.15.68l-.72,1.94a3,3,0,0,0-1.54-.45,2,2,0,0,0-1.23.41,2.2,2.2,0,0,0-.78,1.15,8,8,0,0,0-.35,2.45v6.48Z"/><path class="cls-2" d="M272.93,345.69l2.07-.32a2.9,2.9,0,0,0,1,1.91,3.39,3.39,0,0,0,2.23.66,3.22,3.22,0,0,0,2.14-.59,1.74,1.74,0,0,0,.7-1.38,1.27,1.27,0,0,0-.62-1.12,9.4,9.4,0,0,0-2.14-.71,20.47,20.47,0,0,1-3.2-1,3.19,3.19,0,0,1-1.35-1.18,3.1,3.1,0,0,1-.46-1.66,3.21,3.21,0,0,1,.38-1.53,3.31,3.31,0,0,1,1-1.17A4.23,4.23,0,0,1,276,337a6.67,6.67,0,0,1,1.82-.25,7.1,7.1,0,0,1,2.55.42,3.46,3.46,0,0,1,1.63,1.14,4.44,4.44,0,0,1,.72,1.91l-2.05.29a2.24,2.24,0,0,0-.81-1.5,3,3,0,0,0-1.89-.53,3.45,3.45,0,0,0-2.07.48,1.37,1.37,0,0,0-.61,1.11,1.16,1.16,0,0,0,.25.74,1.9,1.9,0,0,0,.81.56c.21.07.82.25,1.85.53a24.5,24.5,0,0,1,3.1,1,3.18,3.18,0,0,1,1.39,1.1,3.1,3.1,0,0,1,.5,1.79,3.6,3.6,0,0,1-.61,2,4,4,0,0,1-1.77,1.43,6.4,6.4,0,0,1-2.61.51,5.82,5.82,0,0,1-3.68-1A4.61,4.61,0,0,1,272.93,345.69Z"/><path class="cls-3" d="M217.06,285.07A108.1,108.1,0,1,1,325.17,177,108.23,108.23,0,0,1,217.06,285.07Zm0-212.53A104.43,104.43,0,1,0,321.49,177,104.54,104.54,0,0,0,217.06,72.54Z"/><path class="cls-3" d="M218.43,194a15,15,0,1,1,15-15.05A15.07,15.07,0,0,1,218.43,194Zm0-26.43a11.38,11.38,0,1,0,11.38,11.38A11.39,11.39,0,0,0,218.43,167.54Z"/><path class="cls-3" d="M183.45,217a1.84,1.84,0,0,1-1.24-3.19l27.59-25.26a1.83,1.83,0,0,1,2.48,2.7L184.69,216.5A1.84,1.84,0,0,1,183.45,217Z"/><path class="cls-3" d="M218.43,167.54a1.84,1.84,0,0,1-1.84-1.84V116.14a1.84,1.84,0,0,1,3.67,0V165.7A1.83,1.83,0,0,1,218.43,167.54Z"/><path class="cls-3" d="M217.06,268.27A91.31,91.31,0,1,1,308.37,177,91.41,91.41,0,0,1,217.06,268.27Zm0-178.94A87.64,87.64,0,1,0,304.7,177,87.73,87.73,0,0,0,217.06,89.33Z"/><circle class="cls-1" cx="152" cy="182.07" r="4.65"/><circle class="cls-1" cx="168.37" cy="132.36" r="4.65"/><circle class="cls-1" cx="218.43" cy="106.89" r="4.65"/><circle class="cls-1" cx="270.53" cy="133.57" r="4.65"/><circle class="cls-1" cx="285.99" cy="183.47" r="4.65"/><circle class="cls-1" cx="265.88" cy="228.12" r="4.65"/><circle class="cls-1" cx="218.36" cy="246.31" r="4.65"/><circle class="cls-1" cx="170.15" cy="228.12" r="4.65"/></svg>