<svg id="Layer_1" data-name="Layer 1" xmlns="http://www.w3.org/2000/svg" viewBox="0 0 423.43 402.92"><defs><style>.cls-1{fill:#3a3a3a;}.cls-2{fill:#6d6d6d;}.cls-3{fill:#1db954;}.cls-4{fill:#f8a756;}</style></defs><title>icons_swaped</title><path class="cls-1" d="M145.81,333V319h-5.22v-1.87h12.56V319h-5.24v14Z"/><path class="cls-1" d="M154.24,319.35v-2.24h1.95v2.24Zm0,13.61V321.48h1.95V333Z"/><path class="cls-1" d="M159.15,333V321.48h1.74v1.61a4.18,4.18,0,0,1,1.44-1.36,4.06,4.06,0,0,1,2-.51,3.79,3.79,0,0,1,2.09.53,2.79,2.79,0,0,1,1.15,1.48,4.13,4.13,0,0,1,3.55-2,3.48,3.48,0,0,1,2.62.95,4,4,0,0,1,.92,2.91V333h-1.93v-7.23a5.18,5.18,0,0,0-.19-1.68,1.68,1.68,0,0,0-.69-.83,2.12,2.12,0,0,0-1.16-.31,2.73,2.73,0,0,0-2,.8,3.53,3.53,0,0,0-.8,2.58V333H166V325.5a3.32,3.32,0,0,0-.47-1.94,1.79,1.79,0,0,0-1.56-.65,2.82,2.82,0,0,0-1.52.43,2.5,2.5,0,0,0-1,1.26,7.15,7.15,0,0,0-.31,2.4v6Z"/><path class="cls-1" d="M185.45,329.26l2,.25a4.92,4.92,0,0,1-1.77,2.74,5.32,5.32,0,0,1-3.28,1,5.25,5.25,0,0,1-4-1.55,6.05,6.05,0,0,1-1.48-4.35,6.38,6.38,0,0,1,1.49-4.5,5.05,5.05,0,0,1,3.87-1.6,4.88,4.88,0,0,1,3.76,1.57,6.22,6.22,0,0,1,1.46,4.41c0,.11,0,.29,0,.52H179a4.39,4.39,0,0,0,1.07,2.89,3.19,3.19,0,0,0,2.4,1,3,3,0,0,0,1.83-.56A3.85,3.85,0,0,0,185.45,329.26Zm-6.39-3.14h6.41a3.9,3.9,0,0,0-.74-2.18,3,3,0,0,0-2.41-1.12,3.08,3.08,0,0,0-2.25.9A3.53,3.53,0,0,0,179.06,326.12Z"/><path class="cls-1" d="M200.3,331.22l.28,1.72a7.63,7.63,0,0,1-1.47.17,3.27,3.27,0,0,1-1.65-.34,1.88,1.88,0,0,1-.82-.88,7,7,0,0,1-.23-2.29V323H195v-1.51h1.43v-2.84l1.93-1.17v4h2V323h-2v6.72a3.4,3.4,0,0,0,.1,1.07.81.81,0,0,0,.34.37,1.2,1.2,0,0,0,.66.14A6.36,6.36,0,0,0,200.3,331.22Z"/><path class="cls-1" d="M201.47,327.22a5.87,5.87,0,0,1,1.78-4.72,5.33,5.33,0,0,1,3.61-1.28,5.15,5.15,0,0,1,3.86,1.55,5.88,5.88,0,0,1,1.51,4.29,7.48,7.48,0,0,1-.67,3.48,4.72,4.72,0,0,1-1.93,2,5.73,5.73,0,0,1-2.77.7,5.17,5.17,0,0,1-3.9-1.55A6.17,6.17,0,0,1,201.47,327.22Zm2,0a4.89,4.89,0,0,0,1,3.3,3.21,3.21,0,0,0,4.84,0,5,5,0,0,0,1-3.37,4.71,4.71,0,0,0-1-3.22,3.08,3.08,0,0,0-2.4-1.1,3.13,3.13,0,0,0-2.43,1.09A4.89,4.89,0,0,0,203.47,327.22Z"/><path class="cls-1" d="M221,333V317.11H231.7V319h-8.59v4.91h7.44v1.87h-7.44V333Z"/><path class="cls-1" d="M241.7,333v-1.69a4.2,4.2,0,0,1-3.64,2,4.65,4.65,0,0,1-1.9-.39,3.18,3.18,0,0,1-1.31-1,3.77,3.77,0,0,1-.6-1.44,10,10,0,0,1-.11-1.82v-7.11h1.94v6.37a11.22,11.22,0,0,0,.12,2,2,2,0,0,0,.78,1.2,2.34,2.34,0,0,0,1.47.44,3.19,3.19,0,0,0,1.64-.45,2.53,2.53,0,0,0,1.09-1.22,6.18,6.18,0,0,0,.31-2.24v-6.15h1.95V333Z"/><path class="cls-1" d="M246.49,333V321.48h1.75v1.63a4.12,4.12,0,0,1,3.65-1.89,5,5,0,0,1,1.91.37,3,3,0,0,1,1.3,1,3.9,3.9,0,0,1,.61,1.44,11.6,11.6,0,0,1,.1,1.89V333h-1.94v-7a5.23,5.23,0,0,0-.23-1.78,1.87,1.87,0,0,0-.8-.94,2.53,2.53,0,0,0-1.36-.35,3.11,3.11,0,0,0-2.14.79,3.84,3.84,0,0,0-.91,3V333Z"/><path class="cls-1" d="M266.24,333v-1.45a3.55,3.55,0,0,1-3.21,1.71,4.47,4.47,0,0,1-2.52-.76,4.93,4.93,0,0,1-1.78-2.11,7.37,7.37,0,0,1-.63-3.12,8.18,8.18,0,0,1,.57-3.12,4.44,4.44,0,0,1,1.72-2.14,4.55,4.55,0,0,1,2.56-.75,3.86,3.86,0,0,1,1.85.44,3.72,3.72,0,0,1,1.31,1.14v-5.69h1.94V333Zm-6.14-5.73a5,5,0,0,0,.92,3.3,2.84,2.84,0,0,0,2.2,1.09,2.78,2.78,0,0,0,2.17-1,4.86,4.86,0,0,0,.89-3.19,5.45,5.45,0,0,0-.91-3.46,2.81,2.81,0,0,0-2.24-1.1,2.68,2.68,0,0,0-2.16,1.06A5.24,5.24,0,0,0,260.1,327.23Z"/><path class="cls-1" d="M271.12,319.35v-2.24h1.94v2.24Zm0,13.61V321.48h1.94V333Z"/><path class="cls-1" d="M276,333V321.48h1.75v1.63a4.12,4.12,0,0,1,3.65-1.89,5,5,0,0,1,1.91.37,3,3,0,0,1,1.3,1,3.73,3.73,0,0,1,.6,1.44,10.28,10.28,0,0,1,.11,1.89V333h-1.94v-7a5.23,5.23,0,0,0-.23-1.78,1.87,1.87,0,0,0-.8-.94,2.53,2.53,0,0,0-1.36-.35,3.14,3.14,0,0,0-2.15.79,3.88,3.88,0,0,0-.9,3V333Z"/><path class="cls-1" d="M288,333.91l1.89.28a1.83,1.83,0,0,0,.66,1.28,3.23,3.23,0,0,0,2,.54,3.46,3.46,0,0,0,2.08-.54,2.71,2.71,0,0,0,1-1.52,13,13,0,0,0,.14-2.49,4,4,0,0,1-3.18,1.5,4.31,4.31,0,0,1-3.66-1.71,6.54,6.54,0,0,1-1.3-4.1,7.76,7.76,0,0,1,.59-3,4.74,4.74,0,0,1,1.73-2.14,4.61,4.61,0,0,1,2.65-.76,4.12,4.12,0,0,1,3.35,1.64v-1.38h1.8v9.92a9.44,9.44,0,0,1-.55,3.8,3.94,3.94,0,0,1-1.73,1.77,6,6,0,0,1-2.91.65,5.47,5.47,0,0,1-3.32-.93A3.12,3.12,0,0,1,288,333.91Zm1.61-6.9a5,5,0,0,0,.9,3.3,2.83,2.83,0,0,0,2.24,1,2.89,2.89,0,0,0,2.25-1,4.8,4.8,0,0,0,.91-3.24,4.72,4.72,0,0,0-.93-3.18,2.92,2.92,0,0,0-2.26-1.07,2.8,2.8,0,0,0-2.2,1.05A4.68,4.68,0,0,0,289.59,327Z"/><path class="cls-2" d="M136.43,366.35l5.83-15.17h2.16l6.21,15.17h-2.29l-1.77-4.6h-6.34l-1.67,4.6Zm4.38-6.23H146l-1.58-4.2q-.72-1.92-1.08-3.15a19.3,19.3,0,0,1-.81,2.9Z"/><path class="cls-2" d="M151.25,363.07l1.84-.29a2.53,2.53,0,0,0,.87,1.69,3,3,0,0,0,2,.59,2.89,2.89,0,0,0,1.9-.52,1.58,1.58,0,0,0,.62-1.23,1.12,1.12,0,0,0-.55-1,8.55,8.55,0,0,0-1.9-.63,16,16,0,0,1-2.84-.9,2.67,2.67,0,0,1-1.2-1,2.78,2.78,0,0,1-.41-1.47,2.75,2.75,0,0,1,.34-1.36,3,3,0,0,1,.91-1,3.77,3.77,0,0,1,1.19-.55,5.55,5.55,0,0,1,1.61-.22,6.36,6.36,0,0,1,2.27.37,3.13,3.13,0,0,1,1.44,1,4,4,0,0,1,.64,1.7l-1.82.25a2,2,0,0,0-.72-1.32,2.62,2.62,0,0,0-1.68-.48,3,3,0,0,0-1.83.43,1.22,1.22,0,0,0-.55,1,1,1,0,0,0,.23.65,1.64,1.64,0,0,0,.71.5c.19.07.74.22,1.65.47a22.63,22.63,0,0,1,2.75.87,2.79,2.79,0,0,1,1.23,1,2.72,2.72,0,0,1,.45,1.6,3.15,3.15,0,0,1-.55,1.75,3.48,3.48,0,0,1-1.56,1.27,5.75,5.75,0,0,1-2.32.45,5.2,5.2,0,0,1-3.27-.88A4.18,4.18,0,0,1,151.25,363.07Z"/><path class="cls-2" d="M168.44,366.35V351.18h1.86v15.17Z"/><path class="cls-2" d="M173.2,353.32v-2.14h1.86v2.14Zm0,13v-11h1.86v11Z"/><path class="cls-2" d="M182,364.68l.27,1.65a6.92,6.92,0,0,1-1.41.16,3.2,3.2,0,0,1-1.57-.32,1.78,1.78,0,0,1-.79-.84,6.7,6.7,0,0,1-.23-2.2v-6.32h-1.36v-1.45h1.36v-2.72l1.86-1.12v3.84H182v1.45h-1.87v6.42a3.62,3.62,0,0,0,.09,1,.82.82,0,0,0,.33.36,1.21,1.21,0,0,0,.63.13A5.75,5.75,0,0,0,182,364.68Z"/><path class="cls-2" d="M187.85,364.68l.27,1.65a7,7,0,0,1-1.41.16,3.2,3.2,0,0,1-1.57-.32,1.73,1.73,0,0,1-.79-.84,6.7,6.7,0,0,1-.23-2.2v-6.32h-1.36v-1.45h1.36v-2.72l1.85-1.12v3.84h1.88v1.45H186v6.42a3.5,3.5,0,0,0,.1,1,.86.86,0,0,0,.32.36,1.25,1.25,0,0,0,.64.13A5.75,5.75,0,0,0,187.85,364.68Z"/><path class="cls-2" d="M189.63,366.35V351.18h1.86v15.17Z"/><path class="cls-2" d="M201.9,362.81l1.92.24a4.66,4.66,0,0,1-1.68,2.61,5.08,5.08,0,0,1-3.15.93,5,5,0,0,1-3.82-1.48,5.81,5.81,0,0,1-1.41-4.16,6.09,6.09,0,0,1,1.42-4.31,4.86,4.86,0,0,1,3.71-1.53,4.69,4.69,0,0,1,3.6,1.5,6,6,0,0,1,1.4,4.22c0,.11,0,.28,0,.5h-8.2a4.23,4.23,0,0,0,1,2.77,3.06,3.06,0,0,0,2.3,1,2.91,2.91,0,0,0,1.75-.53A3.62,3.62,0,0,0,201.9,362.81Zm-6.12-3h6.14a3.73,3.73,0,0,0-.7-2.08,2.87,2.87,0,0,0-2.31-1.08,3,3,0,0,0-2.16.86A3.45,3.45,0,0,0,195.78,359.8Z"/><path class="cls-2" d="M219.22,365a6.79,6.79,0,0,1-2,1.24,5.79,5.79,0,0,1-2.06.36,4,4,0,0,1-2.78-.88,2.91,2.91,0,0,1-1-2.26,3.08,3.08,0,0,1,1.33-2.55,4.44,4.44,0,0,1,1.34-.61,14.69,14.69,0,0,1,1.65-.28,16.84,16.84,0,0,0,3.32-.64c0-.25,0-.41,0-.48a2.08,2.08,0,0,0-.52-1.61,3.14,3.14,0,0,0-2.12-.63,3.24,3.24,0,0,0-1.94.46,2.81,2.81,0,0,0-.93,1.63l-1.82-.25a4.44,4.44,0,0,1,.82-1.89,3.63,3.63,0,0,1,1.64-1.1,7.33,7.33,0,0,1,2.5-.39,6.59,6.59,0,0,1,2.28.33,3.08,3.08,0,0,1,1.3.83,3,3,0,0,1,.57,1.27,9.49,9.49,0,0,1,.1,1.72v2.48a26.27,26.27,0,0,0,.12,3.29,4,4,0,0,0,.47,1.32h-1.95A3.94,3.94,0,0,1,219.22,365Zm-.16-4.16a13.68,13.68,0,0,1-3,.71,7,7,0,0,0-1.62.37,1.7,1.7,0,0,0-.74.6,1.63,1.63,0,0,0-.26.89,1.58,1.58,0,0,0,.57,1.24,2.43,2.43,0,0,0,1.65.5,3.86,3.86,0,0,0,1.91-.47,3,3,0,0,0,1.24-1.29,4.74,4.74,0,0,0,.29-1.87Z"/><path class="cls-2" d="M223.09,363.07l1.84-.29a2.53,2.53,0,0,0,.87,1.69,3,3,0,0,0,2,.59,2.89,2.89,0,0,0,1.9-.52,1.58,1.58,0,0,0,.62-1.23,1.12,1.12,0,0,0-.55-1,8.55,8.55,0,0,0-1.9-.63,16,16,0,0,1-2.84-.9,2.67,2.67,0,0,1-1.2-1,2.78,2.78,0,0,1-.41-1.47,2.75,2.75,0,0,1,.34-1.36,3,3,0,0,1,.91-1,3.77,3.77,0,0,1,1.19-.55,5.55,5.55,0,0,1,1.61-.22,6.36,6.36,0,0,1,2.27.37,3.13,3.13,0,0,1,1.44,1,4,4,0,0,1,.64,1.7l-1.82.25a2,2,0,0,0-.72-1.32,2.62,2.62,0,0,0-1.68-.48,3,3,0,0,0-1.83.43,1.22,1.22,0,0,0-.55,1,1,1,0,0,0,.23.65,1.64,1.64,0,0,0,.71.5c.19.07.74.22,1.65.47a23.25,23.25,0,0,1,2.75.87,2.79,2.79,0,0,1,1.23,1,2.72,2.72,0,0,1,.45,1.6,3.15,3.15,0,0,1-.55,1.75,3.45,3.45,0,0,1-1.57,1.27,5.67,5.67,0,0,1-2.31.45,5.2,5.2,0,0,1-3.27-.88A4.18,4.18,0,0,1,223.09,363.07Z"/><path class="cls-2" d="M249.59,364.56v1.79h-10a3.39,3.39,0,0,1,.22-1.3,6.57,6.57,0,0,1,1.23-2,18.6,18.6,0,0,1,2.43-2.3,20.5,20.5,0,0,0,3.34-3.21,3.85,3.85,0,0,0,.87-2.24,2.47,2.47,0,0,0-.79-1.87,2.83,2.83,0,0,0-2.06-.76,3,3,0,0,0-2.16.8,3.07,3.07,0,0,0-.81,2.24l-1.92-.2a4.74,4.74,0,0,1,1.48-3.26,5.06,5.06,0,0,1,3.45-1.12,4.78,4.78,0,0,1,3.45,1.21,4,4,0,0,1,1.28,3,4.57,4.57,0,0,1-.38,1.79A7,7,0,0,1,248,359a30,30,0,0,1-2.87,2.67c-1.12.94-1.84,1.57-2.16,1.91a6.38,6.38,0,0,0-.78,1Z"/><path class="cls-2" d="M265.12,366.35V365a3.41,3.41,0,0,1-3.07,1.63,4.32,4.32,0,0,1-2.42-.72,4.79,4.79,0,0,1-1.71-2,7.06,7.06,0,0,1-.6-3,7.72,7.72,0,0,1,.55-3,4.29,4.29,0,0,1,1.64-2.06,4.44,4.44,0,0,1,2.45-.71,3.66,3.66,0,0,1,3,1.51v-5.44h1.86v15.17Zm-5.89-5.49a4.8,4.8,0,0,0,.89,3.16,2.69,2.69,0,0,0,2.1,1,2.65,2.65,0,0,0,2.08-1,4.63,4.63,0,0,0,.85-3.05,5.14,5.14,0,0,0-.87-3.31,2.65,2.65,0,0,0-2.14-1.06,2.59,2.59,0,0,0-2.08,1A5,5,0,0,0,259.23,360.86Z"/><path class="cls-2" d="M277,365a6.82,6.82,0,0,1-2,1.24,5.74,5.74,0,0,1-2.05.36,4,4,0,0,1-2.78-.88,2.92,2.92,0,0,1-1-2.26,3.09,3.09,0,0,1,.37-1.48,3.2,3.2,0,0,1,1-1.07,4.67,4.67,0,0,1,1.34-.61,15,15,0,0,1,1.66-.28,17,17,0,0,0,3.32-.64c0-.25,0-.41,0-.48a2.08,2.08,0,0,0-.53-1.61,3.1,3.1,0,0,0-2.12-.63,3.28,3.28,0,0,0-1.94.46,2.8,2.8,0,0,0-.92,1.63l-1.83-.25a4.57,4.57,0,0,1,.82-1.89,3.66,3.66,0,0,1,1.65-1.1,7.27,7.27,0,0,1,2.49-.39,6.65,6.65,0,0,1,2.29.33,3.1,3.1,0,0,1,1.29.83,2.92,2.92,0,0,1,.58,1.27,10.89,10.89,0,0,1,.09,1.72v2.48a26.27,26.27,0,0,0,.12,3.29,4.26,4.26,0,0,0,.47,1.32h-1.94A3.73,3.73,0,0,1,277,365Zm-.16-4.16a13.82,13.82,0,0,1-3,.71,7,7,0,0,0-1.63.37,1.67,1.67,0,0,0-.73.6,1.63,1.63,0,0,0-.26.89,1.61,1.61,0,0,0,.56,1.24,2.46,2.46,0,0,0,1.66.5,3.89,3.89,0,0,0,1.91-.47,2.94,2.94,0,0,0,1.23-1.29,4.54,4.54,0,0,0,.3-1.87Z"/><path class="cls-2" d="M281.48,370.58l-.21-1.75a4.2,4.2,0,0,0,1.07.17,2,2,0,0,0,1-.21,1.69,1.69,0,0,0,.61-.58,8.78,8.78,0,0,0,.57-1.39c0-.1.09-.25.16-.45l-4.16-11h2l2.29,6.36c.3.81.56,1.66.8,2.55a23.48,23.48,0,0,1,.76-2.51l2.35-6.4h1.86l-4.18,11.17a22.58,22.58,0,0,1-1,2.5,3.71,3.71,0,0,1-1.14,1.35,2.75,2.75,0,0,1-1.53.43A3.77,3.77,0,0,1,281.48,370.58Z"/><path class="cls-2" d="M291.41,363.07l1.84-.29a2.53,2.53,0,0,0,.87,1.69,3,3,0,0,0,2,.59,2.89,2.89,0,0,0,1.9-.52,1.58,1.58,0,0,0,.62-1.23,1.12,1.12,0,0,0-.55-1,8.55,8.55,0,0,0-1.9-.63,16,16,0,0,1-2.84-.9,2.67,2.67,0,0,1-1.2-1,2.78,2.78,0,0,1-.41-1.47,2.75,2.75,0,0,1,.34-1.36,3,3,0,0,1,.91-1,3.77,3.77,0,0,1,1.19-.55,5.55,5.55,0,0,1,1.61-.22,6.32,6.32,0,0,1,2.27.37,3.13,3.13,0,0,1,1.44,1,4,4,0,0,1,.64,1.7l-1.82.25a2,2,0,0,0-.72-1.32,2.62,2.62,0,0,0-1.68-.48,3,3,0,0,0-1.83.43,1.22,1.22,0,0,0-.55,1,1,1,0,0,0,.23.65,1.64,1.64,0,0,0,.71.5c.19.07.74.22,1.65.47a22.63,22.63,0,0,1,2.75.87,2.79,2.79,0,0,1,1.23,1,2.72,2.72,0,0,1,.45,1.6,3.15,3.15,0,0,1-.55,1.75,3.48,3.48,0,0,1-1.56,1.27,5.75,5.75,0,0,1-2.32.45,5.2,5.2,0,0,1-3.27-.88A4.18,4.18,0,0,1,291.41,363.07Z"/><path class="cls-3" d="M123.06,174.93c-9.06,0-16.44-8-16.44-17.79s7.38-17.79,16.44-17.79,16.44,8,16.44,17.79S132.13,174.93,123.06,174.93Zm0-32.46c-7.34,0-13.31,6.58-13.31,14.67s6,14.67,13.31,14.67,13.32-6.58,13.32-14.67S130.4,142.47,123.06,142.47Z"/><path class="cls-3" d="M103.17,191.24a3.94,3.94,0,0,1-2.67-1.05L90,180.49a3.93,3.93,0,0,1-.14-5.63l16.56-17,2.24,2.18-16.56,17a.79.79,0,0,0-.23.58.77.77,0,0,0,.26.56l10.46,9.71a.8.8,0,0,0,1.13,0l14.82-16,2.29,2.13-14.81,16A3.92,3.92,0,0,1,103.17,191.24Z"/><path class="cls-3" d="M139.3,154.6l-2.24-2.18L153,136.11a.75.75,0,0,0,.23-.58A.81.81,0,0,0,153,135l-10.47-9.7a.8.8,0,0,0-1.13,0l-14.82,16-2.29-2.13,14.82-16a3.93,3.93,0,0,1,5.55-.2l10.46,9.7a3.93,3.93,0,0,1,.14,5.63Z"/><path class="cls-3" d="M92.48,174.52l-14-12.89a4.88,4.88,0,0,1-.15-7l41.32-41.87a5,5,0,0,1,6.85-.18L139,124.37l-2.14,2.27-12.54-11.81a1.82,1.82,0,0,0-2.5.08L80.5,156.78a1.76,1.76,0,0,0,0,2.55l14,12.89Z"/><rect class="cls-3" x="117" y="181.73" width="3.13" height="31.26" transform="translate(-103.95 138.25) rotate(-44.13)"/><path class="cls-3" d="M161.93,151l-11.17-10.3,2.12-2.3L163,147.67c4.07-.54,23.48-2.86,40.51-.37l-.45,3.09c-18.27-2.67-40.13.45-40.35.48Z"/><path class="cls-4" d="M305.38,182.43a4.69,4.69,0,0,1-3.23-1.29l-30.5-28.84a1.46,1.46,0,1,1,2-2.12L304.16,179a1.78,1.78,0,0,0,2.52-.06l12.47-13.14a1.8,1.8,0,0,0,0-2.51l-27.55-27a1.46,1.46,0,1,1,2-2.08l27.55,27a4.73,4.73,0,0,1,.12,6.61L308.8,181A4.67,4.67,0,0,1,305.38,182.43Z"/><path class="cls-4" d="M265.23,212.32a1.46,1.46,0,0,1-1-2.53l35-32.33a1.46,1.46,0,0,1,2,2.15l-35,32.33A1.43,1.43,0,0,1,265.23,212.32Z"/><path class="cls-4" d="M126.81,241.89h-.42a11.78,11.78,0,0,1-8.47-4.08h0l-1.36-1.55a13.25,13.25,0,0,1,.6-17.94l20.71-20.06a11.67,11.67,0,0,1,17.14.65l1.36,1.55a13.24,13.24,0,0,1-.61,17.94l-20.7,20.06A11.69,11.69,0,0,1,126.81,241.89Zm-6.7-6a8.76,8.76,0,0,0,12.91.5l20.7-20.06a10.3,10.3,0,0,0,.46-13.93l-1.36-1.55a8.76,8.76,0,0,0-12.91-.5l-20.7,20.07a10.27,10.27,0,0,0-.46,13.92Z"/><path class="cls-4" d="M142.94,257.13h-.42a11.8,11.8,0,0,1-8.47-4.08l-1.36-1.55a13.24,13.24,0,0,1-2.55-12.83,1.46,1.46,0,0,1,2.77.91,10.3,10.3,0,0,0,2,10l1.36,1.55a8.87,8.87,0,0,0,6.38,3.09,8.77,8.77,0,0,0,6.53-2.6l20.71-20.06a10.29,10.29,0,0,0,.45-13.93L169,216.08a8.77,8.77,0,0,0-10.23-2.34,1.46,1.46,0,1,1-1.19-2.67,11.7,11.7,0,0,1,13.61,3.08l1.36,1.55a13.25,13.25,0,0,1-.6,17.94L151.19,253.7A11.68,11.68,0,0,1,142.94,257.13Z"/><path class="cls-4" d="M157,271.71h-.42a11.8,11.8,0,0,1-8.47-4.08l-1.36-1.55a13.2,13.2,0,0,1-3.11-10.34,1.48,1.48,0,0,1,1.63-1.27,1.46,1.46,0,0,1,1.27,1.63,10.25,10.25,0,0,0,2.4,8.05l1.36,1.55a8.75,8.75,0,0,0,12.91.49l20.71-20.06a10.29,10.29,0,0,0,.45-13.93L183,230.65a8.81,8.81,0,0,0-8-3,1.46,1.46,0,1,1-.45-2.89,11.79,11.79,0,0,1,10.64,4l1.36,1.55a13.26,13.26,0,0,1-.61,17.94l-20.71,20.06A11.69,11.69,0,0,1,157,271.71Z"/><path class="cls-4" d="M173.39,287.36H173a11.76,11.76,0,0,1-8.47-4.08l-1.36-1.55a16.62,16.62,0,0,1-3.5-11.66,1.46,1.46,0,0,1,2.89.37,13.79,13.79,0,0,0,2.81,9.36l1.35,1.55a8.77,8.77,0,0,0,12.91.5l20.71-20.06a10.31,10.31,0,0,0,.46-13.93l-1.36-1.55c-2-2.23-7.74-3.6-10.9-3.12a1.46,1.46,0,1,1-.44-2.88c3.58-.55,10.62.76,13.53,4.07l1.36,1.55a13.26,13.26,0,0,1-.61,17.94l-20.71,20.06A11.69,11.69,0,0,1,173.39,287.36Z"/><path class="cls-3" d="M269.44,248a12.63,12.63,0,0,1-8.94-3.7l-13.56-13.11,2.17-2.25,13.58,13.13a9.54,9.54,0,0,0,13.48,0l2.21-2.21a9.51,9.51,0,0,0-.13-13.59L263.34,212l2.16-2.25,14.91,14.34a12.64,12.64,0,0,1,.18,18l-2.21,2.21A12.63,12.63,0,0,1,269.44,248Z"/><path class="cls-4" d="M264.42,212.32a1.45,1.45,0,0,1-1-.4l-44.9-43.17a2.28,2.28,0,0,0-3-.13l-20.88,16.86c-3.93,3-12.94,3.93-26.84,2.94a5.2,5.2,0,0,1-3.17-9c7.72-7.08,21.86-20,30-26.83A33.74,33.74,0,0,1,221.09,145a1.46,1.46,0,0,1-.55,2.86,31.35,31.35,0,0,0-24.1,7c-8.05,6.81-22.17,19.68-29.86,26.74a2.29,2.29,0,0,0,1.4,4c12.61.89,21.67,0,24.84-2.34l20.83-16.82a5.21,5.21,0,0,1,6.88.29l44.9,43.17a1.46,1.46,0,0,1-1,2.51Z"/><path class="cls-3" d="M253.21,265.38a9.89,9.89,0,0,1-7-2.91l-15.71-15.71,2.21-2.21,15.71,15.71a6.83,6.83,0,0,0,9.66,0l4.36-4.36a6.84,6.84,0,0,0,0-9.66l2.21-2.21a10,10,0,0,1,0,14.08l-4.36,4.36A9.89,9.89,0,0,1,253.21,265.38Z"/><path class="cls-3" d="M236.18,280.86a12.4,12.4,0,0,1-9.24-4.14l-1-1.16L216,265.62l2.21-2.21,10,10,1.1,1.22a9.26,9.26,0,0,0,12.95.86l4.66-4a5.29,5.29,0,0,0,.56-7.53l2.35-2.06a8.43,8.43,0,0,1-.88,12l-4.67,4A12.35,12.35,0,0,1,236.18,280.86Z"/><path class="cls-3" d="M219.69,296.73a14.36,14.36,0,0,1-10.3-4.36L191.23,273.8l2.23-2.19,18.17,18.57a11.22,11.22,0,0,0,15.72.4l4.87-4.51c2.13-2.73-.32-6.3-.35-6.33l2.57-1.79c.16.22,3.85,5.63.14,10.17l-.15.16-5,4.59A14.39,14.39,0,0,1,219.69,296.73Z"/><path class="cls-3" d="M251,157.5a53.86,53.86,0,1,1,53.86-53.86A53.93,53.93,0,0,1,251,157.5Zm0-104.6a50.74,50.74,0,1,0,50.73,50.74A50.8,50.8,0,0,0,251,52.9Z"/><path class="cls-3" d="M251.41,147.13c-23.24,0-42.14-19.71-42.14-43.94s18.9-43.95,42.14-43.95S293.55,79,293.55,103.19,274.64,147.13,251.41,147.13Zm0-84.76c-21.52,0-39,18.31-39,40.82s17.5,40.81,39,40.81,39-18.31,39-40.81S272.92,62.37,251.41,62.37Z"/><path class="cls-3" d="M251.41,112.87a8.78,8.78,0,1,1,8.77-8.78A8.79,8.79,0,0,1,251.41,112.87Zm0-14.43a5.65,5.65,0,1,0,5.65,5.65A5.65,5.65,0,0,0,251.41,98.44Z"/><rect class="cls-3" x="223.45" y="118.37" width="27.99" height="3.13" transform="translate(-15.55 202.13) rotate(-44.8)"/><rect class="cls-3" x="249.84" y="69.82" width="3.13" height="27.05"/></svg>