<svg id="Layer_1" data-name="Layer 1" xmlns="http://www.w3.org/2000/svg" viewBox="0 0 423.43 402.92"><defs><style>.cls-1{fill:#1db954;}.cls-2{fill:#f8a756;}.cls-3{fill:#3a3a3a;}.cls-4{fill:#6d6d6d;}</style></defs><title>icons_swaped</title><polygon class="cls-1" points="306.06 278.21 115.69 278.21 115.69 61.95 117.48 61.9 149.51 61.9 149.51 65.36 119.15 65.36 119.15 274.74 302.59 274.74 302.59 65.41 271.11 65.41 271.11 61.94 306 61.94 306.06 63.73 306.06 278.21"/><rect class="cls-1" x="173.15" y="61.9" width="73.75" height="3.47"/><rect class="cls-1" x="117.42" y="103.23" width="185.78" height="3.47"/><path class="cls-2" d="M210.87,162.12c-12.07,0-21.88-9.56-21.88-21.32s9.81-21.32,21.88-21.32,21.89,9.56,21.89,21.32S222.94,162.12,210.87,162.12Zm0-39.4c-10.28,0-18.65,8.11-18.65,18.08s8.37,18.09,18.65,18.09,18.65-8.12,18.65-18.09S221.16,122.72,210.87,122.72Z"/><path class="cls-2" d="M153.45,162.12c-12.07,0-21.88-9.56-21.88-21.32s9.81-21.32,21.88-21.32,21.89,9.56,21.89,21.32S165.52,162.12,153.45,162.12Zm0-39.4c-10.28,0-18.65,8.11-18.65,18.08s8.37,18.09,18.65,18.09,18.65-8.12,18.65-18.09S163.73,122.72,153.45,122.72Z"/><path class="cls-2" d="M210.87,217.29C198.8,217.29,189,207.73,189,196s9.81-21.32,21.88-21.32,21.89,9.56,21.89,21.32S222.94,217.29,210.87,217.29Zm0-39.4c-10.28,0-18.65,8.11-18.65,18.08s8.37,18.09,18.65,18.09,18.65-8.12,18.65-18.09S221.16,177.89,210.87,177.89Z"/><path class="cls-2" d="M257.83,214.47a1.57,1.57,0,0,1-.81-.22A21.06,21.06,0,0,1,246.41,196c0-11.76,9.82-21.32,21.88-21.32a21.83,21.83,0,0,1,19.63,11.88A1.62,1.62,0,1,1,285,188a18.61,18.61,0,0,0-16.75-10.11c-10.28,0-18.64,8.11-18.64,18.08a17.86,17.86,0,0,0,9,15.49,1.62,1.62,0,0,1-.82,3Z"/><path class="cls-2" d="M153.45,217.29c-12.07,0-21.88-9.56-21.88-21.32s9.81-21.32,21.88-21.32,21.89,9.56,21.89,21.32S165.52,217.29,153.45,217.29Zm0-39.4c-10.28,0-18.65,8.11-18.65,18.08s8.37,18.09,18.65,18.09S172.1,205.94,172.1,196,163.73,177.89,153.45,177.89Z"/><path class="cls-2" d="M268.29,162.12c-12.06,0-21.88-9.56-21.88-21.32s9.82-21.32,21.88-21.32,21.89,9.56,21.89,21.32S280.36,162.12,268.29,162.12Zm0-39.4c-10.28,0-18.64,8.11-18.64,18.08s8.36,18.09,18.64,18.09,18.65-8.12,18.65-18.09S278.58,122.72,268.29,122.72Z"/><path class="cls-1" d="M258.16,236.55a1.77,1.77,0,0,1-.64-.12,1.74,1.74,0,0,1-1.09-1.61V187.53a1.73,1.73,0,0,1,1.73-1.74h45a1.73,1.73,0,0,1,1.25,2.93l-45,47.29A1.75,1.75,0,0,1,258.16,236.55Zm1.73-47.29v41.22l39.26-41.22Z"/><path class="cls-1" d="M304.32,236.55H117.42a1.74,1.74,0,0,1,0-3.47h186.9a1.74,1.74,0,1,1,0,3.47Z"/><path class="cls-1" d="M303.2,265.82H117.42a1.73,1.73,0,1,1,0-3.46H303.2a1.73,1.73,0,1,1,0,3.46Z"/><path class="cls-1" d="M304.32,250.06H118.55a1.74,1.74,0,1,1,0-3.47H304.32a1.74,1.74,0,1,1,0,3.47Z"/><path class="cls-2" d="M149,150.86a1.62,1.62,0,0,1-1-.37l-6.76-5.63a1.62,1.62,0,0,1,2.08-2.49l5.52,4.61,11.35-13.42a1.62,1.62,0,1,1,2.47,2.09l-12.39,14.64A1.59,1.59,0,0,1,149,150.86Z"/><path class="cls-2" d="M173.15,89.5H149.51a1.62,1.62,0,0,1-1.62-1.62V48.48a1.62,1.62,0,0,1,1.62-1.62h23.64a1.61,1.61,0,0,1,1.62,1.62v39.4A1.61,1.61,0,0,1,173.15,89.5Zm-22-3.24h20.41V50.09H151.13Z"/><path class="cls-2" d="M271.11,89.5H247.47a1.61,1.61,0,0,1-1.62-1.62V48.48a1.61,1.61,0,0,1,1.62-1.62h23.64a1.62,1.62,0,0,1,1.62,1.62v39.4A1.62,1.62,0,0,1,271.11,89.5Zm-22-3.24h20.41V50.09H249.08Z"/><path class="cls-3" d="M151.25,312.5V296.66h7a9.26,9.26,0,0,1,3.23.43,3.53,3.53,0,0,1,1.76,1.51,4.47,4.47,0,0,1,.66,2.38,4,4,0,0,1-1.09,2.85,5.57,5.57,0,0,1-3.38,1.47,5.52,5.52,0,0,1,1.27.78,11.45,11.45,0,0,1,1.74,2.11l2.75,4.31h-2.63l-2.1-3.29c-.61-.95-1.12-1.68-1.51-2.18A4.56,4.56,0,0,0,157.9,306a3,3,0,0,0-1-.43,6.52,6.52,0,0,0-1.17-.07h-2.43v7Zm2.1-8.85h4.5a7,7,0,0,0,2.25-.29,2.42,2.42,0,0,0,1.23-.95,2.61,2.61,0,0,0,.43-1.43,2.36,2.36,0,0,0-.82-1.84,3.79,3.79,0,0,0-2.58-.73h-5Z"/><path class="cls-3" d="M174.81,308.81l2,.25a4.91,4.91,0,0,1-1.76,2.73,5.29,5.29,0,0,1-3.29,1,5.23,5.23,0,0,1-4-1.55,6.06,6.06,0,0,1-1.48-4.35,6.3,6.3,0,0,1,1.5-4.49,5,5,0,0,1,3.87-1.6,4.93,4.93,0,0,1,3.76,1.56,6.26,6.26,0,0,1,1.46,4.41c0,.12,0,.29,0,.52h-8.56a4.37,4.37,0,0,0,1.07,2.9,3.18,3.18,0,0,0,2.39,1,2.94,2.94,0,0,0,1.83-.57A3.69,3.69,0,0,0,174.81,308.81Zm-6.39-3.15h6.41a3.87,3.87,0,0,0-.73-2.17,3,3,0,0,0-2.41-1.12,3.12,3.12,0,0,0-2.26.89A3.58,3.58,0,0,0,168.42,305.66Z"/><path class="cls-3" d="M179.26,316.9V301H181v1.49a4.24,4.24,0,0,1,1.41-1.31,3.8,3.8,0,0,1,1.91-.44,4.59,4.59,0,0,1,2.6.75,4.65,4.65,0,0,1,1.69,2.14,8.22,8.22,0,0,1-.05,6.19,4.84,4.84,0,0,1-1.84,2.16,4.75,4.75,0,0,1-2.54.75,3.58,3.58,0,0,1-1.74-.41,3.94,3.94,0,0,1-1.27-1v5.58ZM181,306.83a5,5,0,0,0,.9,3.28,2.77,2.77,0,0,0,2.17,1.06,2.8,2.8,0,0,0,2.22-1.1,5.19,5.19,0,0,0,.93-3.4,5.1,5.1,0,0,0-.9-3.29,2.75,2.75,0,0,0-2.16-1.09,2.82,2.82,0,0,0-2.2,1.16A5.2,5.2,0,0,0,181,306.83Z"/><path class="cls-3" d="M199.06,311.09a7.43,7.43,0,0,1-2.08,1.3,6,6,0,0,1-2.14.37,4.17,4.17,0,0,1-2.91-.92,3,3,0,0,1-1-2.36,3.24,3.24,0,0,1,1.39-2.66,5,5,0,0,1,1.4-.64,13.44,13.44,0,0,1,1.73-.29,17.93,17.93,0,0,0,3.47-.67c0-.27,0-.44,0-.51a2.12,2.12,0,0,0-.55-1.67,3.27,3.27,0,0,0-2.22-.66,3.42,3.42,0,0,0-2,.48,2.93,2.93,0,0,0-1,1.7l-1.9-.26a4.76,4.76,0,0,1,.85-2,3.77,3.77,0,0,1,1.72-1.16,7.7,7.7,0,0,1,2.61-.4,6.9,6.9,0,0,1,2.38.34,3,3,0,0,1,1.35.87,3.09,3.09,0,0,1,.61,1.33,10.27,10.27,0,0,1,.1,1.79v2.6a28.59,28.59,0,0,0,.12,3.43,4.24,4.24,0,0,0,.49,1.37h-2A4.16,4.16,0,0,1,199.06,311.09Zm-.16-4.35a14,14,0,0,1-3.18.74,6.7,6.7,0,0,0-1.69.39,1.61,1.61,0,0,0-.77.63,1.68,1.68,0,0,0-.27.92,1.63,1.63,0,0,0,.59,1.3,2.49,2.49,0,0,0,1.72.52,4,4,0,0,0,2-.49,3.11,3.11,0,0,0,1.29-1.35,4.66,4.66,0,0,0,.31-1.94Z"/><path class="cls-3" d="M203.8,316.92l-.22-1.82a4.55,4.55,0,0,0,1.11.17,2.18,2.18,0,0,0,1-.21,1.87,1.87,0,0,0,.64-.61A9.44,9.44,0,0,0,207,313l.18-.47L202.78,301h2.1l2.38,6.64c.31.85.59,1.73.84,2.66a25.42,25.42,0,0,1,.8-2.61l2.45-6.69h2l-4.37,11.67a22.63,22.63,0,0,1-1.09,2.6,3.71,3.71,0,0,1-1.19,1.41,2.81,2.81,0,0,1-1.6.45A3.86,3.86,0,0,1,203.8,316.92Z"/><path class="cls-3" d="M215,312.5V301h1.74v1.61a4.09,4.09,0,0,1,1.44-1.36,4,4,0,0,1,2-.51,3.71,3.71,0,0,1,2.09.53,2.8,2.8,0,0,1,1.15,1.48,4.13,4.13,0,0,1,3.55-2,3.47,3.47,0,0,1,2.62.94,4,4,0,0,1,.92,2.92v7.87h-1.93v-7.23a5.57,5.57,0,0,0-.19-1.68,1.66,1.66,0,0,0-.69-.82,2.14,2.14,0,0,0-1.17-.32,2.73,2.73,0,0,0-2,.81,3.57,3.57,0,0,0-.8,2.58v6.66h-1.94v-7.45a3.26,3.26,0,0,0-.48-1.95,1.79,1.79,0,0,0-1.55-.65,2.81,2.81,0,0,0-1.52.44,2.41,2.41,0,0,0-1,1.26,7.07,7.07,0,0,0-.32,2.4v5.95Z"/><path class="cls-3" d="M241.24,308.81l2,.25a4.86,4.86,0,0,1-1.76,2.73,6,6,0,0,1-7.28-.58,6.06,6.06,0,0,1-1.47-4.35,6.34,6.34,0,0,1,1.49-4.49,5,5,0,0,1,3.87-1.6,4.92,4.92,0,0,1,3.76,1.56,6.26,6.26,0,0,1,1.46,4.41c0,.12,0,.29,0,.52h-8.56a4.42,4.42,0,0,0,1.07,2.9,3.19,3.19,0,0,0,2.4,1,2.93,2.93,0,0,0,1.82-.57A3.63,3.63,0,0,0,241.24,308.81Zm-6.38-3.15h6.41a3.94,3.94,0,0,0-.74-2.17,3,3,0,0,0-2.41-1.12,3.12,3.12,0,0,0-2.25.89A3.53,3.53,0,0,0,234.86,305.66Z"/><path class="cls-3" d="M245.7,312.5V301h1.75v1.63a4.12,4.12,0,0,1,3.65-1.89,4.78,4.78,0,0,1,1.91.37,3,3,0,0,1,1.3,1,3.76,3.76,0,0,1,.61,1.44,11.6,11.6,0,0,1,.1,1.89v7.05h-1.94v-7a5.21,5.21,0,0,0-.23-1.77,1.89,1.89,0,0,0-.8-.95,2.62,2.62,0,0,0-1.36-.35,3.21,3.21,0,0,0-2.15.79,3.92,3.92,0,0,0-.9,3v6.26Z"/><path class="cls-3" d="M262.25,310.76l.28,1.72a6.83,6.83,0,0,1-1.47.18,3.37,3.37,0,0,1-1.64-.34,1.88,1.88,0,0,1-.82-.88,6.9,6.9,0,0,1-.24-2.3v-6.6h-1.42V301h1.42v-2.85L260.3,297v4h1.95v1.51H260.3v6.71a3.35,3.35,0,0,0,.1,1.07.81.81,0,0,0,.33.38,1.36,1.36,0,0,0,.67.14A5,5,0,0,0,262.25,310.76Z"/><path class="cls-4" d="M123.19,381.42v-11h1.67V372a3.84,3.84,0,0,1,3.33-1.79,3.68,3.68,0,0,1,2,.5,2.7,2.7,0,0,1,1.1,1.42,4,4,0,0,1,3.4-1.92,3.35,3.35,0,0,1,2.51.9,3.88,3.88,0,0,1,.88,2.79v7.54h-1.85V374.5a5.16,5.16,0,0,0-.18-1.61,1.58,1.58,0,0,0-.66-.79,2.06,2.06,0,0,0-1.12-.3,2.61,2.61,0,0,0-1.92.77,3.42,3.42,0,0,0-.77,2.47v6.38h-1.86v-7.14a3.11,3.11,0,0,0-.46-1.86,1.73,1.73,0,0,0-1.49-.62,2.74,2.74,0,0,0-1.45.41,2.38,2.38,0,0,0-1,1.22,6.77,6.77,0,0,0-.3,2.29v5.7Z"/><path class="cls-4" d="M148.36,377.88l1.93.24a4.72,4.72,0,0,1-1.69,2.62,5.73,5.73,0,0,1-7-.55,5.82,5.82,0,0,1-1.41-4.17,6.07,6.07,0,0,1,1.43-4.3,4.83,4.83,0,0,1,3.7-1.53,4.69,4.69,0,0,1,3.6,1.5,5.91,5.91,0,0,1,1.4,4.22c0,.11,0,.27,0,.5h-8.2a4.25,4.25,0,0,0,1,2.77,3,3,0,0,0,2.3,1,2.87,2.87,0,0,0,1.75-.54A3.56,3.56,0,0,0,148.36,377.88Zm-6.11-3h6.13a3.71,3.71,0,0,0-.7-2.08,2.86,2.86,0,0,0-2.31-1.07,2.92,2.92,0,0,0-2.15.86A3.35,3.35,0,0,0,142.25,374.87Z"/><path class="cls-4" d="M152.61,381.42v-11h1.67v1.66a4.48,4.48,0,0,1,1.19-1.54,2,2,0,0,1,1.19-.37,3.65,3.65,0,0,1,1.92.6l-.65,1.73a2.65,2.65,0,0,0-1.36-.41,1.76,1.76,0,0,0-1.1.37,2,2,0,0,0-.69,1,7.11,7.11,0,0,0-.31,2.17v5.75Z"/><path class="cls-4" d="M166.85,377.4l1.83.24a4.75,4.75,0,0,1-1.53,3,4.46,4.46,0,0,1-3,1.07,4.75,4.75,0,0,1-3.63-1.47,6,6,0,0,1-1.37-4.23,7.7,7.7,0,0,1,.59-3.11,4.21,4.21,0,0,1,1.8-2,5.37,5.37,0,0,1,2.62-.66,4.57,4.57,0,0,1,2.93.9,4.15,4.15,0,0,1,1.46,2.57l-1.81.28a3,3,0,0,0-.92-1.66,2.31,2.31,0,0,0-1.59-.56,2.86,2.86,0,0,0-2.28,1,4.75,4.75,0,0,0-.88,3.19,4.93,4.93,0,0,0,.85,3.22,2.74,2.74,0,0,0,2.21,1,2.6,2.6,0,0,0,1.83-.67A3.34,3.34,0,0,0,166.85,377.4Z"/><path class="cls-4" d="M170.28,381.42V366.25h1.86v5.45a4.16,4.16,0,0,1,3.29-1.51,4.45,4.45,0,0,1,2.12.48,2.81,2.81,0,0,1,1.29,1.33,6.06,6.06,0,0,1,.39,2.46v7h-1.86v-7a2.88,2.88,0,0,0-.61-2,2.22,2.22,0,0,0-1.71-.64,3,3,0,0,0-1.56.43,2.43,2.43,0,0,0-1,1.16,5.31,5.31,0,0,0-.31,2v6Z"/><path class="cls-4" d="M189.23,380.07a7,7,0,0,1-2,1.24,5.78,5.78,0,0,1-2.05.36,4,4,0,0,1-2.79-.88,3.13,3.13,0,0,1-.6-3.74,3,3,0,0,1,1-1.07,4.55,4.55,0,0,1,1.34-.61,12.9,12.9,0,0,1,1.66-.28,17,17,0,0,0,3.32-.64c0-.25,0-.42,0-.49a2.07,2.07,0,0,0-.53-1.6,3.1,3.1,0,0,0-2.12-.63,3.26,3.26,0,0,0-1.94.46,2.81,2.81,0,0,0-.93,1.63l-1.82-.25a4.57,4.57,0,0,1,.82-1.89,3.51,3.51,0,0,1,1.65-1.1,7.23,7.23,0,0,1,2.49-.39,6.65,6.65,0,0,1,2.29.33,3.1,3.1,0,0,1,1.29.83,3,3,0,0,1,.58,1.27,10.89,10.89,0,0,1,.09,1.72v2.48a26,26,0,0,0,.12,3.28,4.26,4.26,0,0,0,.47,1.32h-1.94A3.82,3.82,0,0,1,189.23,380.07Zm-.15-4.16a13.92,13.92,0,0,1-3,.7,6.87,6.87,0,0,0-1.63.38,1.56,1.56,0,0,0-.73.6,1.65,1.65,0,0,0,.3,2.13,2.44,2.44,0,0,0,1.65.49,3.8,3.8,0,0,0,1.92-.47,2.84,2.84,0,0,0,1.23-1.29,4.49,4.49,0,0,0,.3-1.86Z"/><path class="cls-4" d="M193.85,381.42v-11h1.67V372a4,4,0,0,1,3.5-1.81,4.77,4.77,0,0,1,1.83.35,2.93,2.93,0,0,1,1.25.94,3.72,3.72,0,0,1,.57,1.38,10.26,10.26,0,0,1,.11,1.81v6.75h-1.86v-6.68a5.09,5.09,0,0,0-.22-1.7,1.77,1.77,0,0,0-.77-.9,2.4,2.4,0,0,0-1.3-.34,3,3,0,0,0-2.06.76,3.74,3.74,0,0,0-.86,2.86v6Z"/><path class="cls-4" d="M209.7,379.76l.27,1.64a7,7,0,0,1-1.41.17,3.23,3.23,0,0,1-1.57-.32,1.84,1.84,0,0,1-.79-.85,6.63,6.63,0,0,1-.23-2.19v-6.33h-1.36v-1.44H206v-2.73l1.86-1.11v3.84h1.87v1.44h-1.87v6.43a3.06,3.06,0,0,0,.1,1,.72.72,0,0,0,.32.37,1.21,1.21,0,0,0,.63.13A5.75,5.75,0,0,0,209.7,379.76Z"/><path class="cls-4" d="M224.58,380.07a7.15,7.15,0,0,1-2,1.24,5.83,5.83,0,0,1-2.06.36,4,4,0,0,1-2.78-.88,2.92,2.92,0,0,1-1-2.26,3.09,3.09,0,0,1,.36-1.48,3.13,3.13,0,0,1,1-1.07,4.44,4.44,0,0,1,1.34-.61,12.37,12.37,0,0,1,1.65-.28,16.84,16.84,0,0,0,3.32-.64c0-.25,0-.42,0-.49a2.06,2.06,0,0,0-.52-1.6,3.14,3.14,0,0,0-2.12-.63,3.24,3.24,0,0,0-1.94.46,2.81,2.81,0,0,0-.93,1.63l-1.82-.25a4.44,4.44,0,0,1,.82-1.89,3.48,3.48,0,0,1,1.64-1.1,7.31,7.31,0,0,1,2.49-.39,6.61,6.61,0,0,1,2.29.33,3.08,3.08,0,0,1,1.3.83,3,3,0,0,1,.57,1.27,9.49,9.49,0,0,1,.1,1.72v2.48a26,26,0,0,0,.12,3.28,4,4,0,0,0,.47,1.32h-2A3.82,3.82,0,0,1,224.58,380.07Zm-.16-4.16a13.78,13.78,0,0,1-3,.7,6.76,6.76,0,0,0-1.62.38,1.63,1.63,0,0,0-.74.6,1.62,1.62,0,0,0-.26.88,1.59,1.59,0,0,0,.57,1.25,2.41,2.41,0,0,0,1.65.49,3.76,3.76,0,0,0,1.91-.47,2.84,2.84,0,0,0,1.23-1.29,4.49,4.49,0,0,0,.3-1.86Z"/><path class="cls-4" d="M236.36,377.4l1.84.24a4.76,4.76,0,0,1-1.54,3,4.45,4.45,0,0,1-3,1.07A4.71,4.71,0,0,1,230,380.2a6,6,0,0,1-1.37-4.23,7.54,7.54,0,0,1,.59-3.11,4.14,4.14,0,0,1,1.79-2,5.37,5.37,0,0,1,2.62-.66,4.57,4.57,0,0,1,2.93.9,4.15,4.15,0,0,1,1.46,2.57l-1.81.28a3,3,0,0,0-.92-1.66,2.3,2.3,0,0,0-1.58-.56,2.88,2.88,0,0,0-2.29,1,4.75,4.75,0,0,0-.88,3.19,4.93,4.93,0,0,0,.85,3.22,2.74,2.74,0,0,0,2.21,1,2.6,2.6,0,0,0,1.83-.67A3.34,3.34,0,0,0,236.36,377.4Z"/><path class="cls-4" d="M247,377.4l1.83.24a4.71,4.71,0,0,1-1.54,3,4.42,4.42,0,0,1-3,1.07,4.72,4.72,0,0,1-3.63-1.47,6,6,0,0,1-1.37-4.23,7.7,7.7,0,0,1,.59-3.11,4.14,4.14,0,0,1,1.79-2,5.4,5.4,0,0,1,2.63-.66,4.59,4.59,0,0,1,2.93.9,4.18,4.18,0,0,1,1.45,2.57l-1.81.28a3,3,0,0,0-.91-1.66,2.34,2.34,0,0,0-1.59-.56,2.88,2.88,0,0,0-2.29,1,4.81,4.81,0,0,0-.88,3.19,5,5,0,0,0,.85,3.22,2.77,2.77,0,0,0,2.22,1,2.6,2.6,0,0,0,1.83-.67A3.34,3.34,0,0,0,247,377.4Z"/><path class="cls-4" d="M249.69,375.93a5.66,5.66,0,0,1,1.7-4.52,5.06,5.06,0,0,1,3.45-1.22,4.94,4.94,0,0,1,3.71,1.48,5.65,5.65,0,0,1,1.44,4.1,7.32,7.32,0,0,1-.64,3.34A4.49,4.49,0,0,1,257.5,381a5.39,5.39,0,0,1-2.66.67,4.93,4.93,0,0,1-3.73-1.48A5.88,5.88,0,0,1,249.69,375.93Zm1.91,0a4.64,4.64,0,0,0,.93,3.16,3.06,3.06,0,0,0,4.62,0,4.79,4.79,0,0,0,.92-3.21,4.53,4.53,0,0,0-.93-3.09,3.06,3.06,0,0,0-4.61,0A4.64,4.64,0,0,0,251.6,375.93Z"/><path class="cls-4" d="M269.37,381.42v-1.61a4,4,0,0,1-3.49,1.86,4.37,4.37,0,0,1-1.81-.37,3,3,0,0,1-1.25-.94,3.33,3.33,0,0,1-.58-1.38,10,10,0,0,1-.11-1.74v-6.8H264v6.09a11.68,11.68,0,0,0,.11,2,2,2,0,0,0,.75,1.15,2.31,2.31,0,0,0,1.41.42,3,3,0,0,0,1.57-.43,2.45,2.45,0,0,0,1-1.17,6,6,0,0,0,.3-2.15v-5.88H271v11Z"/><path class="cls-4" d="M274,381.42v-11h1.68V372a3.94,3.94,0,0,1,3.5-1.81,4.69,4.69,0,0,1,1.82.35,2.87,2.87,0,0,1,1.25.94,3.58,3.58,0,0,1,.58,1.38,10.55,10.55,0,0,1,.1,1.81v6.75H281v-6.68a4.84,4.84,0,0,0-.22-1.7,1.73,1.73,0,0,0-.77-.9,2.4,2.4,0,0,0-1.3-.34,3,3,0,0,0-2.05.76,3.7,3.7,0,0,0-.86,2.86v6Z"/><path class="cls-4" d="M289.8,379.76l.27,1.64a6.9,6.9,0,0,1-1.4.17,3.27,3.27,0,0,1-1.58-.32,1.82,1.82,0,0,1-.78-.85,6.63,6.63,0,0,1-.23-2.19v-6.33h-1.37v-1.44h1.37v-2.73l1.85-1.11v3.84h1.87v1.44h-1.87v6.43a3.37,3.37,0,0,0,.1,1,.77.77,0,0,0,.32.37,1.25,1.25,0,0,0,.64.13A5.63,5.63,0,0,0,289.8,379.76Z"/><path class="cls-4" d="M126.49,351V335.81h5.72a13.43,13.43,0,0,1,2.31.15,4.49,4.49,0,0,1,1.87.71,3.59,3.59,0,0,1,1.21,1.46,4.93,4.93,0,0,1-.77,5.34c-.82.9-2.3,1.34-4.45,1.34h-3.89V351Zm2-8h3.93a4.19,4.19,0,0,0,2.76-.72,2.59,2.59,0,0,0,.82-2,2.69,2.69,0,0,0-.49-1.63,2.22,2.22,0,0,0-1.26-.89,8.55,8.55,0,0,0-1.88-.14h-3.88Z"/><path class="cls-4" d="M147.55,349.63a7,7,0,0,1-2,1.24,5.78,5.78,0,0,1-2.05.36,4,4,0,0,1-2.79-.89,3.1,3.1,0,0,1,.36-4.8,4.55,4.55,0,0,1,1.34-.61,12.9,12.9,0,0,1,1.66-.28,17.8,17.8,0,0,0,3.32-.64c0-.26,0-.42,0-.49a2.05,2.05,0,0,0-.53-1.6,3.12,3.12,0,0,0-2.12-.63,3.26,3.26,0,0,0-1.94.46,2.78,2.78,0,0,0-.93,1.63l-1.82-.25a4.57,4.57,0,0,1,.82-1.89,3.62,3.62,0,0,1,1.64-1.11,7.33,7.33,0,0,1,2.5-.39,6.3,6.3,0,0,1,2.28.34,2.59,2.59,0,0,1,1.88,2.1,10.73,10.73,0,0,1,.09,1.71v2.49a26.06,26.06,0,0,0,.12,3.28,4.26,4.26,0,0,0,.47,1.32h-1.94A3.94,3.94,0,0,1,147.55,349.63Zm-.15-4.16a13.92,13.92,0,0,1-3,.7,7,7,0,0,0-1.63.37,1.58,1.58,0,0,0-.73.61,1.52,1.52,0,0,0-.26.88,1.59,1.59,0,0,0,.56,1.24,2.45,2.45,0,0,0,1.65.5,3.9,3.9,0,0,0,1.92-.47A2.84,2.84,0,0,0,147.1,348a4.49,4.49,0,0,0,.3-1.86Z"/><path class="cls-4" d="M152.18,338v-2.14H154V338Zm0,13V340H154v11Z"/><path class="cls-4" d="M164,351v-1.39a3.41,3.41,0,0,1-3.07,1.64,4.24,4.24,0,0,1-2.41-.73,4.66,4.66,0,0,1-1.71-2,6.87,6.87,0,0,1-.61-3,8,8,0,0,1,.55-3,4.34,4.34,0,0,1,4.1-2.77,3.67,3.67,0,0,1,1.77.42,3.72,3.72,0,0,1,1.26,1.09v-5.44h1.85V351Zm-5.88-5.48a4.72,4.72,0,0,0,.89,3.15,2.63,2.63,0,0,0,4.17.05,4.61,4.61,0,0,0,.86-3.05,5.16,5.16,0,0,0-.87-3.31,2.69,2.69,0,0,0-2.15-1,2.57,2.57,0,0,0-2.07,1A5,5,0,0,0,158.12,345.5Z"/><path class="cls-4" d="M181.68,351v-1.39a3.43,3.43,0,0,1-3.08,1.64,4.24,4.24,0,0,1-2.41-.73,4.73,4.73,0,0,1-1.71-2,7,7,0,0,1-.6-3,8,8,0,0,1,.54-3,4.34,4.34,0,0,1,4.1-2.77,3.67,3.67,0,0,1,1.77.42,3.72,3.72,0,0,1,1.26,1.09v-5.44h1.86V351Zm-5.89-5.48a4.77,4.77,0,0,0,.89,3.15,2.67,2.67,0,0,0,2.1,1.05,2.64,2.64,0,0,0,2.07-1,4.61,4.61,0,0,0,.86-3.05,5.16,5.16,0,0,0-.87-3.31,2.67,2.67,0,0,0-2.14-1,2.58,2.58,0,0,0-2.08,1A5,5,0,0,0,175.79,345.5Z"/><path class="cls-4" d="M193.5,349.63a7,7,0,0,1-2,1.24,5.78,5.78,0,0,1-2,.36,4,4,0,0,1-2.78-.89,3.1,3.1,0,0,1-.61-3.73,3,3,0,0,1,1-1.07,4.67,4.67,0,0,1,1.34-.61,12.9,12.9,0,0,1,1.66-.28,17.8,17.8,0,0,0,3.32-.64c0-.26,0-.42,0-.49a2.05,2.05,0,0,0-.53-1.6,3.1,3.1,0,0,0-2.12-.63,3.26,3.26,0,0,0-1.94.46,2.78,2.78,0,0,0-.93,1.63l-1.82-.25a4.57,4.57,0,0,1,.82-1.89,3.6,3.6,0,0,1,1.65-1.11,7.23,7.23,0,0,1,2.49-.39,6.39,6.39,0,0,1,2.29.34,3,3,0,0,1,1.29.83,2.87,2.87,0,0,1,.58,1.27,10.73,10.73,0,0,1,.09,1.71v2.49a26.06,26.06,0,0,0,.12,3.28,4.26,4.26,0,0,0,.47,1.32h-1.94A3.94,3.94,0,0,1,193.5,349.63Zm-.15-4.16a13.92,13.92,0,0,1-3,.7,7,7,0,0,0-1.63.37,1.58,1.58,0,0,0-.73.61,1.64,1.64,0,0,0,.3,2.12,2.45,2.45,0,0,0,1.65.5,3.9,3.9,0,0,0,1.92-.47,2.84,2.84,0,0,0,1.23-1.29,4.49,4.49,0,0,0,.3-1.86Z"/><path class="cls-4" d="M198.13,338v-2.14H200V338Zm0,13V340H200v11Z"/><path class="cls-4" d="M202.79,351V335.81h1.86V351Z"/><path class="cls-4" d="M207.45,355.21l-.2-1.75a4.13,4.13,0,0,0,1.06.17,2,2,0,0,0,1-.21,1.62,1.62,0,0,0,.61-.58,8.51,8.51,0,0,0,.57-1.38c0-.11.09-.26.17-.46l-4.17-11h2l2.28,6.37a25.21,25.21,0,0,1,.8,2.54,23.34,23.34,0,0,1,.77-2.5l2.34-6.41h1.87l-4.18,11.18a21.71,21.71,0,0,1-1.05,2.49,3.71,3.71,0,0,1-1.14,1.35,2.62,2.62,0,0,1-1.53.43A3.77,3.77,0,0,1,207.45,355.21Z"/><path class="cls-4" d="M227.07,351l-4.18-11h2l2.35,6.58c.26.71.49,1.45.71,2.22.16-.58.39-1.28.69-2.09l2.44-6.71H233l-4.16,11Z"/><path class="cls-4" d="M234.62,338v-2.14h1.86V338Zm0,13V340h1.86v11Z"/><path class="cls-4" d="M246.49,349.63a7,7,0,0,1-2,1.24,5.79,5.79,0,0,1-2.06.36,4,4,0,0,1-2.78-.89,3.1,3.1,0,0,1,.36-4.8,4.55,4.55,0,0,1,1.34-.61,12.68,12.68,0,0,1,1.65-.28,17.94,17.94,0,0,0,3.33-.64c0-.26,0-.42,0-.49a2.05,2.05,0,0,0-.53-1.6,3.12,3.12,0,0,0-2.12-.63,3.24,3.24,0,0,0-1.94.46,2.78,2.78,0,0,0-.93,1.63l-1.82-.25a4.57,4.57,0,0,1,.82-1.89,3.56,3.56,0,0,1,1.64-1.11,7.33,7.33,0,0,1,2.5-.39,6.33,6.33,0,0,1,2.28.34,3,3,0,0,1,1.3.83,3.11,3.11,0,0,1,.58,1.27,10.73,10.73,0,0,1,.09,1.71v2.49a26.06,26.06,0,0,0,.12,3.28,4,4,0,0,0,.47,1.32h-1.95A4.18,4.18,0,0,1,246.49,349.63Zm-.15-4.16a14,14,0,0,1-3.05.7,7,7,0,0,0-1.62.37,1.65,1.65,0,0,0-.74.61,1.58,1.58,0,0,0-.25.88,1.56,1.56,0,0,0,.56,1.24,2.45,2.45,0,0,0,1.65.5,3.83,3.83,0,0,0,1.91-.47A2.91,2.91,0,0,0,246,348a4.66,4.66,0,0,0,.3-1.86Z"/><path class="cls-4" d="M256.91,355.21l-.21-1.75a4.27,4.27,0,0,0,1.07.17,2,2,0,0,0,1-.21,1.69,1.69,0,0,0,.61-.58,8.51,8.51,0,0,0,.57-1.38c0-.11.09-.26.17-.46l-4.17-11h2l2.29,6.37c.3.8.56,1.65.8,2.54a25.83,25.83,0,0,1,.76-2.5l2.35-6.41H266l-4.19,11.18a20.4,20.4,0,0,1-1,2.49,3.71,3.71,0,0,1-1.14,1.35,2.67,2.67,0,0,1-1.53.43A3.77,3.77,0,0,1,256.91,355.21Z"/><path class="cls-4" d="M266.89,345.49a5.68,5.68,0,0,1,1.7-4.53,5.15,5.15,0,0,1,3.46-1.22,4.93,4.93,0,0,1,3.7,1.49,5.65,5.65,0,0,1,1.44,4.1,7.19,7.19,0,0,1-.64,3.34,4.49,4.49,0,0,1-1.85,1.89,5.46,5.46,0,0,1-2.65.67,4.91,4.91,0,0,1-3.73-1.48A5.91,5.91,0,0,1,266.89,345.49Zm1.92,0a4.71,4.71,0,0,0,.92,3.16,3,3,0,0,0,2.32,1.05,2.91,2.91,0,0,0,2.3-1.06,4.74,4.74,0,0,0,.93-3.22,4.52,4.52,0,0,0-.93-3.08,3.08,3.08,0,0,0-4.62,0A4.69,4.69,0,0,0,268.81,345.49Z"/><path class="cls-4" d="M286.57,351v-1.61a4,4,0,0,1-3.48,1.86,4.59,4.59,0,0,1-1.82-.37,3,3,0,0,1-1.25-.94,3.44,3.44,0,0,1-.57-1.38,9.05,9.05,0,0,1-.12-1.74V340h1.86v6.1a10.27,10.27,0,0,0,.12,2,2,2,0,0,0,.74,1.16,2.31,2.31,0,0,0,1.41.42,3.12,3.12,0,0,0,1.57-.43,2.4,2.4,0,0,0,1-1.17,5.75,5.75,0,0,0,.31-2.15V340h1.86v11Z"/><path class="cls-4" d="M291.14,351V340h1.67v1.67a4.5,4.5,0,0,1,1.19-1.54,2.05,2.05,0,0,1,1.19-.38,3.65,3.65,0,0,1,1.92.6l-.64,1.73a2.69,2.69,0,0,0-1.37-.4,1.76,1.76,0,0,0-1.1.37,2,2,0,0,0-.69,1,7.22,7.22,0,0,0-.31,2.18V351Z"/></svg>