<svg id="Layer_1" data-name="Layer 1" xmlns="http://www.w3.org/2000/svg" viewBox="0 0 423.43 402.92"><defs><style>.cls-1{fill:#1db954;}.cls-2{fill:#f8a756;}.cls-3{fill:#3a3a3a;}.cls-4{fill:#6d6d6d;}</style></defs><title>icons_swaped</title><path class="cls-1" d="M199.64,106.28l-7.47-27.71a17.82,17.82,0,0,1,17.21-22.46H215a17.81,17.81,0,0,1,17.38,21.74L226,106.21l-3.39-.77L229,77.09a14.36,14.36,0,0,0-14-17.52h-5.59a14.35,14.35,0,0,0-13.86,18.09L203,105.38Z"/><path class="cls-1" d="M189.7,106.63l-18-18a11.1,11.1,0,0,1-3-10.41,10.85,10.85,0,0,1,7.07-7.9c4.73-1.63,10.78-1.83,18-.59l-.59,3.42c-6.62-1.14-12.09-1-16.26.44A7.35,7.35,0,0,0,172.1,79a7.67,7.67,0,0,0,2.05,7.19l18,18Z"/><path class="cls-1" d="M234.24,106.63l-2.45-2.45,18-18A7.64,7.64,0,0,0,251.84,79a7.35,7.35,0,0,0-4.82-5.4c-4.17-1.43-9.64-1.58-16.26-.44l-.59-3.42c7.21-1.24,13.26-1,18,.59a10.85,10.85,0,0,1,7.07,7.9,11.1,11.1,0,0,1-3,10.41Z"/><path class="cls-1" d="M239.59,282.07l-.5-3.43c13.87-2,24.12-8.94,30.47-20.56A45.64,45.64,0,0,0,275,236.23V164.85c.4-29.33-39.76-41.53-40.17-41.65l1-3.32c1.76.51,43.09,13.05,42.65,45v71.35a49.12,49.12,0,0,1-5.84,23.52C267.86,268.42,258.29,279.34,239.59,282.07Z"/><path class="cls-1" d="M147.86,229.37H144.4V164.85c-.44-31.92,40.89-44.46,42.64-45l1,3.32c-.4.12-40.56,12.32-40.16,41.63Z"/><path class="cls-1" d="M154,290.16a1.74,1.74,0,0,1-1.73-1.73v-58.6a1.74,1.74,0,1,1,3.47,0v58.6A1.74,1.74,0,0,1,154,290.16Z"/><path class="cls-1" d="M195.6,290.59a1.73,1.73,0,0,1-1.73-1.74v-58.6a1.73,1.73,0,0,1,3.46,0v58.6A1.73,1.73,0,0,1,195.6,290.59Z"/><path class="cls-1" d="M153.13,245.71H111.51a1.73,1.73,0,0,1,0-3.46h41.62a1.73,1.73,0,1,1,0,3.46Z"/><path class="cls-1" d="M152.72,260.44H111.09a1.74,1.74,0,0,1,0-3.47h41.63a1.74,1.74,0,0,1,0,3.47Z"/><path class="cls-1" d="M152.72,274.87H111.09a1.73,1.73,0,1,1,0-3.46h41.63a1.73,1.73,0,1,1,0,3.46Z"/><path class="cls-1" d="M238.91,245.71H196.45a1.73,1.73,0,1,1,0-3.46h42.46a1.73,1.73,0,1,1,0,3.46Z"/><path class="cls-1" d="M238.49,260.44H196a1.74,1.74,0,0,1,0-3.47h42.47a1.74,1.74,0,0,1,0,3.47Z"/><path class="cls-1" d="M238.49,274.87H196a1.73,1.73,0,0,1,0-3.46h42.47a1.73,1.73,0,1,1,0,3.46Z"/><path class="cls-2" d="M234,231.1a1.62,1.62,0,0,1-1.29-.65,1.6,1.6,0,0,1,.32-2.26,34.06,34.06,0,1,0-40.94,0,1.62,1.62,0,1,1-2,2.58,37.3,37.3,0,1,1,44.83,0A1.6,1.6,0,0,1,234,231.1Z"/><path class="cls-1" d="M190.5,138.14a1.74,1.74,0,0,1,0-3.47c9.73,0,14.47-12.34,14.52-12.47a1.73,1.73,0,1,1,3.24,1.22C208,124,202.61,138.14,190.5,138.14Z"/><path class="cls-1" d="M238.92,149.18a1.76,1.76,0,0,1-.46-.06c-19.52-5.33-23.19-25.17-23.34-26a1.74,1.74,0,1,1,3.42-.59c.14.78,3.48,18.52,20.83,23.25a1.74,1.74,0,0,1-.45,3.41Z"/><path class="cls-2" d="M231.27,202.57a1.63,1.63,0,0,1-1.62-1.62,18.77,18.77,0,1,0-37.53,0,1.62,1.62,0,1,1-3.23,0,22,22,0,0,1,44,0A1.63,1.63,0,0,1,231.27,202.57Z"/><path class="cls-2" d="M231.27,214.46H190.5a1.62,1.62,0,0,1,0-3.24h40.77a1.62,1.62,0,0,1,0,3.24Z"/><path class="cls-2" d="M219.38,200H201.54a1.62,1.62,0,0,1,0-3.24h17.84a1.62,1.62,0,0,1,0,3.24Z"/><path class="cls-1" d="M180.65,251.48c-.63-1.32-2.81-2.61-5.39-2.61-2.34,0-4.63.89-4.66,2.84s2.45,2.41,4.89,2.61c4.93.53,10.25,1.92,10.25,7.81,0,4.29-2.77,6.91-8,7.44v3.14h-4.53V269.6c-3.91-.4-7.48-2.61-8.87-6l4.3-2.08c1,2.08,3.87,3.61,6.58,3.61,3,0,5.29-.43,5.29-3,0-2.09-2.58-2.95-5.45-3.18-4.86-.46-9.62-1.42-9.59-7.24,0-4.36,3.8-6.48,7.87-6.81v-2.75h4.36v2.75a8.16,8.16,0,0,1,7,4.69Z"/><path class="cls-2" d="M231.7,123.58H190.93a9.69,9.69,0,1,1,0-19.37H231.7a9.69,9.69,0,0,1,0,19.37Zm-40.77-16.14a6.46,6.46,0,0,0,0,12.91H231.7a6.46,6.46,0,0,0,0-12.91Z"/><path class="cls-1" d="M239.76,290.16H110.67a1.73,1.73,0,0,1-1.73-1.73v-58.6a1.73,1.73,0,0,1,1.73-1.74H239.76a1.74,1.74,0,0,1,1.74,1.74v58.6A1.74,1.74,0,0,1,239.76,290.16ZM112.4,286.69H238V231.56H112.4Z"/><path class="cls-3" d="M68.13,337V321.18h3.16L75,332.4c.34,1.05.59,1.83.75,2.35.18-.58.46-1.42.85-2.54l3.79-11h2.82V337h-2V323.77L76.63,337h-1.9l-4.58-13.49V337Z"/><path class="cls-3" d="M93.87,335.61a7.21,7.21,0,0,1-2.08,1.3,6,6,0,0,1-2.14.38,4.17,4.17,0,0,1-2.91-.93,3,3,0,0,1-1-2.36,3.11,3.11,0,0,1,.38-1.54,3.19,3.19,0,0,1,1-1.12,4.8,4.8,0,0,1,1.4-.63,15.44,15.44,0,0,1,1.73-.3,17.19,17.19,0,0,0,3.47-.67c0-.26,0-.43,0-.5a2.13,2.13,0,0,0-.55-1.68A3.24,3.24,0,0,0,91,326.9a3.45,3.45,0,0,0-2,.48,2.93,2.93,0,0,0-1,1.7l-1.9-.25a4.75,4.75,0,0,1,.85-2,3.76,3.76,0,0,1,1.72-1.15,7.69,7.69,0,0,1,2.61-.41,6.94,6.94,0,0,1,2.39.35,3.16,3.16,0,0,1,1.35.87,3,3,0,0,1,.6,1.32,10.33,10.33,0,0,1,.1,1.8v2.59a28.47,28.47,0,0,0,.12,3.43,4.41,4.41,0,0,0,.5,1.38h-2A4.22,4.22,0,0,1,93.87,335.61Zm-.16-4.34a14,14,0,0,1-3.17.73,7.85,7.85,0,0,0-1.7.39,1.79,1.79,0,0,0-.77.63,1.73,1.73,0,0,0,.32,2.23,2.56,2.56,0,0,0,1.72.51,4,4,0,0,0,2-.49,3,3,0,0,0,1.29-1.34,4.71,4.71,0,0,0,.31-1.95Z"/><path class="cls-3" d="M97.4,337l4.19-6-3.88-5.51h2.43l1.76,2.69c.34.51.6.94.8,1.29.32-.48.61-.9.88-1.27l1.93-2.71h2.33l-4,5.4,4.27,6.08h-2.39l-2.35-3.57-.63-1-3,4.53Z"/><path class="cls-3" d="M109.77,323.42v-2.24h2v2.24Zm0,13.61V325.55h2V337Z"/><path class="cls-3" d="M114.68,337V325.55h1.74v1.61a4.18,4.18,0,0,1,1.44-1.36,4,4,0,0,1,2-.51,3.79,3.79,0,0,1,2.09.53,2.84,2.84,0,0,1,1.15,1.48,4.13,4.13,0,0,1,3.55-2,3.49,3.49,0,0,1,2.62.95,4,4,0,0,1,.92,2.91V337H128.3V329.8a5.48,5.48,0,0,0-.19-1.68,1.68,1.68,0,0,0-.69-.83,2.13,2.13,0,0,0-1.17-.31,2.76,2.76,0,0,0-2,.8,3.57,3.57,0,0,0-.8,2.58V337H121.5v-7.46a3.24,3.24,0,0,0-.48-1.94,1.76,1.76,0,0,0-1.55-.65,2.8,2.8,0,0,0-1.52.43,2.45,2.45,0,0,0-1,1.26,7.11,7.11,0,0,0-.32,2.4v6Z"/><path class="cls-3" d="M140.64,337v-1.69a4.2,4.2,0,0,1-3.64,2,4.65,4.65,0,0,1-1.9-.39,3.18,3.18,0,0,1-1.31-1,3.77,3.77,0,0,1-.6-1.44,9.82,9.82,0,0,1-.12-1.82v-7.11h2v6.37a11.22,11.22,0,0,0,.12,2.05,2,2,0,0,0,.78,1.2,2.34,2.34,0,0,0,1.47.44,3.19,3.19,0,0,0,1.64-.45,2.48,2.48,0,0,0,1.09-1.22,6.18,6.18,0,0,0,.31-2.24v-6.15h1.95V337Z"/><path class="cls-3" d="M145.43,337V325.55h1.74v1.61a4.24,4.24,0,0,1,1.43-1.36,4.08,4.08,0,0,1,2.05-.51,3.81,3.81,0,0,1,2.09.53,2.84,2.84,0,0,1,1.15,1.48,4.12,4.12,0,0,1,3.54-2,3.5,3.5,0,0,1,2.63.95,4,4,0,0,1,.92,2.91V337H159V329.8a5.56,5.56,0,0,0-.18-1.68,1.68,1.68,0,0,0-.69-.83A2.13,2.13,0,0,0,157,327a2.76,2.76,0,0,0-2,.8,3.57,3.57,0,0,0-.8,2.58V337h-1.94v-7.46a3.24,3.24,0,0,0-.48-1.94,1.77,1.77,0,0,0-1.55-.65,2.8,2.8,0,0,0-1.52.43,2.45,2.45,0,0,0-1,1.26,7.11,7.11,0,0,0-.32,2.4v6Z"/><path class="cls-3" d="M167.3,337l6.09-15.85h2.26L182.13,337h-2.39l-1.85-4.8h-6.62l-1.74,4.8Zm4.57-6.51h5.38l-1.66-4.39c-.5-1.33-.88-2.42-1.12-3.28a20.25,20.25,0,0,1-.86,3Z"/><path class="cls-3" d="M191,337v-1.45a3.55,3.55,0,0,1-3.21,1.71,4.47,4.47,0,0,1-2.52-.76,4.93,4.93,0,0,1-1.78-2.11,7.22,7.22,0,0,1-.64-3.12,8,8,0,0,1,.58-3.12,4.44,4.44,0,0,1,1.72-2.14,4.55,4.55,0,0,1,2.56-.75,3.89,3.89,0,0,1,1.85.44,3.81,3.81,0,0,1,1.31,1.14v-5.69h1.94V337Zm-6.15-5.73a5,5,0,0,0,.93,3.3,2.83,2.83,0,0,0,2.2,1.09,2.75,2.75,0,0,0,2.16-1,4.8,4.8,0,0,0,.9-3.19,5.45,5.45,0,0,0-.91-3.46,2.81,2.81,0,0,0-2.24-1.1,2.7,2.7,0,0,0-2.17,1.06A5.24,5.24,0,0,0,184.85,331.3Z"/><path class="cls-3" d="M199.06,337l-4.37-11.48h2.05l2.47,6.87c.26.75.51,1.52.73,2.32.17-.61.42-1.34.73-2.19l2.55-7h2L200.87,337Z"/><path class="cls-3" d="M214.42,335.61a7.21,7.21,0,0,1-2.08,1.3,6,6,0,0,1-2.14.38,4.17,4.17,0,0,1-2.91-.93,3,3,0,0,1-1-2.36,3.12,3.12,0,0,1,.39-1.54,3.19,3.19,0,0,1,1-1.12,4.69,4.69,0,0,1,1.4-.63,15,15,0,0,1,1.73-.3,17.19,17.19,0,0,0,3.47-.67c0-.26,0-.43,0-.5a2.13,2.13,0,0,0-.55-1.68,3.26,3.26,0,0,0-2.21-.66,3.43,3.43,0,0,0-2,.48,2.93,2.93,0,0,0-1,1.7l-1.9-.25a4.75,4.75,0,0,1,.85-2,3.76,3.76,0,0,1,1.72-1.15,7.69,7.69,0,0,1,2.61-.41,6.84,6.84,0,0,1,2.38.35,3.14,3.14,0,0,1,1.36.87,3.09,3.09,0,0,1,.6,1.32,10.33,10.33,0,0,1,.1,1.8v2.59a28.47,28.47,0,0,0,.12,3.43,4.65,4.65,0,0,0,.49,1.38h-2A4.22,4.22,0,0,1,214.42,335.61Zm-.16-4.34a14,14,0,0,1-3.18.73,7.73,7.73,0,0,0-1.69.39,1.79,1.79,0,0,0-.77.63,1.73,1.73,0,0,0,.32,2.23,2.56,2.56,0,0,0,1.72.51,4,4,0,0,0,2-.49,3,3,0,0,0,1.29-1.34,4.71,4.71,0,0,0,.31-1.95Z"/><path class="cls-3" d="M219.24,337V325.55H221v1.63a4.15,4.15,0,0,1,3.66-1.89,5,5,0,0,1,1.91.37,3.11,3.11,0,0,1,1.3,1,3.66,3.66,0,0,1,.6,1.44,11.29,11.29,0,0,1,.11,1.89V337h-1.94v-7a5.23,5.23,0,0,0-.23-1.78,1.85,1.85,0,0,0-.81-.94,2.47,2.47,0,0,0-1.35-.35,3.14,3.14,0,0,0-2.15.79,3.88,3.88,0,0,0-.9,3V337Z"/><path class="cls-3" d="M239,332.82l1.92.25a5,5,0,0,1-1.61,3.1,4.66,4.66,0,0,1-3.17,1.12,5,5,0,0,1-3.79-1.54,6.28,6.28,0,0,1-1.43-4.42,7.82,7.82,0,0,1,.62-3.25,4.25,4.25,0,0,1,1.87-2.09,5.5,5.5,0,0,1,2.74-.7,4.76,4.76,0,0,1,3.06.95,4.31,4.31,0,0,1,1.52,2.68l-1.89.29a3.13,3.13,0,0,0-1-1.74,2.45,2.45,0,0,0-1.65-.58,3,3,0,0,0-2.39,1.05,5,5,0,0,0-.92,3.34,5.12,5.12,0,0,0,.89,3.36,2.88,2.88,0,0,0,2.31,1.05,2.76,2.76,0,0,0,1.91-.7A3.47,3.47,0,0,0,239,332.82Z"/><path class="cls-3" d="M250.48,333.33l2,.25a5,5,0,0,1-1.76,2.74,5.37,5.37,0,0,1-3.29,1,5.25,5.25,0,0,1-4-1.55,6.05,6.05,0,0,1-1.48-4.35,6.38,6.38,0,0,1,1.49-4.5,5.05,5.05,0,0,1,3.87-1.6,4.88,4.88,0,0,1,3.76,1.57,6.18,6.18,0,0,1,1.46,4.41c0,.11,0,.29,0,.52H244a4.39,4.39,0,0,0,1.07,2.89,3.19,3.19,0,0,0,2.4,1,3,3,0,0,0,1.83-.56A3.85,3.85,0,0,0,250.48,333.33Zm-6.39-3.14h6.41a3.9,3.9,0,0,0-.74-2.18,3,3,0,0,0-2.41-1.12,3.08,3.08,0,0,0-2.25.9A3.58,3.58,0,0,0,244.09,330.19Z"/><path class="cls-3" d="M258.37,337l6.08-15.85h2.26L273.2,337h-2.39l-1.85-4.8h-6.63l-1.74,4.8Zm4.57-6.51h5.37l-1.65-4.39c-.51-1.33-.88-2.42-1.13-3.28a20.2,20.2,0,0,1-.85,3Z"/><path class="cls-3" d="M274.62,337V325.55h1.74v1.61a4.18,4.18,0,0,1,1.44-1.36,4.06,4.06,0,0,1,2-.51,3.79,3.79,0,0,1,2.09.53,2.79,2.79,0,0,1,1.15,1.48,4.13,4.13,0,0,1,3.55-2,3.52,3.52,0,0,1,2.63.95,4,4,0,0,1,.91,2.91V337h-1.93V329.8a5.18,5.18,0,0,0-.19-1.68,1.63,1.63,0,0,0-.69-.83,2.12,2.12,0,0,0-1.16-.31,2.73,2.73,0,0,0-2,.8,3.53,3.53,0,0,0-.8,2.58V337h-1.95v-7.46a3.32,3.32,0,0,0-.47-1.94,1.79,1.79,0,0,0-1.56-.65,2.82,2.82,0,0,0-1.52.43,2.5,2.5,0,0,0-1,1.26,7.15,7.15,0,0,0-.31,2.4v6Z"/><path class="cls-3" d="M292.34,331.29a5.9,5.9,0,0,1,1.77-4.72,5.35,5.35,0,0,1,3.61-1.28,5.16,5.16,0,0,1,3.87,1.55,5.92,5.92,0,0,1,1.5,4.29,7.48,7.48,0,0,1-.67,3.48,4.59,4.59,0,0,1-1.93,2,5.63,5.63,0,0,1-2.77.71,5.17,5.17,0,0,1-3.9-1.55A6.16,6.16,0,0,1,292.34,331.29Zm2,0a4.89,4.89,0,0,0,1,3.3,3.2,3.2,0,0,0,4.83,0,5,5,0,0,0,1-3.37,4.71,4.71,0,0,0-1-3.22,3.06,3.06,0,0,0-2.4-1.1A3.11,3.11,0,0,0,295.3,328,4.89,4.89,0,0,0,294.34,331.29Z"/><path class="cls-3" d="M312.89,337v-1.69a4.2,4.2,0,0,1-3.64,2,4.65,4.65,0,0,1-1.9-.39,3.14,3.14,0,0,1-1.3-1,3.48,3.48,0,0,1-.6-1.44,9.82,9.82,0,0,1-.12-1.82v-7.11h1.94v6.37a11.22,11.22,0,0,0,.12,2.05,2,2,0,0,0,.78,1.2,2.37,2.37,0,0,0,1.47.44,3.19,3.19,0,0,0,1.64-.45,2.44,2.44,0,0,0,1.09-1.22,6.14,6.14,0,0,0,.32-2.24v-6.15h1.94V337Z"/><path class="cls-3" d="M317.68,337V325.55h1.75v1.63a4.12,4.12,0,0,1,3.65-1.89,4.93,4.93,0,0,1,1.91.37,3,3,0,0,1,1.3,1,3.83,3.83,0,0,1,.61,1.44A11.29,11.29,0,0,1,327,330V337h-1.95v-7a5,5,0,0,0-.23-1.78,1.83,1.83,0,0,0-.8-.94,2.53,2.53,0,0,0-1.36-.35,3.11,3.11,0,0,0-2.14.79,3.88,3.88,0,0,0-.9,3V337Z"/><path class="cls-3" d="M334.24,335.29l.28,1.72a7.63,7.63,0,0,1-1.47.17,3.23,3.23,0,0,1-1.64-.34,1.85,1.85,0,0,1-.83-.88,7.25,7.25,0,0,1-.23-2.29v-6.61h-1.43v-1.51h1.43v-2.84l1.93-1.17v4h2v1.51h-2v6.72a3.61,3.61,0,0,0,.1,1.06.78.78,0,0,0,.34.38,1.22,1.22,0,0,0,.66.14A6.36,6.36,0,0,0,334.24,335.29Z"/><path class="cls-4" d="M106.6,374.53v-2.09a7.67,7.67,0,0,1-2.56-.71,4.54,4.54,0,0,1-1.7-1.63,5.91,5.91,0,0,1-.83-2.77l2.11-.39a5.33,5.33,0,0,0,.86,2.48,3.07,3.07,0,0,0,2.12,1.25V364a8.94,8.94,0,0,1-2.65-1,3.89,3.89,0,0,1-1.54-1.55,4.94,4.94,0,0,1,1-5.87,5.48,5.48,0,0,1,3.15-1.15v-1h1.23v1a5.24,5.24,0,0,1,2.91,1.08,4.79,4.79,0,0,1,1.65,3.13l-2.17.33a3.58,3.58,0,0,0-.77-1.9,2.78,2.78,0,0,0-1.62-.86v6a16.91,16.91,0,0,1,2.1.62,5.29,5.29,0,0,1,1.6,1.05,4.19,4.19,0,0,1,1,1.47,5.39,5.39,0,0,1-1.06,5.47,5.08,5.08,0,0,1-3.59,1.56v2.12Zm0-18.36a3.12,3.12,0,0,0-1.93,1,2.92,2.92,0,0,0-.1,3.67,4.06,4.06,0,0,0,2,1.15Zm1.23,14.5a3.16,3.16,0,0,0,2-1.06,3.31,3.31,0,0,0,.79-2.25,2.81,2.81,0,0,0-.56-1.84,5,5,0,0,0-2.26-1.24Z"/><path class="cls-4" d="M125.94,370.06v2H114.65a3.63,3.63,0,0,1,.25-1.46,7.32,7.32,0,0,1,1.38-2.27,20.89,20.89,0,0,1,2.74-2.59,22.81,22.81,0,0,0,3.76-3.62,4.28,4.28,0,0,0,1-2.52,2.81,2.81,0,0,0-.89-2.1,3.21,3.21,0,0,0-2.32-.86,3.28,3.28,0,0,0-2.43.91,3.47,3.47,0,0,0-.92,2.52l-2.15-.22a5.28,5.28,0,0,1,1.66-3.68,5.72,5.72,0,0,1,3.88-1.27,5.4,5.4,0,0,1,3.89,1.37,4.46,4.46,0,0,1,1.44,3.38,5.1,5.1,0,0,1-.42,2,8,8,0,0,1-1.39,2.09,33.6,33.6,0,0,1-3.24,3c-1.26,1.06-2.06,1.78-2.42,2.15a7.38,7.38,0,0,0-.89,1.14Z"/><path class="cls-4" d="M129.32,372.08v-2.39h2.39v2.39a4.24,4.24,0,0,1-.47,2.12,3.05,3.05,0,0,1-1.48,1.26l-.58-.9a2,2,0,0,0,1-.86,3.71,3.71,0,0,0,.35-1.62Z"/><path class="cls-4" d="M134.82,367.6l2.2-.18a3.89,3.89,0,0,0,1.14,2.41,3.08,3.08,0,0,0,2.15.81,3.34,3.34,0,0,0,2.56-1.14,4.3,4.3,0,0,0,1-3,3.9,3.9,0,0,0-1-2.83,3.52,3.52,0,0,0-2.64-1,3.77,3.77,0,0,0-1.83.46,3.61,3.61,0,0,0-1.28,1.2l-2-.26,1.66-8.77h8.49v2h-6.82l-.92,4.59a5.62,5.62,0,0,1,3.23-1.07,5.15,5.15,0,0,1,3.78,1.55,5.44,5.44,0,0,1,1.54,4,6.21,6.21,0,0,1-1.36,4,5.39,5.39,0,0,1-4.48,2.08,5.55,5.55,0,0,1-3.81-1.31A5.09,5.09,0,0,1,134.82,367.6Z"/><path class="cls-4" d="M148.09,363.65a15.76,15.76,0,0,1,.62-4.87,6,6,0,0,1,1.86-2.85,4.73,4.73,0,0,1,3.09-1,5,5,0,0,1,2.41.56,4.59,4.59,0,0,1,1.71,1.6,8.34,8.34,0,0,1,1.06,2.54,16.55,16.55,0,0,1,.39,4,15.67,15.67,0,0,1-.62,4.85,6.08,6.08,0,0,1-1.84,2.86,4.76,4.76,0,0,1-3.11,1,4.68,4.68,0,0,1-3.88-1.77C148.65,369.17,148.09,366.86,148.09,363.65Zm2.16,0c0,2.81.32,4.67,1,5.6a2.82,2.82,0,0,0,4.86,0c.66-.94,1-2.8,1-5.6s-.32-4.68-1-5.6a2.91,2.91,0,0,0-2.45-1.39,2.69,2.69,0,0,0-2.31,1.22Q150.25,359.46,150.25,363.65Z"/><path class="cls-4" d="M161.36,363.65a15.76,15.76,0,0,1,.62-4.87,6,6,0,0,1,1.86-2.85,4.73,4.73,0,0,1,3.09-1,5,5,0,0,1,2.41.56,4.69,4.69,0,0,1,1.72,1.6,8.59,8.59,0,0,1,1.06,2.54,17.15,17.15,0,0,1,.38,4,15.67,15.67,0,0,1-.62,4.85,6,6,0,0,1-1.84,2.86,4.76,4.76,0,0,1-3.11,1,4.68,4.68,0,0,1-3.88-1.77C161.92,369.17,161.36,366.86,161.36,363.65Zm2.16,0c0,2.81.33,4.67,1,5.6a2.82,2.82,0,0,0,4.86,0c.66-.94,1-2.8,1-5.6s-.32-4.68-1-5.6a2.91,2.91,0,0,0-2.45-1.39,2.7,2.7,0,0,0-2.31,1.22Q163.52,359.46,163.52,363.65Z"/><path class="cls-4" d="M181,367v-2.11h6.44V367Z"/><path class="cls-4" d="M200.79,374.53v-2.09a7.67,7.67,0,0,1-2.56-.71,4.54,4.54,0,0,1-1.7-1.63,5.91,5.91,0,0,1-.83-2.77l2.11-.39a5.33,5.33,0,0,0,.86,2.48,3.07,3.07,0,0,0,2.12,1.25V364a8.79,8.79,0,0,1-2.64-1,3.85,3.85,0,0,1-1.55-1.55,4.94,4.94,0,0,1,1-5.87,5.48,5.48,0,0,1,3.15-1.15v-1H202v1a5.2,5.2,0,0,1,2.9,1.08,4.74,4.74,0,0,1,1.65,3.13l-2.17.33a3.58,3.58,0,0,0-.77-1.9,2.78,2.78,0,0,0-1.61-.86v6a17.15,17.15,0,0,1,2.09.62,5.17,5.17,0,0,1,1.6,1.05,4.19,4.19,0,0,1,.95,1.47,5.39,5.39,0,0,1-1.06,5.47,5.08,5.08,0,0,1-3.58,1.56v2.12Zm0-18.36a3.12,3.12,0,0,0-1.93,1,2.92,2.92,0,0,0-.1,3.67,4.06,4.06,0,0,0,2,1.15Zm1.24,14.5a3.14,3.14,0,0,0,2-1.06,3.31,3.31,0,0,0,.8-2.25,2.81,2.81,0,0,0-.57-1.84,5,5,0,0,0-2.25-1.24Z"/><path class="cls-4" d="M220.13,370.06v2H208.84a3.81,3.81,0,0,1,.25-1.46,7.32,7.32,0,0,1,1.38-2.27,20.89,20.89,0,0,1,2.74-2.59,22.81,22.81,0,0,0,3.76-3.62,4.28,4.28,0,0,0,1-2.52,2.77,2.77,0,0,0-.89-2.1,3.21,3.21,0,0,0-2.32-.86,3.28,3.28,0,0,0-2.43.91,3.47,3.47,0,0,0-.92,2.52l-2.15-.22a5.33,5.33,0,0,1,1.66-3.68,5.72,5.72,0,0,1,3.88-1.27,5.44,5.44,0,0,1,3.9,1.37,4.49,4.49,0,0,1,1.43,3.38,5.1,5.1,0,0,1-.42,2,7.8,7.8,0,0,1-1.39,2.09,33.6,33.6,0,0,1-3.24,3c-1.25,1.06-2.06,1.78-2.42,2.15a7.38,7.38,0,0,0-.89,1.14Z"/><path class="cls-4" d="M222.38,367.6l2.2-.18a3.94,3.94,0,0,0,1.14,2.41,3.08,3.08,0,0,0,2.15.81,3.34,3.34,0,0,0,2.56-1.14,4.3,4.3,0,0,0,1-3,3.9,3.9,0,0,0-1-2.83,3.52,3.52,0,0,0-2.64-1,3.77,3.77,0,0,0-1.83.46,3.61,3.61,0,0,0-1.28,1.2l-2-.26,1.66-8.77h8.49v2h-6.81l-.92,4.59a5.57,5.57,0,0,1,3.22-1.07,5.15,5.15,0,0,1,3.78,1.55,5.44,5.44,0,0,1,1.54,4,6.15,6.15,0,0,1-1.36,4,5.39,5.39,0,0,1-4.48,2.08,5.55,5.55,0,0,1-3.81-1.31A5.09,5.09,0,0,1,222.38,367.6Z"/><path class="cls-4" d="M235.65,363.65a15.76,15.76,0,0,1,.62-4.87,6,6,0,0,1,1.86-2.85,4.73,4.73,0,0,1,3.09-1,5,5,0,0,1,2.41.56,4.62,4.62,0,0,1,1.72,1.6,8.59,8.59,0,0,1,1.06,2.54,17.15,17.15,0,0,1,.38,4,15.67,15.67,0,0,1-.62,4.85,6,6,0,0,1-1.84,2.86,4.76,4.76,0,0,1-3.11,1,4.68,4.68,0,0,1-3.88-1.77C236.21,369.17,235.65,366.86,235.65,363.65Zm2.16,0c0,2.81.33,4.67,1,5.6a2.82,2.82,0,0,0,4.86,0c.66-.94,1-2.8,1-5.6s-.32-4.68-1-5.6a2.91,2.91,0,0,0-2.45-1.39,2.7,2.7,0,0,0-2.31,1.22Q237.81,359.46,237.81,363.65Z"/><path class="cls-4" d="M250.05,372.08v-2.39h2.39v2.39a4.24,4.24,0,0,1-.46,2.12,3.15,3.15,0,0,1-1.48,1.26l-.59-.9a2,2,0,0,0,1-.86,3.58,3.58,0,0,0,.35-1.62Z"/><path class="cls-4" d="M255.55,363.65a15.43,15.43,0,0,1,.63-4.87,5.94,5.94,0,0,1,1.85-2.85,4.73,4.73,0,0,1,3.09-1,5,5,0,0,1,2.41.56,4.54,4.54,0,0,1,1.72,1.6,8.59,8.59,0,0,1,1.06,2.54,17.15,17.15,0,0,1,.38,4,15.37,15.37,0,0,1-.62,4.85,6,6,0,0,1-1.84,2.86,4.76,4.76,0,0,1-3.11,1,4.7,4.7,0,0,1-3.88-1.77C256.12,369.17,255.55,366.86,255.55,363.65Zm2.16,0c0,2.81.33,4.67,1,5.6a2.82,2.82,0,0,0,4.86,0c.66-.94,1-2.8,1-5.6s-.33-4.68-1-5.6a2.91,2.91,0,0,0-2.45-1.39,2.71,2.71,0,0,0-2.31,1.22Q257.71,359.46,257.71,363.65Z"/><path class="cls-4" d="M268.82,363.65a15.43,15.43,0,0,1,.63-4.87,5.94,5.94,0,0,1,1.85-2.85,4.73,4.73,0,0,1,3.09-1,5,5,0,0,1,2.41.56,4.54,4.54,0,0,1,1.72,1.6,8.59,8.59,0,0,1,1.06,2.54,17.15,17.15,0,0,1,.38,4,15.37,15.37,0,0,1-.62,4.85,6,6,0,0,1-1.84,2.86,4.76,4.76,0,0,1-3.11,1,4.7,4.7,0,0,1-3.88-1.77C269.39,369.17,268.82,366.86,268.82,363.65Zm2.16,0c0,2.81.33,4.67,1,5.6a2.82,2.82,0,0,0,4.86,0c.66-.94,1-2.8,1-5.6s-.33-4.68-1-5.6a2.9,2.9,0,0,0-2.45-1.39,2.71,2.71,0,0,0-2.31,1.22Q271,359.46,271,363.65Z"/><path class="cls-4" d="M282.09,363.65a15.43,15.43,0,0,1,.63-4.87,5.94,5.94,0,0,1,1.85-2.85,4.73,4.73,0,0,1,3.09-1,5.08,5.08,0,0,1,2.42.56,4.59,4.59,0,0,1,1.71,1.6,8.59,8.59,0,0,1,1.06,2.54,17.15,17.15,0,0,1,.38,4,15.7,15.7,0,0,1-.61,4.85,6.09,6.09,0,0,1-1.85,2.86,4.76,4.76,0,0,1-3.11,1,4.7,4.7,0,0,1-3.88-1.77C282.66,369.17,282.09,366.86,282.09,363.65Zm2.16,0c0,2.81.33,4.67,1,5.6a2.82,2.82,0,0,0,4.86,0c.66-.94,1-2.8,1-5.6s-.33-4.68-1-5.6a2.9,2.9,0,0,0-2.45-1.39,2.71,2.71,0,0,0-2.31,1.22Q284.25,359.46,284.25,363.65Z"/></svg>